<?xml version="1.0" encoding="UTF-8"?>
<svg width="170px" height="38px" viewBox="0 0 170 38" version="1.1" xmlns="http://www.w3.org/2000/svg" xmlns:xlink="http://www.w3.org/1999/xlink">
    <!-- Generator: Sketch 56.3 (81716) - https://sketch.com -->
    <title>Articles</title>
    <desc>Created with Sketch.</desc>
    <g id="Homepage-desktop" stroke="none" stroke-width="1" fill="none" fill-rule="evenodd">
        <g id="Homepage/Desktop" transform="translate(-120.000000, -1379.000000)" fill="#111111" fill-rule="nonzero">
            <g id="Articles" transform="translate(0.000000, 1248.000000)">
                <path d="M152.5,168 L146.3,168 L143.85,160.95 L128.95,160.95 L126.5,168 L120.25,168 L132.95,133 L139.85,133 L152.5,168 Z M136.4,139.75 L130.85,155.55 L141.95,155.55 L136.4,139.75 Z M161.3,143 L161.3,147.2 C162.65,144.1 165.25,142.55 169,142.55 L169,148.4 C166.95,148.25 165.15,148.75 163.6,149.9 C162.05,151 161.3,152.85 161.3,155.4 L161.3,168 L155.9,168 L155.9,143 L161.3,143 Z M186.95,143 L186.95,148.2 L180.75,148.2 L180.75,160.2 C180.75,163.4 182.85,163.35 186.95,163.15 L186.95,168 C178.7,169 175.35,166.75 175.35,160.2 L175.35,148.2 L170.75,148.2 L170.75,143 L175.35,143 L175.35,137.6 L180.75,136 L180.75,143 L186.95,143 Z M197.2,138.25 C195.85,139.6 193.75,139.6 192.35,138.25 C191,136.85 191,134.75 192.35,133.4 C193.7,132 195.9,132 197.25,133.4 C198.6,134.75 198.6,136.85 197.2,138.25 Z M197.5,168 L192.1,168 L192.1,143 L197.5,143 L197.5,168 Z M215.55,168.65 C211.8,168.65 208.65,167.4 206.1,164.85 C203.6,162.3 202.35,159.2 202.35,155.5 C202.35,151.75 203.6,148.65 206.1,146.15 C208.65,143.6 211.8,142.35 215.55,142.35 C220.4,142.35 224.7,144.85 226.7,148.8 L222.05,151.5 C220.9,149.1 218.5,147.65 215.5,147.65 C213.3,147.65 211.45,148.4 209.95,149.9 C208.5,151.4 207.75,153.25 207.75,155.5 C207.75,157.75 208.5,159.6 209.95,161.1 C211.45,162.6 213.3,163.35 215.5,163.35 C218.45,163.35 220.95,161.85 222.15,159.5 L226.8,162.15 C224.65,166.15 220.4,168.65 215.55,168.65 Z M236.25,168 L230.85,168 L230.85,131.5 L236.25,131.5 L236.25,168 Z M266.65,157.8 L246.75,157.8 C247.55,161.6 250.6,163.7 254.75,163.7 C257.6,163.7 259.75,162.65 261.2,160.6 L265.65,163.2 C263.2,166.85 259.55,168.65 254.7,168.65 C250.65,168.65 247.35,167.4 244.85,164.95 C242.35,162.45 241.1,159.3 241.1,155.5 C241.1,151.75 242.35,148.65 244.8,146.15 C247.25,143.6 250.45,142.35 254.3,142.35 C257.95,142.35 260.95,143.65 263.3,146.2 C265.65,148.75 266.85,151.9 266.85,155.55 C266.85,156.1 266.8,156.85 266.65,157.8 Z M246.7,153.4 L261.4,153.4 C260.65,149.35 257.8,147.25 254.25,147.25 C250.25,147.25 247.45,149.6 246.7,153.4 Z M276.45,149.9 C276.45,151.55 278.55,152.4 281.15,153.15 C285,154 290,155.6 289.9,160.95 C289.9,163.35 288.95,165.25 287.1,166.6 C285.25,167.95 282.95,168.65 280.15,168.65 C275.2,168.65 271.55,166.45 269.95,162.8 L274.6,160.1 C275.45,162.5 277.3,163.7 280.15,163.7 C283,163.7 284.4,162.75 284.4,160.9 C284.4,159.3 282.3,158.35 279.65,157.7 C275.9,156.75 270.85,155.25 270.95,150 C270.95,147.7 271.8,145.85 273.55,144.45 C275.3,143.05 277.5,142.35 280.1,142.35 C284.25,142.35 287.6,144.3 289.35,147.55 L284.8,150.1 C283.95,148.2 282.35,147.25 280.1,147.25 C278.05,147.25 276.45,148.15 276.45,149.9 Z"></path>
            </g>
        </g>
    </g>
</svg>