<?xml version="1.0" encoding="UTF-8"?>
<svg width="407px" height="101px" viewBox="0 0 407 101" version="1.1" xmlns="http://www.w3.org/2000/svg" xmlns:xlink="http://www.w3.org/1999/xlink">
    <!-- Generator: Sketch 56.3 (81716) - https://sketch.com -->
    <title>Bestpracticesforthebestbrands</title>
    <desc>Created with Sketch.</desc>
    <g id="Homepage-desktop" stroke="none" stroke-width="1" fill="none" fill-rule="evenodd">
        <g id="Homepage/Desktop" transform="translate(-120.000000, -756.000000)" fill="#111111" fill-rule="nonzero">
            <g id="Best-practices" transform="translate(0.000000, 624.000000)">
                <path d="M144.1,149.85 C147.15,151.45 149,154.35 149,158 C149,160.85 148,163.25 145.95,165.15 C143.9,167.05 141.45,168 138.5,168 L123.5,168 L123.5,133 L137.4,133 C140.25,133 142.7,133.95 144.65,135.8 C146.65,137.65 147.65,139.95 147.65,142.7 C147.65,145.75 146.45,148.1 144.1,149.85 Z M137.4,138.4 L129.25,138.4 L129.25,147.6 L137.4,147.6 C139.95,147.6 141.9,145.6 141.9,143 C141.9,140.4 139.95,138.4 137.4,138.4 Z M129.25,162.6 L138.5,162.6 C141.15,162.6 143.25,160.45 143.25,157.7 C143.25,154.95 141.15,152.8 138.5,152.8 L129.25,152.8 L129.25,162.6 Z M177.8,157.8 L157.9,157.8 C158.7,161.6 161.75,163.7 165.9,163.7 C168.75,163.7 170.9,162.65 172.35,160.6 L176.8,163.2 C174.35,166.85 170.7,168.65 165.85,168.65 C161.8,168.65 158.5,167.4 156,164.95 C153.5,162.45 152.25,159.3 152.25,155.5 C152.25,151.75 153.5,148.65 155.95,146.15 C158.4,143.6 161.6,142.35 165.45,142.35 C169.1,142.35 172.1,143.65 174.45,146.2 C176.8,148.75 178,151.9 178,155.55 C178,156.1 177.95,156.85 177.8,157.8 Z M157.85,153.4 L172.55,153.4 C171.8,149.35 168.95,147.25 165.4,147.25 C161.4,147.25 158.6,149.6 157.85,153.4 Z M187.6,149.9 C187.6,151.55 189.7,152.4 192.3,153.15 C196.15,154 201.15,155.6 201.05,160.95 C201.05,163.35 200.1,165.25 198.25,166.6 C196.4,167.95 194.1,168.65 191.3,168.65 C186.35,168.65 182.7,166.45 181.1,162.8 L185.75,160.1 C186.6,162.5 188.45,163.7 191.3,163.7 C194.15,163.7 195.55,162.75 195.55,160.9 C195.55,159.3 193.45,158.35 190.8,157.7 C187.05,156.75 182,155.25 182.1,150 C182.1,147.7 182.95,145.85 184.7,144.45 C186.45,143.05 188.65,142.35 191.25,142.35 C195.4,142.35 198.75,144.3 200.5,147.55 L195.95,150.1 C195.1,148.2 193.5,147.25 191.25,147.25 C189.2,147.25 187.6,148.15 187.6,149.9 Z M219.75,143 L219.75,148.2 L213.55,148.2 L213.55,160.2 C213.55,163.4 215.65,163.35 219.75,163.15 L219.75,168 C211.5,169 208.15,166.75 208.15,160.2 L208.15,148.2 L203.55,148.2 L203.55,143 L208.15,143 L208.15,137.6 L213.55,136 L213.55,143 L219.75,143 Z M251.55,142.35 C255,142.35 257.9,143.65 260.35,146.2 C262.8,148.75 264,151.85 264,155.5 C264,159.2 262.8,162.3 260.35,164.85 C257.9,167.4 255,168.65 251.55,168.65 C247.75,168.65 244.85,167.25 242.8,164.45 L242.8,178 L237.4,178 L237.4,143 L242.8,143 L242.8,146.6 C244.85,143.75 247.75,142.35 251.55,142.35 Z M245.05,161.25 C246.55,162.75 248.45,163.5 250.7,163.5 C252.95,163.5 254.85,162.75 256.35,161.25 C257.85,159.7 258.6,157.8 258.6,155.5 C258.6,153.2 257.85,151.3 256.35,149.8 C254.85,148.25 252.95,147.5 250.7,147.5 C248.45,147.5 246.55,148.25 245.05,149.8 C243.55,151.3 242.8,153.2 242.8,155.5 C242.8,157.8 243.55,159.7 245.05,161.25 Z M274.3,143 L274.3,147.2 C275.65,144.1 278.25,142.55 282,142.55 L282,148.4 C279.95,148.25 278.15,148.75 276.6,149.9 C275.05,151 274.3,152.85 274.3,155.4 L274.3,168 L268.9,168 L268.9,143 L274.3,143 Z M305.8,146.55 L305.8,143 L311.2,143 L311.2,168 L305.8,168 L305.8,164.4 C303.75,167.25 300.85,168.65 297.05,168.65 C293.6,168.65 290.7,167.4 288.25,164.85 C285.8,162.3 284.6,159.15 284.6,155.5 C284.6,151.8 285.8,148.7 288.25,146.15 C290.7,143.6 293.6,142.35 297.05,142.35 C300.85,142.35 303.75,143.75 305.8,146.55 Z M292.25,161.25 C293.75,162.75 295.65,163.5 297.9,163.5 C300.15,163.5 302.05,162.75 303.55,161.25 C305.05,159.7 305.8,157.8 305.8,155.5 C305.8,153.2 305.05,151.3 303.55,149.8 C302.05,148.25 300.15,147.5 297.9,147.5 C295.65,147.5 293.75,148.25 292.25,149.8 C290.75,151.3 290,153.2 290,155.5 C290,157.8 290.75,159.7 292.25,161.25 Z M329.3,168.65 C325.55,168.65 322.4,167.4 319.85,164.85 C317.35,162.3 316.1,159.2 316.1,155.5 C316.1,151.75 317.35,148.65 319.85,146.15 C322.4,143.6 325.55,142.35 329.3,142.35 C334.15,142.35 338.45,144.85 340.45,148.8 L335.8,151.5 C334.65,149.1 332.25,147.65 329.25,147.65 C327.05,147.65 325.2,148.4 323.7,149.9 C322.25,151.4 321.5,153.25 321.5,155.5 C321.5,157.75 322.25,159.6 323.7,161.1 C325.2,162.6 327.05,163.35 329.25,163.35 C332.2,163.35 334.7,161.85 335.9,159.5 L340.55,162.15 C338.4,166.15 334.15,168.65 329.3,168.65 Z M358.55,143 L358.55,148.2 L352.35,148.2 L352.35,160.2 C352.35,163.4 354.45,163.35 358.55,163.15 L358.55,168 C350.3,169 346.95,166.75 346.95,160.2 L346.95,148.2 L342.35,148.2 L342.35,143 L346.95,143 L346.95,137.6 L352.35,136 L352.35,143 L358.55,143 Z M368.8,138.25 C367.45,139.6 365.35,139.6 363.95,138.25 C362.6,136.85 362.6,134.75 363.95,133.4 C365.3,132 367.5,132 368.85,133.4 C370.2,134.75 370.2,136.85 368.8,138.25 Z M369.1,168 L363.7,168 L363.7,143 L369.1,143 L369.1,168 Z M387.15,168.65 C383.4,168.65 380.25,167.4 377.7,164.85 C375.2,162.3 373.95,159.2 373.95,155.5 C373.95,151.75 375.2,148.65 377.7,146.15 C380.25,143.6 383.4,142.35 387.15,142.35 C392,142.35 396.3,144.85 398.3,148.8 L393.65,151.5 C392.5,149.1 390.1,147.65 387.1,147.65 C384.9,147.65 383.05,148.4 381.55,149.9 C380.1,151.4 379.35,153.25 379.35,155.5 C379.35,157.75 380.1,159.6 381.55,161.1 C383.05,162.6 384.9,163.35 387.1,163.35 C390.05,163.35 392.55,161.85 393.75,159.5 L398.4,162.15 C396.25,166.15 392,168.65 387.15,168.65 Z M426.6,157.8 L406.7,157.8 C407.5,161.6 410.55,163.7 414.7,163.7 C417.55,163.7 419.7,162.65 421.15,160.6 L425.6,163.2 C423.15,166.85 419.5,168.65 414.65,168.65 C410.6,168.65 407.3,167.4 404.8,164.95 C402.3,162.45 401.05,159.3 401.05,155.5 C401.05,151.75 402.3,148.65 404.75,146.15 C407.2,143.6 410.4,142.35 414.25,142.35 C417.9,142.35 420.9,143.65 423.25,146.2 C425.6,148.75 426.8,151.9 426.8,155.55 C426.8,156.1 426.75,156.85 426.6,157.8 Z M406.65,153.4 L421.35,153.4 C420.6,149.35 417.75,147.25 414.2,147.25 C410.2,147.25 407.4,149.6 406.65,153.4 Z M436.4,149.9 C436.4,151.55 438.5,152.4 441.1,153.15 C444.95,154 449.95,155.6 449.85,160.95 C449.85,163.35 448.9,165.25 447.05,166.6 C445.2,167.95 442.9,168.65 440.1,168.65 C435.15,168.65 431.5,166.45 429.9,162.8 L434.55,160.1 C435.4,162.5 437.25,163.7 440.1,163.7 C442.95,163.7 444.35,162.75 444.35,160.9 C444.35,159.3 442.25,158.35 439.6,157.7 C435.85,156.75 430.8,155.25 430.9,150 C430.9,147.7 431.75,145.85 433.5,144.45 C435.25,143.05 437.45,142.35 440.05,142.35 C444.2,142.35 447.55,144.3 449.3,147.55 L444.75,150.1 C443.9,148.2 442.3,147.25 440.05,147.25 C438,147.25 436.4,148.15 436.4,149.9 Z M480.2,132.35 L480.2,137.55 C476.25,137.2 474.3,138.85 474.3,142.5 L474.3,143 L480.2,143 L480.2,148.2 L474.3,148.2 L474.3,168 L468.9,168 L468.9,148.2 L465.1,148.2 L465.1,143 L468.9,143 L468.9,142.5 C468.9,135.65 472.8,131.9 480.2,132.35 Z M495.15,168.65 C491.5,168.65 488.35,167.4 485.8,164.85 C483.25,162.3 481.95,159.2 481.95,155.5 C481.95,151.8 483.25,148.7 485.8,146.15 C488.35,143.6 491.5,142.35 495.15,142.35 C498.85,142.35 501.95,143.6 504.5,146.15 C507.05,148.7 508.35,151.8 508.35,155.5 C508.35,159.2 507.05,162.3 504.5,164.85 C501.95,167.4 498.85,168.65 495.15,168.65 Z M489.6,161.15 C491.1,162.65 492.95,163.4 495.15,163.4 C497.35,163.4 499.2,162.65 500.7,161.15 C502.2,159.65 502.95,157.75 502.95,155.5 C502.95,153.25 502.2,151.35 500.7,149.85 C499.2,148.35 497.35,147.6 495.15,147.6 C492.95,147.6 491.1,148.35 489.6,149.85 C488.1,151.35 487.35,153.25 487.35,155.5 C487.35,157.75 488.1,159.65 489.6,161.15 Z M518.65,143 L518.65,147.2 C520,144.1 522.6,142.55 526.35,142.55 L526.35,148.4 C524.3,148.25 522.5,148.75 520.95,149.9 C519.4,151 518.65,152.85 518.65,155.4 L518.65,168 L513.25,168 L513.25,143 L518.65,143 Z M137.1,207 L137.1,212.2 L130.9,212.2 L130.9,224.2 C130.9,227.4 133,227.35 137.1,227.15 L137.1,232 C128.85,233 125.5,230.75 125.5,224.2 L125.5,212.2 L120.9,212.2 L120.9,207 L125.5,207 L125.5,201.6 L130.9,200 L130.9,207 L137.1,207 Z M155.4,206.35 C161.15,206.35 165,210.25 165,216.65 L165,232 L159.6,232 L159.6,217.2 C159.6,213.45 157.45,211.4 154,211.4 C150.2,211.4 147.65,213.75 147.65,218.6 L147.65,232 L142.25,232 L142.25,197 L147.65,197 L147.65,210.2 C149.3,207.65 151.85,206.35 155.4,206.35 Z M194.95,221.8 L175.05,221.8 C175.85,225.6 178.9,227.7 183.05,227.7 C185.9,227.7 188.05,226.65 189.5,224.6 L193.95,227.2 C191.5,230.85 187.85,232.65 183,232.65 C178.95,232.65 175.65,231.4 173.15,228.95 C170.65,226.45 169.4,223.3 169.4,219.5 C169.4,215.75 170.65,212.65 173.1,210.15 C175.55,207.6 178.75,206.35 182.6,206.35 C186.25,206.35 189.25,207.65 191.6,210.2 C193.95,212.75 195.15,215.9 195.15,219.55 C195.15,220.1 195.1,220.85 194.95,221.8 Z M175,217.4 L189.7,217.4 C188.95,213.35 186.1,211.25 182.55,211.25 C178.55,211.25 175.75,213.6 175,217.4 Z M226.55,206.35 C230,206.35 232.9,207.6 235.35,210.15 C237.8,212.7 239,215.8 239,219.5 C239,223.15 237.8,226.3 235.35,228.85 C232.9,231.4 230,232.65 226.55,232.65 C222.75,232.65 219.85,231.25 217.8,228.4 L217.8,232 L212.4,232 L212.4,197 L217.8,197 L217.8,210.55 C219.85,207.75 222.75,206.35 226.55,206.35 Z M220.05,225.25 C221.55,226.75 223.45,227.5 225.7,227.5 C227.95,227.5 229.85,226.75 231.35,225.25 C232.85,223.7 233.6,221.8 233.6,219.5 C233.6,217.2 232.85,215.3 231.35,213.8 C229.85,212.25 227.95,211.5 225.7,211.5 C223.45,211.5 221.55,212.25 220.05,213.8 C218.55,215.3 217.8,217.2 217.8,219.5 C217.8,221.8 218.55,223.7 220.05,225.25 Z M268.05,221.8 L248.15,221.8 C248.95,225.6 252,227.7 256.15,227.7 C259,227.7 261.15,226.65 262.6,224.6 L267.05,227.2 C264.6,230.85 260.95,232.65 256.1,232.65 C252.05,232.65 248.75,231.4 246.25,228.95 C243.75,226.45 242.5,223.3 242.5,219.5 C242.5,215.75 243.75,212.65 246.2,210.15 C248.65,207.6 251.85,206.35 255.7,206.35 C259.35,206.35 262.35,207.65 264.7,210.2 C267.05,212.75 268.25,215.9 268.25,219.55 C268.25,220.1 268.2,220.85 268.05,221.8 Z M248.1,217.4 L262.8,217.4 C262.05,213.35 259.2,211.25 255.65,211.25 C251.65,211.25 248.85,213.6 248.1,217.4 Z M277.85,213.9 C277.85,215.55 279.95,216.4 282.55,217.15 C286.4,218 291.4,219.6 291.3,224.95 C291.3,227.35 290.35,229.25 288.5,230.6 C286.65,231.95 284.35,232.65 281.55,232.65 C276.6,232.65 272.95,230.45 271.35,226.8 L276,224.1 C276.85,226.5 278.7,227.7 281.55,227.7 C284.4,227.7 285.8,226.75 285.8,224.9 C285.8,223.3 283.7,222.35 281.05,221.7 C277.3,220.75 272.25,219.25 272.35,214 C272.35,211.7 273.2,209.85 274.95,208.45 C276.7,207.05 278.9,206.35 281.5,206.35 C285.65,206.35 289,208.3 290.75,211.55 L286.2,214.1 C285.35,212.2 283.75,211.25 281.5,211.25 C279.45,211.25 277.85,212.15 277.85,213.9 Z M310,207 L310,212.2 L303.8,212.2 L303.8,224.2 C303.8,227.4 305.9,227.35 310,227.15 L310,232 C301.75,233 298.4,230.75 298.4,224.2 L298.4,212.2 L293.8,212.2 L293.8,207 L298.4,207 L298.4,201.6 L303.8,200 L303.8,207 L310,207 Z M341.8,206.35 C345.25,206.35 348.15,207.6 350.6,210.15 C353.05,212.7 354.25,215.8 354.25,219.5 C354.25,223.15 353.05,226.3 350.6,228.85 C348.15,231.4 345.25,232.65 341.8,232.65 C338,232.65 335.1,231.25 333.05,228.4 L333.05,232 L327.65,232 L327.65,197 L333.05,197 L333.05,210.55 C335.1,207.75 338,206.35 341.8,206.35 Z M335.3,225.25 C336.8,226.75 338.7,227.5 340.95,227.5 C343.2,227.5 345.1,226.75 346.6,225.25 C348.1,223.7 348.85,221.8 348.85,219.5 C348.85,217.2 348.1,215.3 346.6,213.8 C345.1,212.25 343.2,211.5 340.95,211.5 C338.7,211.5 336.8,212.25 335.3,213.8 C333.8,215.3 333.05,217.2 333.05,219.5 C333.05,221.8 333.8,223.7 335.3,225.25 Z M364.55,207 L364.55,211.2 C365.9,208.1 368.5,206.55 372.25,206.55 L372.25,212.4 C370.2,212.25 368.4,212.75 366.85,213.9 C365.3,215 364.55,216.85 364.55,219.4 L364.55,232 L359.15,232 L359.15,207 L364.55,207 Z M396.05,210.55 L396.05,207 L401.45,207 L401.45,232 L396.05,232 L396.05,228.4 C394,231.25 391.1,232.65 387.3,232.65 C383.85,232.65 380.95,231.4 378.5,228.85 C376.05,226.3 374.85,223.15 374.85,219.5 C374.85,215.8 376.05,212.7 378.5,210.15 C380.95,207.6 383.85,206.35 387.3,206.35 C391.1,206.35 394,207.75 396.05,210.55 Z M382.5,225.25 C384,226.75 385.9,227.5 388.15,227.5 C390.4,227.5 392.3,226.75 393.8,225.25 C395.3,223.7 396.05,221.8 396.05,219.5 C396.05,217.2 395.3,215.3 393.8,213.8 C392.3,212.25 390.4,211.5 388.15,211.5 C385.9,211.5 384,212.25 382.5,213.8 C381,215.3 380.25,217.2 380.25,219.5 C380.25,221.8 381,223.7 382.5,225.25 Z M420.9,206.35 C426.65,206.35 430.5,210.25 430.5,216.65 L430.5,232 L425.1,232 L425.1,217.2 C425.1,213.45 422.95,211.4 419.5,211.4 C415.7,211.4 413.15,213.75 413.15,218.6 L413.15,232 L407.75,232 L407.75,207 L413.15,207 L413.15,210.2 C414.8,207.65 417.35,206.35 420.9,206.35 Z M456.1,210.55 L456.1,197 L461.5,197 L461.5,232 L456.1,232 L456.1,228.4 C454.05,231.25 451.15,232.65 447.35,232.65 C443.9,232.65 441,231.4 438.55,228.85 C436.1,226.3 434.9,223.15 434.9,219.5 C434.9,215.8 436.1,212.7 438.55,210.15 C441,207.6 443.9,206.35 447.35,206.35 C451.15,206.35 454.05,207.75 456.1,210.55 Z M442.55,225.25 C444.05,226.75 445.95,227.5 448.2,227.5 C450.45,227.5 452.35,226.75 453.85,225.25 C455.35,223.7 456.1,221.8 456.1,219.5 C456.1,217.2 455.35,215.3 453.85,213.8 C452.35,212.25 450.45,211.5 448.2,211.5 C445.95,211.5 444.05,212.25 442.55,213.8 C441.05,215.3 440.3,217.2 440.3,219.5 C440.3,221.8 441.05,223.7 442.55,225.25 Z M472.65,213.9 C472.65,215.55 474.75,216.4 477.35,217.15 C481.2,218 486.2,219.6 486.1,224.95 C486.1,227.35 485.15,229.25 483.3,230.6 C481.45,231.95 479.15,232.65 476.35,232.65 C471.4,232.65 467.75,230.45 466.15,226.8 L470.8,224.1 C471.65,226.5 473.5,227.7 476.35,227.7 C479.2,227.7 480.6,226.75 480.6,224.9 C480.6,223.3 478.5,222.35 475.85,221.7 C472.1,220.75 467.05,219.25 467.15,214 C467.15,211.7 468,209.85 469.75,208.45 C471.5,207.05 473.7,206.35 476.3,206.35 C480.45,206.35 483.8,208.3 485.55,211.55 L481,214.1 C480.15,212.2 478.55,211.25 476.3,211.25 C474.25,211.25 472.65,212.15 472.65,213.9 Z" id="Bestpracticesforthebestbrands"></path>
            </g>
        </g>
    </g>
</svg>