<?xml version="1.0" encoding="UTF-8"?>
<svg width="189px" height="37px" viewBox="0 0 189 37" version="1.1" xmlns="http://www.w3.org/2000/svg" xmlns:xlink="http://www.w3.org/1999/xlink">
    <!-- Generator: Sketch 56.3 (81716) - https://sketch.com -->
    <title>Contact</title>
    <desc>Created with Sketch.</desc>
    <g id="Homepage-desktop" stroke="none" stroke-width="1" fill="none" fill-rule="evenodd">
        <g id="Homepage/Desktop" transform="translate(-121.000000, -2315.000000)" fill="#111111" fill-rule="nonzero">
            <g id="Contact" transform="translate(120.000000, 2294.000000)">
                <path d="M20.05,57.65 C14.8,57.65 10.4,55.9 6.95,52.45 C3.5,48.95 1.75,44.65 1.75,39.5 C1.75,34.35 3.5,30.05 6.95,26.6 C10.4,23.1 14.8,21.35 20.05,21.35 C26.4,21.35 32.1,24.55 35.1,29.7 L30.1,32.6 C28.25,29.15 24.45,26.95 20.05,26.95 C16.3,26.95 13.3,28.15 10.95,30.5 C8.65,32.85 7.5,35.85 7.5,39.5 C7.5,43.15 8.65,46.15 10.95,48.5 C13.3,50.85 16.3,52.05 20.05,52.05 C24.45,52.05 28.3,49.85 30.1,46.4 L35.1,49.25 C33.65,51.8 31.55,53.85 28.85,55.4 C26.2,56.9 23.25,57.65 20.05,57.65 Z M51.55,57.65 C47.9,57.65 44.75,56.4 42.2,53.85 C39.65,51.3 38.35,48.2 38.35,44.5 C38.35,40.8 39.65,37.7 42.2,35.15 C44.75,32.6 47.9,31.35 51.55,31.35 C55.25,31.35 58.35,32.6 60.9,35.15 C63.45,37.7 64.75,40.8 64.75,44.5 C64.75,48.2 63.45,51.3 60.9,53.85 C58.35,56.4 55.25,57.65 51.55,57.65 Z M46,50.15 C47.5,51.65 49.35,52.4 51.55,52.4 C53.75,52.4 55.6,51.65 57.1,50.15 C58.6,48.65 59.35,46.75 59.35,44.5 C59.35,42.25 58.6,40.35 57.1,38.85 C55.6,37.35 53.75,36.6 51.55,36.6 C49.35,36.6 47.5,37.35 46,38.85 C44.5,40.35 43.75,42.25 43.75,44.5 C43.75,46.75 44.5,48.65 46,50.15 Z M82.8,31.35 C88.55,31.35 92.4,35.25 92.4,41.65 L92.4,57 L87,57 L87,42.2 C87,38.45 84.85,36.4 81.4,36.4 C77.6,36.4 75.05,38.75 75.05,43.6 L75.05,57 L69.65,57 L69.65,32 L75.05,32 L75.05,35.2 C76.7,32.65 79.25,31.35 82.8,31.35 Z M112.15,32 L112.15,37.2 L105.95,37.2 L105.95,49.2 C105.95,52.4 108.05,52.35 112.15,52.15 L112.15,57 C103.9,58 100.55,55.75 100.55,49.2 L100.55,37.2 L95.95,37.2 L95.95,32 L100.55,32 L100.55,26.6 L105.95,25 L105.95,32 L112.15,32 Z M137.1,35.55 L137.1,32 L142.5,32 L142.5,57 L137.1,57 L137.1,53.4 C135.05,56.25 132.15,57.65 128.35,57.65 C124.9,57.65 122,56.4 119.55,53.85 C117.1,51.3 115.9,48.15 115.9,44.5 C115.9,40.8 117.1,37.7 119.55,35.15 C122,32.6 124.9,31.35 128.35,31.35 C132.15,31.35 135.05,32.75 137.1,35.55 Z M123.55,50.25 C125.05,51.75 126.95,52.5 129.2,52.5 C131.45,52.5 133.35,51.75 134.85,50.25 C136.35,48.7 137.1,46.8 137.1,44.5 C137.1,42.2 136.35,40.3 134.85,38.8 C133.35,37.25 131.45,36.5 129.2,36.5 C126.95,36.5 125.05,37.25 123.55,38.8 C122.05,40.3 121.3,42.2 121.3,44.5 C121.3,46.8 122.05,48.7 123.55,50.25 Z M160.6,57.65 C156.85,57.65 153.7,56.4 151.15,53.85 C148.65,51.3 147.4,48.2 147.4,44.5 C147.4,40.75 148.65,37.65 151.15,35.15 C153.7,32.6 156.85,31.35 160.6,31.35 C165.45,31.35 169.75,33.85 171.75,37.8 L167.1,40.5 C165.95,38.1 163.55,36.65 160.55,36.65 C158.35,36.65 156.5,37.4 155,38.9 C153.55,40.4 152.8,42.25 152.8,44.5 C152.8,46.75 153.55,48.6 155,50.1 C156.5,51.6 158.35,52.35 160.55,52.35 C163.5,52.35 166,50.85 167.2,48.5 L171.85,51.15 C169.7,55.15 165.45,57.65 160.6,57.65 Z M189.85,32 L189.85,37.2 L183.65,37.2 L183.65,49.2 C183.65,52.4 185.75,52.35 189.85,52.15 L189.85,57 C181.6,58 178.25,55.75 178.25,49.2 L178.25,37.2 L173.65,37.2 L173.65,32 L178.25,32 L178.25,26.6 L183.65,25 L183.65,32 L189.85,32 Z"></path>
            </g>
        </g>
    </g>
</svg>