<?xml version="1.0" encoding="UTF-8"?>
<svg width="176px" height="81px" viewBox="0 0 176 81" version="1.1" xmlns="http://www.w3.org/2000/svg" xmlns:xlink="http://www.w3.org/1999/xlink">
    <!-- Generator: Sketch 56.3 (81716) - https://sketch.com -->
    <title>Domorewithless</title>
    <desc>Created with Sketch.</desc>
    <g id="Mobile" stroke="none" stroke-width="1" fill="none" fill-rule="evenodd">
        <g id="Homepage-/-Mobile" transform="translate(-24.000000, -120.000000)" fill="#111111" fill-rule="nonzero">
            <g id="Hero-section" transform="translate(24.000000, 106.000000)">
                <path d="M3.15,14.5 L15.525,14.5 C19.845,14.5 23.445,16.03 26.28,19.045 C29.16,22.06 30.6,25.795 30.6,30.25 C30.6,34.66 29.16,38.395 26.28,41.455 C23.445,44.47 19.845,46 15.525,46 L3.15,46 L3.15,14.5 Z M8.325,41.05 L15.525,41.05 C18.495,41.05 20.925,40.015 22.77,37.99 C24.66,35.965 25.605,33.355 25.605,30.25 C25.605,27.1 24.66,24.535 22.77,22.51 C20.925,20.485 18.495,19.45 15.525,19.45 L8.325,19.45 L8.325,41.05 Z M45.63,46.585 C42.345,46.585 39.51,45.46 37.215,43.165 C34.92,40.87 33.75,38.08 33.75,34.75 C33.75,31.42 34.92,28.63 37.215,26.335 C39.51,24.04 42.345,22.915 45.63,22.915 C48.96,22.915 51.75,24.04 54.045,26.335 C56.34,28.63 57.51,31.42 57.51,34.75 C57.51,38.08 56.34,40.87 54.045,43.165 C51.75,45.46 48.96,46.585 45.63,46.585 Z M40.635,39.835 C41.985,41.185 43.65,41.86 45.63,41.86 C47.61,41.86 49.275,41.185 50.625,39.835 C51.975,38.485 52.65,36.775 52.65,34.75 C52.65,32.725 51.975,31.015 50.625,29.665 C49.275,28.315 47.61,27.64 45.63,27.64 C43.65,27.64 41.985,28.315 40.635,29.665 C39.285,31.015 38.61,32.725 38.61,34.75 C38.61,36.775 39.285,38.485 40.635,39.835 Z M97.74,22.915 C102.825,22.915 106.245,26.47 106.245,32.05 L106.245,46 L101.385,46 L101.385,32.365 C101.385,29.26 99.72,27.46 97.02,27.46 C94.005,27.46 92.115,29.44 92.115,33.4 L92.115,46 L87.255,46 L87.255,32.365 C87.255,29.26 85.725,27.46 83.025,27.46 C80.1,27.46 78.03,29.485 78.03,33.4 L78.03,46 L73.17,46 L73.17,23.5 L78.03,23.5 L78.03,26.2 C79.47,23.995 81.63,22.915 84.465,22.915 C87.345,22.915 89.46,24.085 90.855,26.47 C92.34,24.085 94.635,22.915 97.74,22.915 Z M122.085,46.585 C118.8,46.585 115.965,45.46 113.67,43.165 C111.375,40.87 110.205,38.08 110.205,34.75 C110.205,31.42 111.375,28.63 113.67,26.335 C115.965,24.04 118.8,22.915 122.085,22.915 C125.415,22.915 128.205,24.04 130.5,26.335 C132.795,28.63 133.965,31.42 133.965,34.75 C133.965,38.08 132.795,40.87 130.5,43.165 C128.205,45.46 125.415,46.585 122.085,46.585 Z M117.09,39.835 C118.44,41.185 120.105,41.86 122.085,41.86 C124.065,41.86 125.73,41.185 127.08,39.835 C128.43,38.485 129.105,36.775 129.105,34.75 C129.105,32.725 128.43,31.015 127.08,29.665 C125.73,28.315 124.065,27.64 122.085,27.64 C120.105,27.64 118.44,28.315 117.09,29.665 C115.74,31.015 115.065,32.725 115.065,34.75 C115.065,36.775 115.74,38.485 117.09,39.835 Z M143.235,23.5 L143.235,27.28 C144.45,24.49 146.79,23.095 150.165,23.095 L150.165,28.36 C148.32,28.225 146.7,28.675 145.305,29.71 C143.91,30.7 143.235,32.365 143.235,34.66 L143.235,46 L138.375,46 L138.375,23.5 L143.235,23.5 Z M175.5,36.82 L157.59,36.82 C158.31,40.24 161.055,42.13 164.79,42.13 C167.355,42.13 169.29,41.185 170.595,39.34 L174.6,41.68 C172.395,44.965 169.11,46.585 164.745,46.585 C161.1,46.585 158.13,45.46 155.88,43.255 C153.63,41.005 152.505,38.17 152.505,34.75 C152.505,31.375 153.63,28.585 155.835,26.335 C158.04,24.04 160.92,22.915 164.385,22.915 C167.67,22.915 170.37,24.085 172.485,26.38 C174.6,28.675 175.68,31.51 175.68,34.795 C175.68,35.29 175.635,35.965 175.5,36.82 Z M157.545,32.86 L170.775,32.86 C170.1,29.215 167.535,27.325 164.34,27.325 C160.74,27.325 158.22,29.44 157.545,32.86 Z M24.345,87.025 L28.755,71.5 L33.885,71.5 L26.82,94 L22.05,94 L17.37,78.835 L12.645,94 L7.875,94 L0.81,71.5 L5.94,71.5 L10.305,87.025 L15.03,71.5 L19.665,71.5 L24.345,87.025 Z M42.075,67.225 C40.86,68.44 38.97,68.44 37.71,67.225 C36.495,65.965 36.495,64.075 37.71,62.86 C38.925,61.6 40.905,61.6 42.12,62.86 C43.335,64.075 43.335,65.965 42.075,67.225 Z M42.345,94 L37.485,94 L37.485,71.5 L42.345,71.5 L42.345,94 Z M60.525,71.5 L60.525,76.18 L54.945,76.18 L54.945,86.98 C54.945,89.86 56.835,89.815 60.525,89.635 L60.525,94 C53.1,94.9 50.085,92.875 50.085,86.98 L50.085,76.18 L45.945,76.18 L45.945,71.5 L50.085,71.5 L50.085,66.64 L54.945,65.2 L54.945,71.5 L60.525,71.5 Z M76.995,70.915 C82.17,70.915 85.635,74.425 85.635,80.185 L85.635,94 L80.775,94 L80.775,80.68 C80.775,77.305 78.84,75.46 75.735,75.46 C72.315,75.46 70.02,77.575 70.02,81.94 L70.02,94 L65.16,94 L65.16,62.5 L70.02,62.5 L70.02,74.38 C71.505,72.085 73.8,70.915 76.995,70.915 Z M106.965,94 L102.105,94 L102.105,61.15 L106.965,61.15 L106.965,94 Z M134.325,84.82 L116.415,84.82 C117.135,88.24 119.88,90.13 123.615,90.13 C126.18,90.13 128.115,89.185 129.42,87.34 L133.425,89.68 C131.22,92.965 127.935,94.585 123.57,94.585 C119.925,94.585 116.955,93.46 114.705,91.255 C112.455,89.005 111.33,86.17 111.33,82.75 C111.33,79.375 112.455,76.585 114.66,74.335 C116.865,72.04 119.745,70.915 123.21,70.915 C126.495,70.915 129.195,72.085 131.31,74.38 C133.425,76.675 134.505,79.51 134.505,82.795 C134.505,83.29 134.46,83.965 134.325,84.82 Z M116.37,80.86 L129.6,80.86 C128.925,77.215 126.36,75.325 123.165,75.325 C119.565,75.325 117.045,77.44 116.37,80.86 Z M143.145,77.71 C143.145,79.195 145.035,79.96 147.375,80.635 C150.84,81.4 155.34,82.84 155.25,87.655 C155.25,89.815 154.395,91.525 152.73,92.74 C151.065,93.955 148.995,94.585 146.475,94.585 C142.02,94.585 138.735,92.605 137.295,89.32 L141.48,86.89 C142.245,89.05 143.91,90.13 146.475,90.13 C149.04,90.13 150.3,89.275 150.3,87.61 C150.3,86.17 148.41,85.315 146.025,84.73 C142.65,83.875 138.105,82.525 138.195,77.8 C138.195,75.73 138.96,74.065 140.535,72.805 C142.11,71.545 144.09,70.915 146.43,70.915 C150.165,70.915 153.18,72.67 154.755,75.595 L150.66,77.89 C149.895,76.18 148.455,75.325 146.43,75.325 C144.585,75.325 143.145,76.135 143.145,77.71 Z M163.89,77.71 C163.89,79.195 165.78,79.96 168.12,80.635 C171.585,81.4 176.085,82.84 175.995,87.655 C175.995,89.815 175.14,91.525 173.475,92.74 C171.81,93.955 169.74,94.585 167.22,94.585 C162.765,94.585 159.48,92.605 158.04,89.32 L162.225,86.89 C162.99,89.05 164.655,90.13 167.22,90.13 C169.785,90.13 171.045,89.275 171.045,87.61 C171.045,86.17 169.155,85.315 166.77,84.73 C163.395,83.875 158.85,82.525 158.94,77.8 C158.94,75.73 159.705,74.065 161.28,72.805 C162.855,71.545 164.835,70.915 167.175,70.915 C170.91,70.915 173.925,72.67 175.5,75.595 L171.405,77.89 C170.64,76.18 169.2,75.325 167.175,75.325 C165.33,75.325 163.89,76.135 163.89,77.71 Z" id="Domorewithless"></path>
            </g>
        </g>
    </g>
</svg>