<?xml version="1.0" encoding="UTF-8"?>
<svg width="402px" height="38px" viewBox="0 0 402 38" version="1.1" xmlns="http://www.w3.org/2000/svg" xmlns:xlink="http://www.w3.org/1999/xlink">
    <!-- Generator: Sketch 56.3 (81716) - https://sketch.com -->
    <title>Domorewithless</title>
    <desc>Created with Sketch.</desc>
    <g id="Homepage-desktop" stroke="none" stroke-width="1" fill="none" fill-rule="evenodd">
        <g id="Homepage/Desktop" transform="translate(-124.000000, -243.000000)" fill="#111111" fill-rule="nonzero">
            <g id="Hero-section" transform="translate(120.000000, 176.000000)">
                <path d="M4.5,69 L18.25,69 C23.05,69 27.05,70.7 30.2,74.05 C33.4,77.4 35,81.55 35,86.5 C35,91.4 33.4,95.55 30.2,98.95 C27.05,102.3 23.05,104 18.25,104 L4.5,104 L4.5,69 Z M10.25,98.5 L18.25,98.5 C21.55,98.5 24.25,97.35 26.3,95.1 C28.4,92.85 29.45,89.95 29.45,86.5 C29.45,83 28.4,80.15 26.3,77.9 C24.25,75.65 21.55,74.5 18.25,74.5 L10.25,74.5 L10.25,98.5 Z M51.7,104.65 C48.05,104.65 44.9,103.4 42.35,100.85 C39.8,98.3 38.5,95.2 38.5,91.5 C38.5,87.8 39.8,84.7 42.35,82.15 C44.9,79.6 48.05,78.35 51.7,78.35 C55.4,78.35 58.5,79.6 61.05,82.15 C63.6,84.7 64.9,87.8 64.9,91.5 C64.9,95.2 63.6,98.3 61.05,100.85 C58.5,103.4 55.4,104.65 51.7,104.65 Z M46.15,97.15 C47.65,98.65 49.5,99.4 51.7,99.4 C53.9,99.4 55.75,98.65 57.25,97.15 C58.75,95.65 59.5,93.75 59.5,91.5 C59.5,89.25 58.75,87.35 57.25,85.85 C55.75,84.35 53.9,83.6 51.7,83.6 C49.5,83.6 47.65,84.35 46.15,85.85 C44.65,87.35 43.9,89.25 43.9,91.5 C43.9,93.75 44.65,95.65 46.15,97.15 Z M109.6,78.35 C115.25,78.35 119.05,82.3 119.05,88.5 L119.05,104 L113.65,104 L113.65,88.85 C113.65,85.4 111.8,83.4 108.8,83.4 C105.45,83.4 103.35,85.6 103.35,90 L103.35,104 L97.95,104 L97.95,88.85 C97.95,85.4 96.25,83.4 93.25,83.4 C90,83.4 87.7,85.65 87.7,90 L87.7,104 L82.3,104 L82.3,79 L87.7,79 L87.7,82 C89.3,79.55 91.7,78.35 94.85,78.35 C98.05,78.35 100.4,79.65 101.95,82.3 C103.6,79.65 106.15,78.35 109.6,78.35 Z M136.65,104.65 C133,104.65 129.85,103.4 127.3,100.85 C124.75,98.3 123.45,95.2 123.45,91.5 C123.45,87.8 124.75,84.7 127.3,82.15 C129.85,79.6 133,78.35 136.65,78.35 C140.35,78.35 143.45,79.6 146,82.15 C148.55,84.7 149.85,87.8 149.85,91.5 C149.85,95.2 148.55,98.3 146,100.85 C143.45,103.4 140.35,104.65 136.65,104.65 Z M131.1,97.15 C132.6,98.65 134.45,99.4 136.65,99.4 C138.85,99.4 140.7,98.65 142.2,97.15 C143.7,95.65 144.45,93.75 144.45,91.5 C144.45,89.25 143.7,87.35 142.2,85.85 C140.7,84.35 138.85,83.6 136.65,83.6 C134.45,83.6 132.6,84.35 131.1,85.85 C129.6,87.35 128.85,89.25 128.85,91.5 C128.85,93.75 129.6,95.65 131.1,97.15 Z M160.15,79 L160.15,83.2 C161.5,80.1 164.1,78.55 167.85,78.55 L167.85,84.4 C165.8,84.25 164,84.75 162.45,85.9 C160.9,87 160.15,88.85 160.15,91.4 L160.15,104 L154.75,104 L154.75,79 L160.15,79 Z M196,93.8 L176.1,93.8 C176.9,97.6 179.95,99.7 184.1,99.7 C186.95,99.7 189.1,98.65 190.55,96.6 L195,99.2 C192.55,102.85 188.9,104.65 184.05,104.65 C180,104.65 176.7,103.4 174.2,100.95 C171.7,98.45 170.45,95.3 170.45,91.5 C170.45,87.75 171.7,84.65 174.15,82.15 C176.6,79.6 179.8,78.35 183.65,78.35 C187.3,78.35 190.3,79.65 192.65,82.2 C195,84.75 196.2,87.9 196.2,91.55 C196.2,92.1 196.15,92.85 196,93.8 Z M176.05,89.4 L190.75,89.4 C190,85.35 187.15,83.25 183.6,83.25 C179.6,83.25 176.8,85.6 176.05,89.4 Z M237.35,96.25 L242.25,79 L247.95,79 L240.1,104 L234.8,104 L229.6,87.15 L224.35,104 L219.05,104 L211.2,79 L216.9,79 L221.75,96.25 L227,79 L232.15,79 L237.35,96.25 Z M257.05,74.25 C255.7,75.6 253.6,75.6 252.2,74.25 C250.85,72.85 250.85,70.75 252.2,69.4 C253.55,68 255.75,68 257.1,69.4 C258.45,70.75 258.45,72.85 257.05,74.25 Z M257.35,104 L251.95,104 L251.95,79 L257.35,79 L257.35,104 Z M277.55,79 L277.55,84.2 L271.35,84.2 L271.35,96.2 C271.35,99.4 273.45,99.35 277.55,99.15 L277.55,104 C269.3,105 265.95,102.75 265.95,96.2 L265.95,84.2 L261.35,84.2 L261.35,79 L265.95,79 L265.95,73.6 L271.35,72 L271.35,79 L277.55,79 Z M295.85,78.35 C301.6,78.35 305.45,82.25 305.45,88.65 L305.45,104 L300.05,104 L300.05,89.2 C300.05,85.45 297.9,83.4 294.45,83.4 C290.65,83.4 288.1,85.75 288.1,90.6 L288.1,104 L282.7,104 L282.7,69 L288.1,69 L288.1,82.2 C289.75,79.65 292.3,78.35 295.85,78.35 Z M329.15,104 L323.75,104 L323.75,67.5 L329.15,67.5 L329.15,104 Z M359.55,93.8 L339.65,93.8 C340.45,97.6 343.5,99.7 347.65,99.7 C350.5,99.7 352.65,98.65 354.1,96.6 L358.55,99.2 C356.1,102.85 352.45,104.65 347.6,104.65 C343.55,104.65 340.25,103.4 337.75,100.95 C335.25,98.45 334,95.3 334,91.5 C334,87.75 335.25,84.65 337.7,82.15 C340.15,79.6 343.35,78.35 347.2,78.35 C350.85,78.35 353.85,79.65 356.2,82.2 C358.55,84.75 359.75,87.9 359.75,91.55 C359.75,92.1 359.7,92.85 359.55,93.8 Z M339.6,89.4 L354.3,89.4 C353.55,85.35 350.7,83.25 347.15,83.25 C343.15,83.25 340.35,85.6 339.6,89.4 Z M369.35,85.9 C369.35,87.55 371.45,88.4 374.05,89.15 C377.9,90 382.9,91.6 382.8,96.95 C382.8,99.35 381.85,101.25 380,102.6 C378.15,103.95 375.85,104.65 373.05,104.65 C368.1,104.65 364.45,102.45 362.85,98.8 L367.5,96.1 C368.35,98.5 370.2,99.7 373.05,99.7 C375.9,99.7 377.3,98.75 377.3,96.9 C377.3,95.3 375.2,94.35 372.55,93.7 C368.8,92.75 363.75,91.25 363.85,86 C363.85,83.7 364.7,81.85 366.45,80.45 C368.2,79.05 370.4,78.35 373,78.35 C377.15,78.35 380.5,80.3 382.25,83.55 L377.7,86.1 C376.85,84.2 375.25,83.25 373,83.25 C370.95,83.25 369.35,84.15 369.35,85.9 Z M392.4,85.9 C392.4,87.55 394.5,88.4 397.1,89.15 C400.95,90 405.95,91.6 405.85,96.95 C405.85,99.35 404.9,101.25 403.05,102.6 C401.2,103.95 398.9,104.65 396.1,104.65 C391.15,104.65 387.5,102.45 385.9,98.8 L390.55,96.1 C391.4,98.5 393.25,99.7 396.1,99.7 C398.95,99.7 400.35,98.75 400.35,96.9 C400.35,95.3 398.25,94.35 395.6,93.7 C391.85,92.75 386.8,91.25 386.9,86 C386.9,83.7 387.75,81.85 389.5,80.45 C391.25,79.05 393.45,78.35 396.05,78.35 C400.2,78.35 403.55,80.3 405.3,83.55 L400.75,86.1 C399.9,84.2 398.3,83.25 396.05,83.25 C394,83.25 392.4,84.15 392.4,85.9 Z" id="Domorewithless"></path>
            </g>
        </g>
    </g>
</svg>