<?xml version="1.0" encoding="UTF-8"?>
<svg width="90px" height="17px" viewBox="0 0 90 17" version="1.1" xmlns="http://www.w3.org/2000/svg" xmlns:xlink="http://www.w3.org/1999/xlink">
    <!-- Generator: Sketch 56.3 (81716) - https://sketch.com -->
    <title>Instagram</title>
    <desc>Created with Sketch.</desc>
    <g id="Homepage-desktop" stroke="none" stroke-width="1" fill="none" fill-rule="evenodd">
        <g id="Homepage/Desktop" transform="translate(-633.000000, -3240.000000)" fill="#FFFFFF" fill-rule="nonzero">
            <g id="Footer" transform="translate(0.000000, 3208.000000)">
                <path d="M633.246857,45 L633.246857,32.4 L635.316857,32.4 L635.316857,45 L633.246857,45 Z M643.302,35.766 C645.372,35.766 646.758,37.17 646.758,39.474 L646.758,45 L644.814,45 L644.814,39.672 C644.814,38.322 644.04,37.584 642.798,37.584 C641.43,37.584 640.512,38.43 640.512,40.176 L640.512,45 L638.568,45 L638.568,36 L640.512,36 L640.512,37.152 C641.106,36.234 642.024,35.766 643.302,35.766 Z M651.449143,38.484 C651.449143,39.078 652.205143,39.384 653.141143,39.654 C654.527143,39.96 656.327143,40.536 656.291143,42.462 C656.291143,43.326 655.949143,44.01 655.283143,44.496 C654.617143,44.982 653.789143,45.234 652.781143,45.234 C650.999143,45.234 649.685143,44.442 649.109143,43.128 L650.783143,42.156 C651.089143,43.02 651.755143,43.452 652.781143,43.452 C653.807143,43.452 654.311143,43.11 654.311143,42.444 C654.311143,41.868 653.555143,41.526 652.601143,41.292 C651.251143,40.95 649.433143,40.41 649.469143,38.52 C649.469143,37.692 649.775143,37.026 650.405143,36.522 C651.035143,36.018 651.827143,35.766 652.763143,35.766 C654.257143,35.766 655.463143,36.468 656.093143,37.638 L654.455143,38.556 C654.149143,37.872 653.573143,37.53 652.763143,37.53 C652.025143,37.53 651.449143,37.854 651.449143,38.484 Z M663.520286,36 L663.520286,37.872 L661.288286,37.872 L661.288286,42.192 C661.288286,43.344 662.044286,43.326 663.520286,43.254 L663.520286,45 C660.550286,45.36 659.344286,44.55 659.344286,42.192 L659.344286,37.872 L657.688286,37.872 L657.688286,36 L659.344286,36 L659.344286,34.056 L661.288286,33.48 L661.288286,36 L663.520286,36 Z M672.909429,37.278 L672.909429,36 L674.853429,36 L674.853429,45 L672.909429,45 L672.909429,43.704 C672.171429,44.73 671.127429,45.234 669.759429,45.234 C668.517429,45.234 667.473429,44.784 666.591429,43.866 C665.709429,42.948 665.277429,41.814 665.277429,40.5 C665.277429,39.168 665.709429,38.052 666.591429,37.134 C667.473429,36.216 668.517429,35.766 669.759429,35.766 C671.127429,35.766 672.171429,36.27 672.909429,37.278 Z M668.031429,42.57 C668.571429,43.11 669.255429,43.38 670.065429,43.38 C670.875429,43.38 671.559429,43.11 672.099429,42.57 C672.639429,42.012 672.909429,41.328 672.909429,40.5 C672.909429,39.672 672.639429,38.988 672.099429,38.448 C671.559429,37.89 670.875429,37.62 670.065429,37.62 C669.255429,37.62 668.571429,37.89 668.031429,38.448 C667.491429,38.988 667.221429,39.672 667.221429,40.5 C667.221429,41.328 667.491429,42.012 668.031429,42.57 Z M685.142571,37.332 L685.142571,36 L687.050571,36 L687.050571,44.586 C687.050571,45.954 686.600571,46.998 685.700571,47.736 C684.800571,48.474 683.702571,48.834 682.424571,48.834 C680.354571,48.834 678.932571,48.114 678.158571,46.656 L679.832571,45.684 C680.300571,46.602 681.182571,47.07 682.460571,47.07 C684.134571,47.07 685.142571,46.152 685.142571,44.586 L685.142571,43.488 C684.404571,44.532 683.360571,45.054 682.010571,45.054 C680.732571,45.054 679.670571,44.604 678.788571,43.704 C677.906571,42.786 677.474571,41.688 677.474571,40.41 C677.474571,39.132 677.906571,38.034 678.788571,37.134 C679.670571,36.216 680.732571,35.766 682.010571,35.766 C683.360571,35.766 684.404571,36.288 685.142571,37.332 Z M680.228571,42.426 C680.786571,42.966 681.470571,43.236 682.280571,43.236 C683.090571,43.236 683.774571,42.966 684.314571,42.426 C684.872571,41.886 685.142571,41.22 685.142571,40.41 C685.142571,39.6 684.872571,38.934 684.314571,38.394 C683.774571,37.854 683.090571,37.584 682.280571,37.584 C681.470571,37.584 680.786571,37.854 680.228571,38.394 C679.688571,38.934 679.418571,39.6 679.418571,40.41 C679.418571,41.22 679.688571,41.886 680.228571,42.426 Z M692.119714,36 L692.119714,37.512 C692.605714,36.396 693.541714,35.838 694.891714,35.838 L694.891714,37.944 C694.153714,37.89 693.505714,38.07 692.947714,38.484 C692.389714,38.88 692.119714,39.546 692.119714,40.464 L692.119714,45 L690.175714,45 L690.175714,36 L692.119714,36 Z M703.902857,37.278 L703.902857,36 L705.846857,36 L705.846857,45 L703.902857,45 L703.902857,43.704 C703.164857,44.73 702.120857,45.234 700.752857,45.234 C699.510857,45.234 698.466857,44.784 697.584857,43.866 C696.702857,42.948 696.270857,41.814 696.270857,40.5 C696.270857,39.168 696.702857,38.052 697.584857,37.134 C698.466857,36.216 699.510857,35.766 700.752857,35.766 C702.120857,35.766 703.164857,36.27 703.902857,37.278 Z M699.024857,42.57 C699.564857,43.11 700.248857,43.38 701.058857,43.38 C701.868857,43.38 702.552857,43.11 703.092857,42.57 C703.632857,42.012 703.902857,41.328 703.902857,40.5 C703.902857,39.672 703.632857,38.988 703.092857,38.448 C702.552857,37.89 701.868857,37.62 701.058857,37.62 C700.248857,37.62 699.564857,37.89 699.024857,38.448 C698.484857,38.988 698.214857,39.672 698.214857,40.5 C698.214857,41.328 698.484857,42.012 699.024857,42.57 Z M718.8,35.766 C720.834,35.766 722.202,37.188 722.202,39.42 L722.202,45 L720.258,45 L720.258,39.546 C720.258,38.304 719.592,37.584 718.512,37.584 C717.306,37.584 716.55,38.376 716.55,39.96 L716.55,45 L714.606,45 L714.606,39.546 C714.606,38.304 713.994,37.584 712.914,37.584 C711.744,37.584 710.916,38.394 710.916,39.96 L710.916,45 L708.972,45 L708.972,36 L710.916,36 L710.916,37.08 C711.492,36.198 712.356,35.766 713.49,35.766 C714.642,35.766 715.488,36.234 716.046,37.188 C716.64,36.234 717.558,35.766 718.8,35.766 Z" id="Instagram"></path>
            </g>
        </g>
    </g>
</svg>