<?xml version="1.0" encoding="UTF-8"?>
<svg width="89px" height="17px" viewBox="0 0 89 17" version="1.1" xmlns="http://www.w3.org/2000/svg" xmlns:xlink="http://www.w3.org/1999/xlink">
    <!-- Generator: Sketch 56.3 (81716) - https://sketch.com -->
    <title>Instagram</title>
    <desc>Created with Sketch.</desc>
    <g id="Homepage-desktop" stroke="none" stroke-width="1" fill="none" fill-rule="evenodd">
        <g id="Homepage/Desktop" transform="translate(-633.000000, -3256.000000)" fill="#FDF3D7" fill-rule="nonzero">
            <g id="Footer" transform="translate(0.000000, 3208.000000)">
                <path d="M633,60.6 L633,48 L635.07,48 L635.07,60.6 L633,60.6 Z M643.055143,51.366 C645.125143,51.366 646.511143,52.77 646.511143,55.074 L646.511143,60.6 L644.567143,60.6 L644.567143,55.272 C644.567143,53.922 643.793143,53.184 642.551143,53.184 C641.183143,53.184 640.265143,54.03 640.265143,55.776 L640.265143,60.6 L638.321143,60.6 L638.321143,51.6 L640.265143,51.6 L640.265143,52.752 C640.859143,51.834 641.777143,51.366 643.055143,51.366 Z M651.202286,54.084 C651.202286,54.678 651.958286,54.984 652.894286,55.254 C654.280286,55.56 656.080286,56.136 656.044286,58.062 C656.044286,58.926 655.702286,59.61 655.036286,60.096 C654.370286,60.582 653.542286,60.834 652.534286,60.834 C650.752286,60.834 649.438286,60.042 648.862286,58.728 L650.536286,57.756 C650.842286,58.62 651.508286,59.052 652.534286,59.052 C653.560286,59.052 654.064286,58.71 654.064286,58.044 C654.064286,57.468 653.308286,57.126 652.354286,56.892 C651.004286,56.55 649.186286,56.01 649.222286,54.12 C649.222286,53.292 649.528286,52.626 650.158286,52.122 C650.788286,51.618 651.580286,51.366 652.516286,51.366 C654.010286,51.366 655.216286,52.068 655.846286,53.238 L654.208286,54.156 C653.902286,53.472 653.326286,53.13 652.516286,53.13 C651.778286,53.13 651.202286,53.454 651.202286,54.084 Z M663.273429,51.6 L663.273429,53.472 L661.041429,53.472 L661.041429,57.792 C661.041429,58.944 661.797429,58.926 663.273429,58.854 L663.273429,60.6 C660.303429,60.96 659.097429,60.15 659.097429,57.792 L659.097429,53.472 L657.441429,53.472 L657.441429,51.6 L659.097429,51.6 L659.097429,49.656 L661.041429,49.08 L661.041429,51.6 L663.273429,51.6 Z M672.662571,52.878 L672.662571,51.6 L674.606571,51.6 L674.606571,60.6 L672.662571,60.6 L672.662571,59.304 C671.924571,60.33 670.880571,60.834 669.512571,60.834 C668.270571,60.834 667.226571,60.384 666.344571,59.466 C665.462571,58.548 665.030571,57.414 665.030571,56.1 C665.030571,54.768 665.462571,53.652 666.344571,52.734 C667.226571,51.816 668.270571,51.366 669.512571,51.366 C670.880571,51.366 671.924571,51.87 672.662571,52.878 Z M667.784571,58.17 C668.324571,58.71 669.008571,58.98 669.818571,58.98 C670.628571,58.98 671.312571,58.71 671.852571,58.17 C672.392571,57.612 672.662571,56.928 672.662571,56.1 C672.662571,55.272 672.392571,54.588 671.852571,54.048 C671.312571,53.49 670.628571,53.22 669.818571,53.22 C669.008571,53.22 668.324571,53.49 667.784571,54.048 C667.244571,54.588 666.974571,55.272 666.974571,56.1 C666.974571,56.928 667.244571,57.612 667.784571,58.17 Z M684.895714,52.932 L684.895714,51.6 L686.803714,51.6 L686.803714,60.186 C686.803714,61.554 686.353714,62.598 685.453714,63.336 C684.553714,64.074 683.455714,64.434 682.177714,64.434 C680.107714,64.434 678.685714,63.714 677.911714,62.256 L679.585714,61.284 C680.053714,62.202 680.935714,62.67 682.213714,62.67 C683.887714,62.67 684.895714,61.752 684.895714,60.186 L684.895714,59.088 C684.157714,60.132 683.113714,60.654 681.763714,60.654 C680.485714,60.654 679.423714,60.204 678.541714,59.304 C677.659714,58.386 677.227714,57.288 677.227714,56.01 C677.227714,54.732 677.659714,53.634 678.541714,52.734 C679.423714,51.816 680.485714,51.366 681.763714,51.366 C683.113714,51.366 684.157714,51.888 684.895714,52.932 Z M679.981714,58.026 C680.539714,58.566 681.223714,58.836 682.033714,58.836 C682.843714,58.836 683.527714,58.566 684.067714,58.026 C684.625714,57.486 684.895714,56.82 684.895714,56.01 C684.895714,55.2 684.625714,54.534 684.067714,53.994 C683.527714,53.454 682.843714,53.184 682.033714,53.184 C681.223714,53.184 680.539714,53.454 679.981714,53.994 C679.441714,54.534 679.171714,55.2 679.171714,56.01 C679.171714,56.82 679.441714,57.486 679.981714,58.026 Z M691.872857,51.6 L691.872857,53.112 C692.358857,51.996 693.294857,51.438 694.644857,51.438 L694.644857,53.544 C693.906857,53.49 693.258857,53.67 692.700857,54.084 C692.142857,54.48 691.872857,55.146 691.872857,56.064 L691.872857,60.6 L689.928857,60.6 L689.928857,51.6 L691.872857,51.6 Z M703.656,52.878 L703.656,51.6 L705.6,51.6 L705.6,60.6 L703.656,60.6 L703.656,59.304 C702.918,60.33 701.874,60.834 700.506,60.834 C699.264,60.834 698.22,60.384 697.338,59.466 C696.456,58.548 696.024,57.414 696.024,56.1 C696.024,54.768 696.456,53.652 697.338,52.734 C698.22,51.816 699.264,51.366 700.506,51.366 C701.874,51.366 702.918,51.87 703.656,52.878 Z M698.778,58.17 C699.318,58.71 700.002,58.98 700.812,58.98 C701.622,58.98 702.306,58.71 702.846,58.17 C703.386,57.612 703.656,56.928 703.656,56.1 C703.656,55.272 703.386,54.588 702.846,54.048 C702.306,53.49 701.622,53.22 700.812,53.22 C700.002,53.22 699.318,53.49 698.778,54.048 C698.238,54.588 697.968,55.272 697.968,56.1 C697.968,56.928 698.238,57.612 698.778,58.17 Z M718.553143,51.366 C720.587143,51.366 721.955143,52.788 721.955143,55.02 L721.955143,60.6 L720.011143,60.6 L720.011143,55.146 C720.011143,53.904 719.345143,53.184 718.265143,53.184 C717.059143,53.184 716.303143,53.976 716.303143,55.56 L716.303143,60.6 L714.359143,60.6 L714.359143,55.146 C714.359143,53.904 713.747143,53.184 712.667143,53.184 C711.497143,53.184 710.669143,53.994 710.669143,55.56 L710.669143,60.6 L708.725143,60.6 L708.725143,51.6 L710.669143,51.6 L710.669143,52.68 C711.245143,51.798 712.109143,51.366 713.243143,51.366 C714.395143,51.366 715.241143,51.834 715.799143,52.788 C716.393143,51.834 717.311143,51.366 718.553143,51.366 Z" id="Instagram"></path>
            </g>
        </g>
    </g>
</svg>