<?xml version="1.0" encoding="UTF-8"?>
<svg width="61px" height="14px" viewBox="0 0 61 14" version="1.1" xmlns="http://www.w3.org/2000/svg" xmlns:xlink="http://www.w3.org/1999/xlink">
    <!-- Generator: Sketch 56.3 (81716) - https://sketch.com -->
    <title>Twitter</title>
    <desc>Created with Sketch.</desc>
    <g id="Homepage-desktop" stroke="none" stroke-width="1" fill="none" fill-rule="evenodd">
        <g id="Homepage/Desktop" transform="translate(-747.000000, -3240.000000)" fill="#FFFFFF" fill-rule="nonzero">
            <g id="Footer" transform="translate(0.000000, 3208.000000)">
                <path d="M747.118,32.4 L756.298,32.4 L756.298,34.38 L752.752,34.38 L752.752,45 L750.682,45 L750.682,34.38 L747.118,34.38 L747.118,32.4 Z M766.263143,42.21 L768.027143,36 L770.079143,36 L767.253143,45 L765.345143,45 L763.473143,38.934 L761.583143,45 L759.675143,45 L756.849143,36 L758.901143,36 L760.647143,42.21 L762.537143,36 L764.391143,36 L766.263143,42.21 Z M774.212286,34.29 C773.726286,34.776 772.970286,34.776 772.466286,34.29 C771.980286,33.786 771.980286,33.03 772.466286,32.544 C772.952286,32.04 773.744286,32.04 774.230286,32.544 C774.716286,33.03 774.716286,33.786 774.212286,34.29 Z M774.320286,45 L772.376286,45 L772.376286,36 L774.320286,36 L774.320286,45 Z M782.449429,36 L782.449429,37.872 L780.217429,37.872 L780.217429,42.192 C780.217429,43.344 780.973429,43.326 782.449429,43.254 L782.449429,45 C779.479429,45.36 778.273429,44.55 778.273429,42.192 L778.273429,37.872 L776.617429,37.872 L776.617429,36 L778.273429,36 L778.273429,34.056 L780.217429,33.48 L780.217429,36 L782.449429,36 Z M789.678571,36 L789.678571,37.872 L787.446571,37.872 L787.446571,42.192 C787.446571,43.344 788.202571,43.326 789.678571,43.254 L789.678571,45 C786.708571,45.36 785.502571,44.55 785.502571,42.192 L785.502571,37.872 L783.846571,37.872 L783.846571,36 L785.502571,36 L785.502571,34.056 L787.446571,33.48 L787.446571,36 L789.678571,36 Z M800.633714,41.328 L793.469714,41.328 C793.757714,42.696 794.855714,43.452 796.349714,43.452 C797.375714,43.452 798.149714,43.074 798.671714,42.336 L800.273714,43.272 C799.391714,44.586 798.077714,45.234 796.331714,45.234 C794.873714,45.234 793.685714,44.784 792.785714,43.902 C791.885714,43.002 791.435714,41.868 791.435714,40.5 C791.435714,39.15 791.885714,38.034 792.767714,37.134 C793.649714,36.216 794.801714,35.766 796.187714,35.766 C797.501714,35.766 798.581714,36.234 799.427714,37.152 C800.273714,38.07 800.705714,39.204 800.705714,40.518 C800.705714,40.716 800.687714,40.986 800.633714,41.328 Z M793.451714,39.744 L798.743714,39.744 C798.473714,38.286 797.447714,37.53 796.169714,37.53 C794.729714,37.53 793.721714,38.376 793.451714,39.744 Z M805.216857,36 L805.216857,37.512 C805.702857,36.396 806.638857,35.838 807.988857,35.838 L807.988857,37.944 C807.250857,37.89 806.602857,38.07 806.044857,38.484 C805.486857,38.88 805.216857,39.546 805.216857,40.464 L805.216857,45 L803.272857,45 L803.272857,36 L805.216857,36 Z" id="Twitter"></path>
            </g>
        </g>
    </g>
</svg>