<?xml version="1.0" encoding="UTF-8"?>
<svg width="61px" height="14px" viewBox="0 0 61 14" version="1.1" xmlns="http://www.w3.org/2000/svg" xmlns:xlink="http://www.w3.org/1999/xlink">
    <!-- Generator: Sketch 56.3 (81716) - https://sketch.com -->
    <title>Twitter</title>
    <desc>Created with Sketch.</desc>
    <g id="Homepage-desktop" stroke="none" stroke-width="1" fill="none" fill-rule="evenodd">
        <g id="Homepage/Desktop" transform="translate(-746.000000, -3256.000000)" fill="#FDF3D7" fill-rule="nonzero">
            <g id="Footer" transform="translate(0.000000, 3208.000000)">
                <path d="M746,48.234 L755.18,48.234 L755.18,50.214 L751.634,50.214 L751.634,60.834 L749.564,60.834 L749.564,50.214 L746,50.214 L746,48.234 Z M765.145143,58.044 L766.909143,51.834 L768.961143,51.834 L766.135143,60.834 L764.227143,60.834 L762.355143,54.768 L760.465143,60.834 L758.557143,60.834 L755.731143,51.834 L757.783143,51.834 L759.529143,58.044 L761.419143,51.834 L763.273143,51.834 L765.145143,58.044 Z M773.094286,50.124 C772.608286,50.61 771.852286,50.61 771.348286,50.124 C770.862286,49.62 770.862286,48.864 771.348286,48.378 C771.834286,47.874 772.626286,47.874 773.112286,48.378 C773.598286,48.864 773.598286,49.62 773.094286,50.124 Z M773.202286,60.834 L771.258286,60.834 L771.258286,51.834 L773.202286,51.834 L773.202286,60.834 Z M781.331429,51.834 L781.331429,53.706 L779.099429,53.706 L779.099429,58.026 C779.099429,59.178 779.855429,59.16 781.331429,59.088 L781.331429,60.834 C778.361429,61.194 777.155429,60.384 777.155429,58.026 L777.155429,53.706 L775.499429,53.706 L775.499429,51.834 L777.155429,51.834 L777.155429,49.89 L779.099429,49.314 L779.099429,51.834 L781.331429,51.834 Z M788.560571,51.834 L788.560571,53.706 L786.328571,53.706 L786.328571,58.026 C786.328571,59.178 787.084571,59.16 788.560571,59.088 L788.560571,60.834 C785.590571,61.194 784.384571,60.384 784.384571,58.026 L784.384571,53.706 L782.728571,53.706 L782.728571,51.834 L784.384571,51.834 L784.384571,49.89 L786.328571,49.314 L786.328571,51.834 L788.560571,51.834 Z M799.515714,57.162 L792.351714,57.162 C792.639714,58.53 793.737714,59.286 795.231714,59.286 C796.257714,59.286 797.031714,58.908 797.553714,58.17 L799.155714,59.106 C798.273714,60.42 796.959714,61.068 795.213714,61.068 C793.755714,61.068 792.567714,60.618 791.667714,59.736 C790.767714,58.836 790.317714,57.702 790.317714,56.334 C790.317714,54.984 790.767714,53.868 791.649714,52.968 C792.531714,52.05 793.683714,51.6 795.069714,51.6 C796.383714,51.6 797.463714,52.068 798.309714,52.986 C799.155714,53.904 799.587714,55.038 799.587714,56.352 C799.587714,56.55 799.569714,56.82 799.515714,57.162 Z M792.333714,55.578 L797.625714,55.578 C797.355714,54.12 796.329714,53.364 795.051714,53.364 C793.611714,53.364 792.603714,54.21 792.333714,55.578 Z M804.098857,51.834 L804.098857,53.346 C804.584857,52.23 805.520857,51.672 806.870857,51.672 L806.870857,53.778 C806.132857,53.724 805.484857,53.904 804.926857,54.318 C804.368857,54.714 804.098857,55.38 804.098857,56.298 L804.098857,60.834 L802.154857,60.834 L802.154857,51.834 L804.098857,51.834 Z" id="Twitter"></path>
            </g>
        </g>
    </g>
</svg>