<?xml version="1.0" encoding="UTF-8"?>
<svg width="120px" height="39px" viewBox="0 0 120 39" version="1.1" xmlns="http://www.w3.org/2000/svg" xmlns:xlink="http://www.w3.org/1999/xlink">
    <!-- Generator: Sketch 56.3 (81716) - https://sketch.com -->
    <title>Logo/white</title>
    <desc>Created with Sketch.</desc>
    <g id="Homepage-desktop" stroke="none" stroke-width="1" fill="none" fill-rule="evenodd">
        <g id="Homepage/Desktop" transform="translate(-120.000000, -3244.000000)" fill="#FFFFFF">
            <g id="Footer" transform="translate(0.000000, 3208.000000)">
                <g id="Logo/White" transform="translate(120.000000, 36.000000)">
                    <g id="Logo">
                        <g>
                            <g>
                                <g>
                                    <path d="M111.177386,11.8383529 C109.965505,11.9124706 108.586099,12.8030588 107.95402,13.9842353 C105.311644,18.9254118 107.566693,22.436 107.566693,22.436 L113.77105,18.0771765 C114.898574,17.2842353 115.361941,15.8030588 114.83204,14.5230588 C114.264119,13.1489412 113.185307,11.7148235 111.177386,11.8383529 M102.865307,19.9701176 C102.865307,17.1054118 103.733822,14.6712941 105.470851,12.6689412 C107.207881,10.6665882 109.359564,9.66541176 111.923525,9.66541176 C113.881545,9.66541176 115.563921,10.2842353 116.969465,11.5207059 C117.898574,12.3395294 118.53897,13.3854118 118.890653,14.6583529 C119.207881,15.8089412 118.739762,17.0348235 117.760752,17.7054118 C114.811842,19.7301176 108.599168,24.3877647 108.599168,24.3877647 C109.674416,25.7077647 111.426891,26.3112941 113.495406,26.3112941 C114.432832,26.3112941 115.335802,26.1512941 116.204317,25.8312941 C117.07402,25.5112941 117.700158,25.1995294 118.086297,24.8924706 L118.666099,24.4336471 L119.121149,25.476 C119.065307,25.5889412 118.976198,25.7336471 118.851446,25.9136471 C118.727881,26.0948235 118.45105,26.4148235 118.024515,26.8748235 C117.596792,27.3324706 117.128673,27.7430588 116.61897,28.1054118 C116.108079,28.4665882 115.424911,28.7936471 114.570653,29.0842353 C113.715208,29.3771765 112.819366,29.5242353 111.881941,29.5242353 C109.042337,29.5242353 106.828871,28.5912941 105.243921,26.7277647 C103.657782,24.8654118 102.865307,22.6124706 102.865307,19.9701176" id="Fill-195"></path>
                                    <path d="M84.2478416,27.2292941 L83.7904158,26.4387059 C83.7512079,26.3704706 83.662099,26.3516471 83.5979406,26.3963529 L83.4327921,26.5151765 C83.4292277,26.5175294 83.4256634,26.5198824 83.422099,26.5222353 C83.2284356,26.634 82.962297,26.7575294 82.6213069,26.8951765 C82.2755644,27.034 81.952396,27.1034118 81.6494257,27.1034118 C81.2074455,27.1034118 80.9187327,26.9504706 80.7797228,26.6445882 C80.641901,26.3387059 80.5741782,25.8387059 80.5741782,25.1434118 L80.5741782,15.6304706 C80.5741782,13.4069412 80.2213069,11.8551765 79.5191287,10.9798824 C78.8157624,10.1034118 77.4565545,9.66576471 75.4450693,9.66576471 C73.982495,9.66576471 72.542495,9.89517647 71.1226931,10.3528235 C69.701703,10.8128235 68.7714059,11.174 68.3306139,11.4375294 C67.9278416,11.6798824 67.6046733,11.8916471 67.3634851,12.0751765 C67.3207129,12.1069412 67.3040792,12.1598824 67.3159604,12.2116471 L68.0585347,15.4022353 C68.062099,15.4198824 68.0704158,15.4351765 68.0811089,15.4492941 C68.2034851,15.7763529 68.5135842,16.0092941 68.8807129,16.0092941 C69.2561584,16.0092941 69.5710099,15.7657647 69.6874455,15.4269412 C69.6874455,15.4269412 69.6886337,15.4257647 69.6886337,15.4257647 L70.1092277,14.4634118 C70.4395248,13.7681176 70.9575446,13.0657647 71.6597228,12.3551765 C72.3630891,11.6469412 73.1009109,11.2928235 73.8731881,11.2928235 C75.0862574,11.2928235 75.8585347,12.0845882 76.1888317,13.6704706 C76.3777426,14.6257647 76.4359604,16.0622353 76.3599208,17.9787059 C76.3575446,18.0434118 76.3088317,18.0987059 76.2458614,18.1081176 L74.9484356,18.3010588 C72.4664554,18.6904706 70.321901,19.4563529 68.5171485,20.5951765 C66.7100198,21.7363529 65.8070495,23.2387059 65.8070495,25.1010588 C65.8070495,26.4092941 66.2276436,27.4728235 67.0688317,28.2928235 C67.9100198,29.1128235 68.992396,29.5234118 70.3159604,29.5234118 C71.0609109,29.5234118 71.7844752,29.3916471 72.4878416,29.1269412 C73.1900198,28.8622353 73.7626931,28.5634118 74.2034851,28.2304706 C74.6442772,27.8963529 75.0648713,27.514 75.4652673,27.0822353 C75.8644752,26.6516471 76.1199208,26.3528235 76.2304158,26.1857647 C76.231604,26.1845882 76.2327921,26.1822353 76.2339802,26.1810588 C76.3076436,26.0692941 76.4787327,26.1222353 76.4787327,26.2551765 L76.4787327,26.6445882 C76.4787327,27.5622353 76.761505,28.2716471 77.3270495,28.7716471 C77.8914059,29.2728235 78.642297,29.5234118 79.5809109,29.5234118 C80.3805149,29.5234118 81.1943762,29.3210588 82.0213069,28.9187059 C82.8482376,28.5151765 83.3995248,28.1881176 83.6763564,27.9375294 C83.9127921,27.7222353 84.0993267,27.5375294 84.2347723,27.3834118 C84.2727921,27.3410588 84.2763564,27.2787059 84.2478416,27.2292941 L84.2478416,27.2292941 Z M76.3551683,24.7034118 C76.3551683,24.7445882 76.3361584,24.7834118 76.3052673,24.8081176 C74.7547723,26.0892941 73.4478416,26.7281176 72.3832871,26.7281176 C71.7226931,26.7281176 71.1904158,26.4987059 70.7912079,26.0398824 C70.392,25.5810588 70.192396,24.9763529 70.192396,24.2257647 C70.192396,23.0010588 70.681901,22.0351765 71.6597228,21.3257647 C72.6387327,20.6175294 73.8042772,20.1516471 75.1551683,19.9281176 L76.1995248,19.7469412 C76.2803168,19.7328235 76.3551683,19.7963529 76.3551683,19.8787059 L76.3551683,24.7034118 Z" id="Fill-197"></path>
                                    <path d="M0.308792079,28.7803529 L0.308792079,28.0450588 C0.308792079,27.8674118 0.435920792,27.7156471 0.609386139,27.6862353 C2.20027723,27.4085882 2.10879208,26.5603529 2.18720792,25.1427059 L3.01413861,5.36858824 C3.06879208,4.34035294 2.55908911,3.32388235 2.55908911,3.32388235 C2.55908911,3.32388235 2.44740594,2.70270588 1.09770297,2.38035294 C0.949188119,2.34505882 0.847009901,2.20623529 0.847009901,2.05094118 L0.847009901,1.56741176 C0.847009901,1.36270588 1.0109703,1.19682353 1.21413861,1.19682353 L2.93215842,1.19682353 L8.39156436,1.02976471 L8.55671287,1.19682353 C8.85968317,2.44741176 9.26007921,3.72741176 9.75671287,5.03447059 L15.5048317,20.0121176 C15.7198812,20.5403529 15.9432475,21.2121176 16.178495,22.0297647 C16.2165149,22.1603529 16.3971089,22.1709412 16.4470099,22.0450588 L23.6933465,4.12270588 C23.6945347,4.11917647 23.6957228,4.11447059 23.6969109,4.11094118 L24.5737426,1.29682353 C24.5927525,1.23682353 24.6474059,1.19682353 24.7091881,1.19682353 L26.0945347,1.19682353 L30.4513663,1.04741176 C30.7044356,1.03917647 30.8885941,1.28623529 30.807802,1.52741176 C30.6295842,2.06741176 30.3491881,2.92976471 30.1887921,3.51211765 C29.9404752,4.41682353 29.8299802,5.39564706 29.858495,6.45329412 L30.6438416,25.2685882 C30.7650297,26.4144706 31.2735446,27.2238824 32.2228515,27.4756471 C32.458099,27.538 32.628,27.7462353 32.628,27.9909412 L32.628,28.3297647 C32.628,28.6462353 32.378495,28.9050588 32.0648317,28.9144706 L25.0074059,29.1309412 C24.7091881,29.1403529 24.4632475,28.8991765 24.4632475,28.5991765 L24.4632475,28.0568235 C24.4632475,27.8744706 24.5808713,27.7203529 24.7507723,27.6603529 C25.5705743,27.3744706 26.3594851,26.3297647 26.2596832,25.2685882 L25.4588911,5.81682353 C25.4529505,5.66270588 25.2426535,5.62623529 25.1844356,5.76858824 L15.8850297,28.698 C15.8113663,28.8803529 15.4252277,28.9085882 15.4252277,28.9085882 L14.7111683,28.9085882 C14.467604,28.9085882 14.247802,28.758 14.1586931,28.5285882 L5.34522772,5.73094118 C5.29057426,5.58858824 5.08265347,5.62035294 5.06958416,5.77329412 C5.04106931,6.13682353 5.01730693,6.48858824 4.99948515,6.82858824 L4.29611881,25.1427059 C4.15354455,26.2521176 4.8830495,27.2627059 5.93215842,27.4968235 C6.11988119,27.5391765 6.25532673,27.7062353 6.25532673,27.9003529 L6.25532673,28.5638824 C6.25532673,28.7497647 6.10918812,28.9038824 5.9250297,28.9109412 L0.672356436,29.1321176 C0.473940594,29.1415294 0.308792079,28.9803529 0.308792079,28.7803529" id="Fill-199"></path>
                                    <path d="M38.8028911,18.9688235 C38.8028911,20.4429412 38.9751683,21.8335294 39.3197228,23.1405882 C39.6642772,24.4476471 40.2642772,25.5735294 41.1197228,26.5194118 C41.9739802,27.4652941 42.9933861,27.9370588 44.1803168,27.9370588 C45.8068515,27.9370588 47.0270495,27.1311765 47.8409109,25.5182353 C48.6535842,23.9052941 49.0611089,22.0147059 49.0611089,19.8441176 C49.0325941,18.4252941 48.8543762,17.09 48.5228911,15.8394118 C48.1914059,14.5876471 47.6056634,13.51 46.7656634,12.6064706 C45.9232871,11.7029412 44.9098218,11.25 43.7252673,11.25 C42.1260594,11.25 40.9058614,12.0005882 40.0646733,13.5029412 C39.222297,15.0052941 38.8028911,16.8264706 38.8028911,18.9688235 M36.7141782,26.8535294 C35.0187327,25.0735294 34.1704158,22.7935294 34.1704158,20.0111765 C34.1704158,17.23 35.011604,14.8111765 36.6927921,12.7523529 C38.3751683,10.6947059 40.8714059,9.66529412 44.1803168,9.66529412 C47.1577426,9.66529412 49.4876436,10.5194118 51.1700198,12.2311765 C52.8512079,13.9417647 53.6935842,16.1452941 53.6935842,18.8441176 C53.6935842,20.6511765 53.3347723,22.3476471 52.6183366,23.9323529 C51.9007129,25.5182353 50.7565545,26.8464706 49.1846733,27.9170588 C47.6127921,28.9876471 45.752198,29.5241176 43.6005149,29.5241176 C40.7062574,29.5241176 38.4096238,28.6335294 36.7141782,26.8535294" id="Fill-201"></path>
                                    <path d="M92.2987723,29.1682353 C91.9292673,29.0764706 91.626297,28.8094118 91.4872871,28.4529412 L85.7534257,13.7117647 C85.5051089,13.0729412 85.1878812,12.5505882 84.8017426,12.1482353 C84.415604,11.7447059 84.0853069,11.5011765 83.8096634,11.4176471 L83.3950099,11.2917647 L83.3950099,10.1658824 L85.3399604,10.1658824 L90.3027327,9.99882353 L90.4678812,10.1658824 C89.9165941,11.3611765 89.8892673,12.6411765 90.385901,14.0035294 L93.4049109,22.14 C93.6532277,22.9176471 93.9015446,23.7658824 94.1486733,24.6835294 L98.6991683,14.3376471 C99.3609505,12.8082353 98.6433267,11.7929412 96.5486733,11.2917647 L96.5486733,10.1658824 L102.37996,10.1658824 L102.586693,10.8329412 C102.200554,11 101.718178,11.7235294 101.139564,13.0023529 L94.5668911,28.0411765 C94.1819406,28.9223529 93.225505,29.3976471 92.2987723,29.1682353" id="Fill-203"></path>
                                    <path d="M62.0056634,22.3150588 C62.0056634,24.868 61.8785347,29.4644706 61.4151683,31.7621176 C60.5288317,36.0174118 57.6761584,38.9103529 54.132,38.9103529 C52.4448713,38.9103529 51.0108119,38.0597647 51.0108119,36.6127059 C51.0108119,35.7609412 51.7700198,34.4856471 52.8666535,34.4856471 C53.8789307,34.4856471 54.6381386,35.1656471 55.2286337,35.9315294 C55.7359604,36.6127059 56.0733861,36.868 56.4951683,36.868 C57.4230891,36.868 58.0135842,35.8468235 58.1395248,33.8044706 C58.3510099,30.9103529 58.3925941,27.2515294 58.3510099,24.1868235 L58.2666535,15.8044706 C58.2666535,14.0174118 57.8448713,13.5915294 56.1577426,12.9115294 L55.7359604,12.7409412 C55.5660594,12.6550588 55.481703,12.5703529 55.481703,12.4009412 L55.481703,11.9750588 C55.481703,11.8044706 55.5660594,11.7197647 55.8203168,11.6350588 C56.4108119,11.4221176 60.1486337,9.76211765 60.7403168,9.33623529 C61.2464554,9.08094118 61.5838812,9.08094118 61.8369505,9.08094118 C62.1743762,9.08094118 62.2587327,9.33623529 62.1743762,9.76211765 C62.0900198,10.188 62.0056634,13.1668235 62.0056634,17.0385882 L62.0056634,22.3150588 Z" id="Fill-205"></path>
                                    <path d="M58.7645941,5.806 C57.3364752,5.806 55.824,4.87423529 55.824,3.09423529 C55.824,1.94952941 56.9574653,0.423647059 59.0164752,0.423647059 C60.3614257,0.423647059 61.7895446,1.39894118 61.7895446,3.09423529 C61.7895446,4.44952941 60.6976634,5.806 58.7645941,5.806" id="Fill-207"></path>
                                </g>
                            </g>
                        </g>
                    </g>
                </g>
            </g>
        </g>
    </g>
</svg>