
<svg width="148px" height="49px" viewBox="0 0 148 49" version="1.1" xmlns="http://www.w3.org/2000/svg" xmlns:xlink="http://www.w3.org/1999/xlink">
    <g id="0---D---Home-Page" stroke="none" stroke-width="1" fill="none" fill-rule="evenodd">
        <g id="0---Home-Page-1440" transform="translate(-130.000000, -24.000000)">
            <rect x="0" y="0" width="1440" height="3481"></rect>
            <g id="Hero-image">
                <g id="Logo" transform="translate(130.000000, 24.000000)">
                    <g>
                        <g>
                            <g>
                                <path fill="#ffffff"
                                        d="M138.045254,14.7979412 C136.540502,14.8905882 134.82774,16.0038235 134.042908,17.4802941 C130.761957,23.6567647 133.561977,28.045 133.561977,28.045 L141.26572,22.5964706 C142.66573,21.6052941 143.241076,19.7538235 142.583116,18.1538235 C141.877948,16.4361765 140.538423,14.6435294 138.045254,14.7979412 M127.724423,24.9626471 C127.724423,21.3817647 128.802829,18.3391176 130.959641,15.8361765 C133.116452,13.3332353 135.788126,12.0817647 138.97171,12.0817647 C141.402918,12.0817647 143.491868,12.8552941 145.237086,14.4008824 C146.39073,15.4244118 147.185888,16.7317647 147.622561,18.3229412 C148.016452,19.7611765 147.435205,21.2935294 146.219601,22.1317647 C142.558037,24.6626471 134.843967,30.4847059 134.843967,30.4847059 C136.179066,32.1347059 138.355056,32.8891176 140.923462,32.8891176 C142.087433,32.8891176 143.208621,32.6891176 144.287027,32.2891176 C145.366908,31.8891176 146.144363,31.4994118 146.623819,31.1155882 L147.34374,30.5420588 L147.908759,31.845 C147.839423,31.9861765 147.728779,32.1670588 147.573878,32.3920588 C147.420452,32.6185294 147.07672,33.0185294 146.547106,33.5935294 C146.016017,34.1655882 145.434769,34.6788235 144.801888,35.1317647 C144.167532,35.5832353 143.319264,35.9920588 142.258561,36.3552941 C141.196383,36.7214706 140.084047,36.9052941 138.920076,36.9052941 C135.394235,36.9052941 132.645849,35.7391176 130.677868,33.4097059 C128.708413,31.0817647 127.724423,28.2655882 127.724423,24.9626471" id="Fill-195"></path>
                                <path fill="#ffffff"
                                        d="M104.607737,34.0366176 L104.039766,33.0483824 C103.991083,32.9630882 103.88044,32.9395588 103.800776,32.9954412 L103.595717,33.1439706 C103.591291,33.1469118 103.586865,33.1498529 103.58244,33.1527941 C103.341974,33.2925 103.011519,33.4469118 102.588123,33.6189706 C102.158826,33.7925 101.757558,33.8792647 101.38137,33.8792647 C100.832578,33.8792647 100.474093,33.6880882 100.301489,33.3057353 C100.13036,32.9233824 100.046271,32.2983824 100.046271,31.4292647 L100.046271,19.5380882 C100.046271,16.7586765 99.6081228,14.8189706 98.7362515,13.7248529 C97.862905,12.6292647 96.1752218,12.0822059 93.6776277,12.0822059 C91.861598,12.0822059 90.073598,12.3689706 88.3106772,12.9410294 C86.5462812,13.5160294 85.3911624,13.9675 84.8438455,14.2969118 C84.3437366,14.5998529 83.9424693,14.8645588 83.6429941,15.0939706 C83.5898851,15.1336765 83.5692317,15.1998529 83.5839842,15.2645588 L84.5060139,19.2527941 C84.5104396,19.2748529 84.5207663,19.2939706 84.5340436,19.3116176 C84.6859941,19.7204412 85.0710337,20.0116176 85.5268851,20.0116176 C85.9930634,20.0116176 86.384004,19.7072059 86.5285782,19.2836765 C86.5285782,19.2836765 86.5300535,19.2822059 86.5300535,19.2822059 L87.0522911,18.0792647 C87.4624099,17.2101471 88.1056178,16.3322059 88.9774891,15.4439706 C89.8508356,14.5586765 90.7669644,14.1160294 91.7258752,14.1160294 C93.232103,14.1160294 94.1910139,15.1057353 94.6011327,17.0880882 C94.835697,18.2822059 94.9079842,20.0777941 94.8135683,22.4733824 C94.8106178,22.5542647 94.7501327,22.6233824 94.6719446,22.6351471 L93.0609743,22.8763235 C89.9791822,23.3630882 87.3163604,24.3204412 85.0754594,25.7439706 C82.8316079,27.1704412 81.7104198,29.0483824 81.7104198,31.3763235 C81.7104198,33.0116176 82.2326574,34.3410294 83.2771327,35.3660294 C84.3216079,36.3910294 85.6655584,36.9042647 87.3089842,36.9042647 C88.2339644,36.9042647 89.1323901,36.7395588 90.0057366,36.4086765 C90.8776079,36.0777941 91.5886772,35.7042647 92.1359941,35.2880882 C92.6833109,34.8704412 93.2055485,34.3925 93.7027069,33.8527941 C94.1983901,33.3145588 94.5155683,32.9410294 94.6527663,32.7322059 C94.6542416,32.7307353 94.6557168,32.7277941 94.6571921,32.7263235 C94.7486574,32.5866176 94.9610931,32.6527941 94.9610931,32.8189706 L94.9610931,33.3057353 C94.9610931,34.4527941 95.312202,35.3395588 96.0144198,35.9645588 C96.7151624,36.5910294 97.6475188,36.9042647 98.8129644,36.9042647 C99.8058059,36.9042647 100.81635,36.6513235 101.843123,36.1483824 C102.869895,35.6439706 103.55441,35.2351471 103.898143,34.9219118 C104.191717,34.6527941 104.423331,34.4219118 104.591509,34.2292647 C104.638717,34.1763235 104.643143,34.0983824 104.607737,34.0366176 L104.607737,34.0366176 Z M94.8076673,30.8792647 C94.8076673,30.9307353 94.7840634,30.9792647 94.7457069,31.0101471 C92.8205089,32.6116176 91.1977366,33.4101471 89.8759149,33.4101471 C89.0556772,33.4101471 88.3947663,33.1233824 87.8990832,32.5498529 C87.4034,31.9763235 87.1555584,31.2204412 87.1555584,30.2822059 C87.1555584,28.7513235 87.7633604,27.5439706 88.9774891,26.6572059 C90.1930931,25.7719118 91.6403109,25.1895588 93.3176673,24.9101471 L94.6144099,24.6836765 C94.7147267,24.6660294 94.8076673,24.7454412 94.8076673,24.8483824 L94.8076673,30.8792647 Z" id="Fill-197"></path>
                                <path fill="#ffffff"
                                        d="M0.383416832,35.9754412 L0.383416832,35.0563235 C0.383416832,34.8342647 0.541268317,34.6445588 0.756654455,34.6077941 C2.73201089,34.2607353 2.61841683,33.2004412 2.71578317,31.4283824 L3.74255545,6.71073529 C3.81041683,5.42544118 3.17753564,4.15485294 3.17753564,4.15485294 C3.17753564,4.15485294 3.03886238,3.37838235 1.36298119,2.97544118 C1.17857525,2.93132353 1.05170396,2.75779412 1.05170396,2.56367647 L1.05170396,1.95926471 C1.05170396,1.70338235 1.25528812,1.49602941 1.50755545,1.49602941 L3.64076337,1.49602941 L10.4195257,1.28720588 L10.6245851,1.49602941 C11.0007733,3.05926471 11.4979317,4.65926471 12.1145851,6.29308824 L19.2518327,25.0151471 C19.5188525,25.6754412 19.796199,26.5151471 20.088298,27.5372059 C20.1355059,27.7004412 20.3597436,27.7136765 20.421704,27.5563235 L29.4192386,5.15338235 C29.4207139,5.14897059 29.4221891,5.14308824 29.4236644,5.13867647 L30.512397,1.62102941 C30.536001,1.54602941 30.6038624,1.49602941 30.6805752,1.49602941 L32.4007139,1.49602941 L37.8104465,1.30926471 C38.1246743,1.29897059 38.3533376,1.60779412 38.2530208,1.90926471 C38.0317337,2.58426471 37.6835752,3.66220588 37.4844168,4.39014706 C37.1760901,5.52102941 37.0388921,6.74455882 37.074298,8.06661765 L38.0494366,31.5857353 C38.1999119,33.0180882 38.8313178,34.0298529 40.0100406,34.3445588 C40.3021396,34.4225 40.5131,34.6827941 40.5131,34.9886765 L40.5131,35.4122059 C40.5131,35.8077941 40.203298,36.1313235 39.8138327,36.1430882 L31.0508624,36.4136765 C30.6805752,36.4254412 30.375199,36.1239706 30.375199,35.7489706 L30.375199,35.0710294 C30.375199,34.8430882 30.5212485,34.6504412 30.7322089,34.5754412 C31.7501297,34.2180882 32.7296941,32.9122059 32.6057733,31.5857353 L31.6114564,7.27102941 C31.6040802,7.07838235 31.3429614,7.03279412 31.2706743,7.21073529 L19.7239119,35.8725 C19.6324465,36.1004412 19.1529911,36.1357353 19.1529911,36.1357353 L18.2663673,36.1357353 C17.9639416,36.1357353 17.6910208,35.9475 17.5803772,35.6607353 L6.63699109,7.16367647 C6.5691297,6.98573529 6.31096139,7.02544118 6.29473366,7.21661765 C6.25932772,7.67102941 6.22982277,8.11073529 6.20769406,8.53573529 L5.33434752,31.4283824 C5.15731782,32.8151471 6.0631198,34.0783824 7.36576337,34.3710294 C7.59885248,34.4239706 7.76703069,34.6327941 7.76703069,34.8754412 L7.76703069,35.7048529 C7.76703069,35.9372059 7.58557525,36.1298529 7.35691188,36.1386765 L0.834842574,36.4151471 C0.588476238,36.4269118 0.383416832,36.2254412 0.383416832,35.9754412" id="Fill-199"></path>
                                <path fill="#ffffff"
                                        d="M48.1802564,23.7110294 C48.1802564,25.5536765 48.3941673,27.2919118 48.8219891,28.9257353 C49.2498109,30.5595588 49.9948109,31.9669118 51.0569891,33.1492647 C52.1176921,34.3316176 53.3834545,34.9213235 54.8572267,34.9213235 C56.8768406,34.9213235 58.3919198,33.9139706 59.4024644,31.8977941 C60.4115337,29.8816176 60.9175436,27.5183824 60.9175436,24.8051471 C60.8821376,23.0316176 60.6608505,21.3625 60.2492564,19.7992647 C59.8376624,18.2345588 59.1103653,16.8875 58.0673653,15.7580882 C57.0214149,14.6286765 55.7630287,14.0625 54.2922069,14.0625 C52.3065238,14.0625 50.7914446,15.0007353 49.7469693,16.8786765 C48.7010188,18.7566176 48.1802564,21.0330882 48.1802564,23.7110294 M45.5867713,33.5669118 C43.4815931,31.3419118 42.4282663,28.4919118 42.4282663,25.0139706 C42.4282663,21.5375 43.4727416,18.5139706 45.5602168,15.9404412 C47.6491673,13.3683824 50.7486624,12.0816176 54.8572267,12.0816176 C58.554197,12.0816176 61.4471574,13.1492647 63.5361079,15.2889706 C65.6235832,17.4272059 66.6695337,20.1816176 66.6695337,23.5551471 C66.6695337,25.8139706 66.2240089,27.9345588 65.3344347,29.9154412 C64.4433851,31.8977941 63.0227218,33.5580882 61.0709693,34.8963235 C59.1192168,36.2345588 56.8089792,36.9051471 54.1373059,36.9051471 C50.543603,36.9051471 47.6919495,35.7919118 45.5867713,33.5669118" id="Fill-201"></path>
                                <path fill="#ffffff"
                                        d="M114.604309,36.4602941 C114.145507,36.3455882 113.769319,36.0117647 113.596715,35.5661765 L106.47717,17.1397059 C106.168844,16.3411765 105.774952,15.6882353 105.295497,15.1852941 C104.816042,14.6808824 104.405923,14.3764706 104.063665,14.2720588 L103.548804,14.1147059 L103.548804,12.7073529 L105.963784,12.7073529 L112.125893,12.4985294 L112.330952,12.7073529 C111.646438,14.2014706 111.612507,15.8014706 112.22916,17.5044118 L115.977764,27.675 C116.286091,28.6470588 116.594418,29.7073529 116.901269,30.8544118 L122.551467,17.9220588 C123.37318,16.0102941 122.482131,14.7411765 119.881269,14.1147059 L119.881269,12.7073529 L127.121784,12.7073529 L127.378477,13.5411765 C126.899022,13.75 126.300071,14.6544118 125.581626,16.2529412 L117.420556,35.0514706 C116.942576,36.1529412 115.755002,36.7470588 114.604309,36.4602941" id="Fill-203"></path>
                                <path fill="#ffffff"
                                        d="M76.9903653,27.8938235 C76.9903653,31.085 76.8325139,36.8305882 76.2571673,39.7026471 C75.1566327,45.0217647 71.6145634,48.6379412 67.2139,48.6379412 C65.1190485,48.6379412 63.3384248,47.5747059 63.3384248,45.7658824 C63.3384248,44.7011765 64.2811079,43.1070588 65.6427614,43.1070588 C66.8996723,43.1070588 67.8423554,43.9570588 68.5755535,44.9144118 C69.2054842,45.7658824 69.6244545,46.085 70.1481673,46.085 C71.3003356,46.085 72.0335337,44.8085294 72.1899099,42.2555882 C72.452504,38.6379412 72.5041376,34.0644118 72.452504,30.2335294 L72.3477614,19.7555882 C72.3477614,17.5217647 71.8240485,16.9894118 69.729197,16.1394118 L69.2054842,15.9261765 C68.9945238,15.8188235 68.8897812,15.7129412 68.8897812,15.5011765 L68.8897812,14.9688235 C68.8897812,14.7555882 68.9945238,14.6497059 69.3102267,14.5438235 C70.0434248,14.2776471 74.6845535,12.2026471 75.4192267,11.6702941 C76.0476822,11.3511765 76.4666525,11.3511765 76.7808802,11.3511765 C77.1998505,11.3511765 77.3045931,11.6702941 77.1998505,12.2026471 C77.0951079,12.735 76.9903653,16.4585294 76.9903653,21.2982353 L76.9903653,27.8938235 Z" id="Fill-205"></path>
                                <path fill="#ffffff"
                                        d="M72.9660376,7.2575 C71.1927901,7.2575 69.3148,6.09279412 69.3148,3.86779412 C69.3148,2.43691176 70.7221861,0.529558824 73.2787901,0.529558824 C74.9487703,0.529558824 76.7220178,1.74867647 76.7220178,3.86779412 C76.7220178,5.56191176 75.3662653,7.2575 72.9660376,7.2575" id="Fill-207"></path>
                            </g>
                        </g>
                    </g>
                </g>
            </g>
        </g>
    </g>
</svg>