<?xml version="1.0" encoding="UTF-8"?>
<svg width="113px" height="37px" viewBox="0 0 113 37" version="1.1" xmlns="http://www.w3.org/2000/svg" xmlns:xlink="http://www.w3.org/1999/xlink">
    <!-- Generator: Sketch 54.1 (76490) - https://sketchapp.com -->
    <title>Logo</title>
    <desc>Created with Sketch.</desc>
    <g id="Symbols" stroke="none" stroke-width="1" fill="none" fill-rule="evenodd">
        <g id="Logo/Black">
            <g id="Logo">
                <g>
                    <path d="M104.692039,11.2175613 C103.55085,11.2877923 102.25191,12.1316789 101.656702,13.2509156 C99.1684644,17.9329816 101.291969,21.259478 101.291969,21.259478 L107.134405,17.129227 C108.196157,16.3778669 108.632494,14.9743618 108.133504,13.7614838 C107.598712,12.4594235 106.582831,11.1005096 104.692039,11.2175613 M96.8648307,18.9229042 C96.8648307,16.2084207 97.6826822,13.9019458 99.3183851,12.0045943 C100.954088,10.1072428 102.980256,9.158567 105.394652,9.158567 C107.238454,9.158567 108.822692,9.74494003 110.146247,10.9165713 C111.021157,11.6924565 111.624197,12.6834938 111.955365,13.8896832 C112.254088,14.9799357 111.813276,16.141534 110.891375,16.7769572 C108.114484,18.6954895 102.264217,23.1088941 102.264217,23.1088941 C103.276742,24.3596746 104.926989,24.9315555 106.874841,24.9315555 C107.757583,24.9315555 108.60788,24.7799458 109.425732,24.4767263 C110.244702,24.1735067 110.834316,23.8780907 111.19793,23.5871337 L111.74391,23.1523704 L112.172415,24.1400634 C112.119831,24.2470821 112.03592,24.3841997 111.918445,24.5547607 C111.802088,24.7264364 111.541405,25.029656 111.139751,25.465534 C110.736979,25.8991825 110.296167,26.2882399 109.816197,26.6315914 C109.335108,26.9738281 108.691791,27.2837363 107.887365,27.5590864 C107.081821,27.836666 106.238237,27.9760132 105.355494,27.9760132 C102.681534,27.9760132 100.597187,27.0919945 99.1046921,25.3261868 C97.6110782,23.5614938 96.8648307,21.4266947 96.8648307,18.9229042" id="Fill-195" fill="#313131"></path>
                    <path d="M79.3333842,25.8014165 L78.9026416,25.0522859 C78.8657208,24.9876288 78.7818099,24.9697924 78.7213941,25.0121539 L78.5658792,25.1247465 C78.5625228,25.126976 78.5591663,25.1292056 78.5558099,25.1314352 C78.3734436,25.237339 78.1228297,25.3543907 77.8017307,25.4848197 C77.4761564,25.6163634 77.1718396,25.6821353 76.8865426,25.6821353 C76.4703446,25.6821353 76.1984733,25.5372142 76.0675723,25.247372 C75.9377901,24.9575298 75.8740178,24.4837494 75.8740178,23.8249158 L75.8740178,14.810824 C75.8740178,12.7038943 75.5417307,11.2335026 74.8805129,10.404108 C74.2181762,9.57359871 72.9382554,9.15890143 71.0441069,9.15890143 C69.6668495,9.15890143 68.3108495,9.37628307 66.9738693,9.80993156 C65.6357703,10.2458096 64.7597406,10.5880463 64.3446614,10.8377565 C63.9653842,11.0674007 63.6610673,11.2680607 63.4339485,11.441966 C63.3936713,11.472065 63.3780079,11.52223 63.389196,11.5712802 L64.0884535,14.5945571 C64.0918099,14.6112788 64.0996416,14.6257709 64.1097109,14.6391482 C64.2249485,14.9490564 64.5169584,15.1697824 64.8626713,15.1697824 C65.2162158,15.1697824 65.512701,14.9390234 65.6223446,14.6179674 C65.6223446,14.6179674 65.6234634,14.6168527 65.6234634,14.6168527 L66.0195228,13.7049646 C66.3305525,13.046131 66.8183545,12.3806088 67.4795723,11.7072831 C68.1419089,11.0361869 68.8366911,10.7006389 69.5639188,10.7006389 C70.7062257,10.7006389 71.4334535,11.4508842 71.7444832,12.9536044 C71.9223743,13.8588039 71.977196,15.2199473 71.9055921,17.0359201 C71.9033545,17.0972329 71.8574832,17.1496274 71.7981861,17.1585456 L70.5764436,17.3413692 C68.2392455,17.7103605 66.2197901,18.4360808 64.5203149,19.5151855 C62.818602,20.5965198 61.968305,22.0200908 61.968305,23.7847838 C61.968305,25.0244165 62.3643644,26.0321755 63.1564832,26.8091755 C63.948602,27.5861755 64.9678396,27.9752329 66.214196,27.9752329 C66.9156911,27.9752329 67.5970475,27.8503778 68.2593842,27.5995528 C68.920602,27.3487278 69.4598693,27.0655743 69.8749485,26.7500923 C70.2900277,26.4334954 70.6860871,26.0711927 71.0631267,25.6620693 C71.4390475,25.2540607 71.6795921,24.9709072 71.7836416,24.8126088 C71.7847604,24.811494 71.7858792,24.8092644 71.786998,24.8081496 C71.8563644,24.7022458 72.0174733,24.7524108 72.0174733,24.8783806 L72.0174733,25.247372 C72.0174733,26.1168986 72.2837505,26.7891095 72.816305,27.26289 C73.3477406,27.7377852 74.0548297,27.9752329 74.9386911,27.9752329 C75.6916515,27.9752329 76.4580376,27.7834911 77.2367307,27.4022372 C78.0154238,27.0198684 78.5345525,26.7099603 78.7952356,26.4725126 C79.0178792,26.2685083 79.1935327,26.0934882 79.3210772,25.9474524 C79.3568792,25.9073204 79.3602356,25.8482372 79.3333842,25.8014165 L79.3333842,25.8014165 Z M71.9011168,23.407989 C71.9011168,23.4470062 71.8832158,23.4837938 71.8541267,23.5072042 C70.3940772,24.721197 69.1633842,25.3265212 68.1609287,25.3265212 C67.5388693,25.3265212 67.0376416,25.1091396 66.6617208,24.6743763 C66.2858,24.2396131 66.0978396,23.6666174 66.0978396,22.9553892 C66.0978396,21.7949057 66.5587901,20.8796733 67.4795723,20.2074624 C68.4014733,19.5363663 69.4990277,19.0949143 70.7711168,18.8831066 L71.7545525,18.7114308 C71.8306317,18.6980535 71.9011168,18.7582515 71.9011168,18.8362859 L71.9011168,23.407989 Z" id="Fill-197" fill="#313131"></path>
                    <path d="M0.290779208,27.2711393 L0.290779208,26.5744033 C0.290779208,26.4060719 0.410492079,26.2622656 0.573838614,26.2343961 C2.07192772,25.9713086 1.98577921,25.1675539 2.05962079,23.8242469 L2.83831386,5.08706471 C2.88977921,4.11274907 2.40980891,3.14958121 2.40980891,3.14958121 C2.40980891,3.14958121 2.30464059,2.56097862 1.0336703,2.25552956 C0.893818812,2.22208623 0.79760099,2.09054247 0.79760099,1.94339182 L0.79760099,1.48521822 C0.79760099,1.29124692 0.95199703,1.13406327 1.14331386,1.13406327 L2.76111584,1.13406327 L7.90205644,0.975764849 L8.05757129,1.13406327 C8.34286832,2.31907188 8.71990792,3.53194993 9.18757129,4.77046786 L14.6003832,18.9627017 C14.8028881,19.4632369 15.0132248,20.0997749 15.2347495,20.8745453 C15.2705515,20.9982857 15.4406109,21.0083187 15.487601,20.8890374 L22.3112347,3.90651521 C22.3123535,3.90317088 22.3134723,3.89871176 22.3145911,3.89536743 L23.1402743,1.22881937 C23.1581752,1.17196571 23.2096406,1.13406327 23.2678188,1.13406327 L24.5723535,1.13406327 L28.6750366,0.992486514 C28.9133436,0.98468307 29.0867594,1.21878637 29.0106802,1.44731578 C28.8428584,1.95899871 28.5788188,2.7761307 28.4277792,3.32794562 C28.1939475,4.18520961 28.089898,5.11270459 28.1167495,6.11488967 L28.8562842,23.9435281 C28.970403,25.0293215 29.4492545,25.7962885 30.3431851,26.0348509 C30.5647099,26.0939341 30.7247,26.2912498 30.7247,26.5231235 L30.7247,26.8441795 C30.7247,27.1440547 30.4897495,27.3893057 30.1943832,27.398224 L23.5486406,27.603343 C23.2678188,27.6122613 23.0362248,27.3837319 23.0362248,27.0994636 L23.0362248,26.5855511 C23.0362248,26.4127605 23.1469871,26.2667247 23.3069772,26.209871 C24.0789574,25.9389801 24.8218485,24.9490575 24.7278683,23.9435281 L23.9737891,5.51179498 C23.968195,5.36575911 23.7701653,5.331201 23.7153436,5.4660891 L14.958403,27.1931049 C14.8890366,27.3658954 14.5254228,27.3926501 14.5254228,27.3926501 L13.8530168,27.3926501 C13.6236604,27.3926501 13.4166802,27.2499585 13.3327693,27.0325769 L5.03342277,5.43041621 C4.98195743,5.29552812 4.78616535,5.32562712 4.77385842,5.47054821 C4.74700693,5.81501449 4.72463069,6.148333 4.70784851,6.47050373 L4.04551188,23.8242469 C3.91125446,24.8754822 4.59820495,25.8330762 5.58611584,26.0549169 C5.76288812,26.0950489 5.89043267,26.2533473 5.89043267,26.4372857 L5.89043267,27.0660202 C5.89043267,27.2421551 5.75281881,27.388191 5.57940297,27.3948796 L0.633135644,27.6044578 C0.446294059,27.613376 0.290779208,27.4606515 0.290779208,27.2711393" id="Fill-199" fill="#313131"></path>
                    <path d="M36.5393891,17.9741169 C36.5393891,19.3709333 36.7016168,20.6886004 37.0260723,21.9271184 C37.3505277,23.1656363 37.9155277,24.2324785 38.7210723,25.1287597 C39.525498,26.0250409 40.4854386,26.4720667 41.6031317,26.4720667 C43.1347851,26.4720667 44.283805,25.708444 45.0501911,24.1800839 C45.8154584,22.6517238 46.1992109,20.8602762 46.1992109,18.8035115 C46.1723594,17.4590897 46.0045376,16.1938171 45.6923891,15.0088085 C45.3802406,13.8226851 44.8286663,12.8015488 44.0376663,11.9453996 C43.2444287,11.0892504 42.2900822,10.660061 41.1746267,10.660061 C39.6687059,10.660061 38.5196861,11.3712891 37.7275673,12.7948601 C36.9343297,14.2184311 36.5393891,15.9441069 36.5393891,17.9741169 M34.5725178,25.4453565 C32.9759733,23.758698 32.1771416,21.598259 32.1771416,18.9618099 C32.1771416,16.3264756 32.9692604,14.0344928 34.5523792,12.083632 C36.1366168,10.1338859 38.4872406,9.15845552 41.6031317,9.15845552 C44.4068743,9.15845552 46.6008644,9.96778407 48.185102,11.5897855 C49.7682208,13.2106722 50.5614584,15.2986506 50.5614584,17.8559505 C50.5614584,19.5682489 50.2235772,21.1757582 49.5489337,22.6773637 C48.8731713,24.1800839 47.7957554,25.4386679 46.3155673,26.4531155 C44.8353792,27.4675631 43.0833198,27.9759017 41.0571515,27.9759017 C38.3317257,27.9759017 36.1690624,27.1320151 34.5725178,25.4453565" id="Fill-201" fill="#313131"></path>
                    <path d="M86.9146772,27.6386815 C86.5667267,27.5517288 86.2814297,27.2986743 86.1505287,26.9608967 L80.7511426,12.9927331 C80.5173109,12.3874089 80.2185881,11.8924476 79.8549743,11.5111937 C79.4913604,11.128825 79.1803307,10.898066 78.9207663,10.8189168 L78.530301,10.6996356 L78.530301,9.6327934 L80.361796,9.6327934 L85.0350733,9.47449498 L85.1905881,9.6327934 C84.6714594,10.7654075 84.6457267,11.9782855 85.1133901,13.269198 L87.9562911,20.979 C88.1901228,21.715868 88.4239545,22.5196227 88.6566673,23.3891492 L92.9417168,13.5857948 C93.564895,12.1365839 92.8891327,11.1745308 90.9166673,10.6996356 L90.9166673,9.6327934 L96.407796,9.6327934 L96.6024693,10.2648723 C96.2388554,10.4231707 95.7846178,11.108759 95.2397564,12.3205222 L89.0504891,26.5707245 C88.6879941,27.405693 87.7873505,27.8560631 86.9146772,27.6386815" id="Fill-203" fill="#313131"></path>
                    <path d="M58.3886663,21.1448789 C58.3886663,23.5639463 58.2689535,27.9193825 57.8326168,30.0965432 C56.9979832,34.1286938 54.3117158,36.869932 50.9743,36.869932 C49.3855871,36.869932 48.0351812,36.0639478 48.0351812,34.6927713 C48.0351812,33.8856723 48.750102,32.6772534 49.7827653,32.6772534 C50.7359931,32.6772534 51.4509139,33.3215948 52.0069634,34.0473151 C52.484696,34.6927713 52.8024386,34.934678 53.1996168,34.934678 C54.0734089,34.934678 54.6294584,33.9670511 54.7480525,32.0317971 C54.947201,29.2894442 54.9863594,25.8224858 54.947201,22.9184901 L54.8677653,14.9756996 C54.8677653,13.2823524 54.4705871,12.8788029 52.8818743,12.2344614 L52.484696,12.0728187 C52.3247059,11.9914399 52.2452703,11.9111759 52.2452703,11.7506479 L52.2452703,11.3470984 C52.2452703,11.1854557 52.3247059,11.1051917 52.5641317,11.0249277 C53.1201812,10.8231529 56.6399634,9.25020172 57.1971317,8.84665222 C57.6737455,8.60474548 57.9914881,8.60474548 58.229795,8.60474548 C58.5475376,8.60474548 58.6269733,8.84665222 58.5475376,9.25020172 C58.468102,9.65375122 58.3886663,12.4763681 58.3886663,16.1451013 L58.3886663,21.1448789 Z" id="Fill-205" fill="#313131"></path>
                    <path d="M55.3366594,5.50153902 C53.9918475,5.50153902 52.5676,4.61863515 52.5676,2.93197661 C52.5676,1.84729799 53.6349465,0.40143142 55.5738475,0.40143142 C56.8403426,0.40143142 58.1851545,1.32558207 58.1851545,2.93197661 C58.1851545,4.21620043 57.1569663,5.50153902 55.3366594,5.50153902" id="Fill-207" fill="#363636"></path>
                </g>
            </g>
        </g>
    </g>
</svg>