<?xml version="1.0" encoding="UTF-8"?>
<svg width="330px" height="83px" viewBox="0 0 330 83" version="1.1" xmlns="http://www.w3.org/2000/svg" xmlns:xlink="http://www.w3.org/1999/xlink">
    <!-- Generator: Sketch 56.3 (81716) - https://sketch.com -->
    <title>Logos</title>
    <desc>Created with Sketch.</desc>
    <g id="Mobile" stroke="none" stroke-width="1" fill="none" fill-rule="evenodd" opacity="0.397367932">
        <g id="Homepage-/-Mobile" transform="translate(-24.000000, -1150.000000)">
            <g id="Best-practices" transform="translate(0.000000, 664.000000)">
                <g id="Logos" transform="translate(23.000000, 474.000000)">
                    <g id="Google" transform="translate(0.666667, 0.000000)">
                        <rect id="Bound" stroke="#979797" fill="#D8D8D8" opacity="0" x="0.5" y="0.5" width="95.6666667" height="53.6666667"></rect>
                        <g transform="translate(0.000000, 14.000000)" fill="#111111">
                            <path d="M34.1772152,14.4035356 C34.1772152,18.2406137 31.184904,21.0680925 27.5126582,21.0680925 C23.8404125,21.0680925 20.8481013,18.2406137 20.8481013,14.4035356 C20.8481013,10.5394146 23.8404125,7.73897861 27.5126582,7.73897861 C31.184904,7.73897861 34.1772152,10.5394146 34.1772152,14.4035356 Z M31.2597867,14.4035356 C31.2597867,12.0057374 29.5255042,10.3651386 27.5126582,10.3651386 C25.4998123,10.3651386 23.7655298,12.0057374 23.7655298,14.4035356 C23.7655298,16.7772957 25.4998123,18.4419326 27.5126582,18.4419326 C29.5255042,18.4419326 31.2597867,16.774291 31.2597867,14.4035356 Z" id="Shape" fill-rule="nonzero"></path>
                            <path d="M48.5316456,14.4035356 C48.5316456,18.2406137 45.5393344,21.0680925 41.8670886,21.0680925 C38.1948428,21.0680925 35.2025316,18.2406137 35.2025316,14.4035356 C35.2025316,10.5424194 38.1948428,7.73897861 41.8670886,7.73897861 C45.5393344,7.73897861 48.5316456,10.5394146 48.5316456,14.4035356 Z M45.614217,14.4035356 C45.614217,12.0057374 43.8799346,10.3651386 41.8670886,10.3651386 C39.8542426,10.3651386 38.1199602,12.0057374 38.1199602,14.4035356 C38.1199602,16.7772957 39.8542426,18.4419326 41.8670886,18.4419326 C43.8799346,18.4419326 45.614217,16.774291 45.614217,14.4035356 Z" id="Shape" fill-rule="nonzero"></path>
                            <path d="M61.8607595,7.12008528 L61.8607595,19.1975245 C61.8607595,24.1655922 59.0654941,26.1946748 55.7609464,26.1946748 C52.6502733,26.1946748 50.7780821,24.0139418 50.0720316,22.2305329 L52.5258464,21.1598809 C52.9627874,22.254797 54.0334377,23.5468585 55.7580528,23.5468585 C57.8733105,23.5468585 59.1841338,22.1789718 59.1841338,19.6039477 L59.1841338,18.636418 L59.0857497,18.636418 C58.4549341,19.4522972 57.2396013,20.1650542 55.7059671,20.1650542 C52.4969099,20.1650542 49.556962,17.2351681 49.556962,13.4651388 C49.556962,9.66781229 52.4969099,6.71366216 55.7059671,6.71366216 C57.2367077,6.71366216 58.4520404,7.42641912 59.0857497,8.2180343 L59.1841338,8.2180343 L59.1841338,7.12311828 L61.8607595,7.12311828 L61.8607595,7.12008528 Z M59.3837956,13.4651388 C59.3837956,11.0963592 57.8762042,9.36451146 55.9577146,9.36451146 C54.0131822,9.36451146 52.3840575,11.0963592 52.3840575,13.4651388 C52.3840575,15.8096542 54.0131822,17.5172379 55.9577146,17.5172379 C57.8762042,17.5172379 59.3837956,15.8096542 59.3837956,13.4651388 Z" id="Shape" fill-rule="nonzero"></path>
                            <polygon id="Path" points="66.9873418 0.561763422 66.9873418 20.0427761 63.9113924 20.0427761 63.9113924 0.561763422"></polygon>
                            <path d="M77.9164483,16.6000149 L80.1901395,18.1144138 C79.4563027,19.199132 77.6878761,21.0680925 74.6322276,21.0680925 C70.8427422,21.0680925 68.0126582,18.1414566 68.0126582,14.4035356 C68.0126582,10.4402576 70.8668024,7.73897861 74.304407,7.73897861 C77.7660719,7.73897861 79.4593102,10.4913385 80.0126954,11.9786945 L80.3164557,12.735894 L71.3991349,16.4257388 C72.0818438,17.7628569 73.1435012,18.4449373 74.6322276,18.4449373 C76.1239615,18.4449373 77.1585512,17.711776 77.9164483,16.6000149 Z M70.9179304,14.2022167 L76.8788511,11.7292995 C76.5510305,10.896981 75.5645613,10.3170624 74.4036554,10.3170624 C72.914929,10.3170624 70.8427422,11.6301424 70.9179304,14.2022167 L70.9179304,14.2022167 Z" id="Shape" fill-rule="nonzero"></path>
                            <path d="M10.4814201,12.750049 L10.4814201,9.94858916 L19.686351,9.94858916 C19.7763392,10.4368351 19.8227848,11.0143943 19.8227848,11.6395873 C19.8227848,13.7414265 19.2625352,16.3404429 17.4569637,18.1922049 C15.7007407,20.0677838 13.4568392,21.0680925 10.4843229,21.0680925 C4.9747175,21.0680925 0.341772152,16.4654815 0.341772152,10.814928 C0.341772152,5.16437446 4.9747175,0.561763422 10.4843229,0.561763422 C13.5323133,0.561763422 15.7036436,1.78833247 17.3350441,3.38704018 L15.4075531,5.36384078 C14.2377053,4.23849345 12.6527503,3.36322331 10.4814201,3.36322331 C6.4580728,3.36322331 3.31138561,6.68865444 3.31138561,10.814928 C3.31138561,14.9412015 6.4580728,18.2666326 10.4814201,18.2666326 C13.0910804,18.2666326 14.5773385,17.1918962 15.5294727,16.2154043 C16.3016302,15.4234932 16.8096286,14.2921917 17.0099251,12.7470719 L10.4814201,12.750049 Z" id="Path"></path>
                        </g>
                    </g>
                    <g id="P&amp;G" transform="translate(105.000000, 0.000000)">
                        <rect id="Bound" stroke="#979797" fill="#D8D8D8" opacity="0" x="0.5" y="0.5" width="95.6666667" height="53.6666667"></rect>
                        <g transform="translate(29.000000, 27.547893) scale(1, -1) translate(-29.000000, -27.547893) translate(0.000000, 14.881226)" fill="#111111">
                            <g id="g52208" transform="translate(0.053695, 1.003900)" fill-rule="nonzero">
                                <path d="M15.8013576,22.0816622 C16.965487,22.0816622 20.1881854,21.9280507 18.1005132,15.9074375 C15.9352325,9.59112199 11.1089458,10.8862595 11.1089458,10.8862595 L14.6595406,22.0816622 L15.8013576,22.0816622 Z M24.438228,15.5080474 C27.1525898,22.1325461 22.0537028,23.9451625 18.7466051,23.9451625 L7.79311713,23.9451625 C8.7011381,23.3201555 8.54980127,22.4916131 8.38003239,21.999096 L1.98993185,1.78285421 C1.73770381,0.970633066 0.769536154,0.149771274 0.264109954,0.00192014454 L9.13962686,0.00192014454 C8.63808109,0.0988874439 7.94833439,0.788219335 8.2083233,1.71756929 L10.525911,9.03139986 C10.525911,9.03139986 21.1990378,7.60377239 24.438228,15.5080474 L24.438228,15.5080474 Z" id="path52210"></path>
                            </g>
                            <g id="g52212" transform="translate(18.092269, 0.274245)" fill-rule="nonzero">
                                <path d="M9.98071038,3.84028908 C9.63050144,3.62619297 8.24421729,2.9291805 6.94718307,2.81205168 C5.72969769,2.70644373 3.73030537,3.16055792 3.73030537,5.54345729 C3.73030537,7.60281232 5.98774639,9.07172289 7.18291928,9.60360293 C7.72423947,7.6277742 8.80299942,5.37928494 9.98071038,3.84028908 M13.4769791,16.7148582 C13.1810962,14.7812727 10.6714272,12.8352062 10.0534685,12.5865475 C9.94093596,13.6675889 9.98071038,15.3822779 10.8887313,16.7715025 C11.5163911,17.694132 12.3109095,18.0954422 12.9531209,17.8717453 C13.4769791,17.694132 13.5400362,17.2284969 13.4769791,16.7148582 M13.4769791,0.731575071 L19.4673952,0.731575071 C17.5553126,1.35274183 14.7264781,3.1403964 13.5933921,4.4076918 C14.5140245,5.37928494 15.6296485,6.61873824 15.8391918,9.13412759 L12.7377569,9.13412759 C12.7377569,9.13412759 13.3537754,8.80962316 13.3537754,8.0847686 C13.3537754,7.41175793 13.0792349,6.49776913 12.5553767,5.84684013 C11.6541465,7.1775003 10.6714272,8.69729471 10.3270389,10.9304228 C11.5416139,11.5275878 13.2616152,12.1727563 14.6042445,13.3392441 C15.904189,14.4682891 16.1952214,15.502287 16.2126833,16.1983394 L16.2126833,16.2885862 C16.2126833,17.0086404 15.9429933,17.6672499 15.4016732,18.1885692 C14.5140245,19.0699155 13.0928164,19.4165016 11.6104916,19.1611224 C10.4017372,18.930705 9.39961576,18.3066581 8.90777107,17.8448633 C7.07232698,16.1762577 6.84435164,13.4006888 6.84435164,12.1535549 C6.84435164,11.8751339 6.86569401,11.623595 6.87151466,11.491105 C6.78517505,11.464223 6.57660186,11.3768564 6.57660186,11.3768564 C5.27956764,10.9045009 1.76389672,9.97419083 0.503726597,7.11317546 C0.345599015,6.76082893 0.115683449,5.96396895 0.115683449,5.04325964 C0.115683449,4.26944139 0.272840924,3.39481555 0.783117664,2.58259441 C1.68434788,1.21641157 3.17346346,0.366747608 5.58612173,0.402270282 C8.20056244,0.434912739 10.7849298,2.2091263 11.2302093,2.53171058 C11.6910106,2.10543849 12.8803628,1.0215169 13.4769791,0.731575071" id="path52214"></path>
                            </g>
                            <g id="g52216" transform="translate(34.892209, 0.653938)">
                                <path d="M14.8312497,22.413382 C18.3886353,23.2534453 21.3193312,20.4961177 21.5929016,20.3261849 L22.5892024,23.503064 C21.1932171,23.9226156 11.0138753,27.3404729 3.81664497,19.2048205 C-0.605106698,14.1990037 -1.7149101,3.95791275 3.91462587,1.21498627 C9.92541423,-1.73051546 16.5716232,1.66237995 17.0382451,1.89279729 L19.8001422,10.5248071 C20.0921447,11.5876071 20.7527882,12.2692584 21.9411703,12.6974506 L12.4118007,12.6974506 C13.7951745,12.1156468 13.7030143,11.0845292 13.5807807,10.6611373 L10.8450765,2.00992611 C10.4764355,1.94848149 2.8087029,0.0552189667 7.10046011,13.3339786 C8.0113914,16.1729123 10.6190414,21.3947453 14.8312497,22.413382" id="path52218"></path>
                            </g>
                        </g>
                    </g>
                    <g id="Zelle" transform="translate(185.000000, 0.000000)">
                        <rect id="Bound" stroke="#979797" fill="#D8D8D8" opacity="0" x="0.5" y="0.5" width="95.6666667" height="53.6666667"></rect>
                        <g transform="translate(0.000000, 14.452107)">
                            <path d="M2.18553957,3.59995539 L5.86825543,3.59995539 L5.86825543,1.81489537 C5.86825543,0.812556332 6.68081177,1.84126693e-16 7.6831508,0 C8.68548983,-1.84126693e-16 9.49804616,0.812556332 9.49804616,1.81489537 L9.49804616,3.59995539 L12.1488043,3.59995539 C13.7557552,3.59995539 15.0584463,4.90264647 15.0584463,6.50959737 L15.0584463,6.50959737 L5.44308377,18.7663977 C10.602658,18.7653684 13.2150759,18.7653684 13.2803373,18.7663977 C13.3782294,18.7679415 13.509417,18.8881776 13.54677,18.971223 C13.7329949,19.385249 13.9842447,19.8432402 14.252406,20.2689969 C14.7282887,21.0245506 15.3550633,21.6220107 15.4055559,21.7465529 C15.4560485,21.871095 15.4577843,22.01134 15.4178794,22.1169649 C15.3912762,22.1873815 15.3091123,22.270544 15.1713877,22.3664524 L9.49804616,22.3664524 L9.49804616,24.1517713 C9.49804616,25.1541103 8.68548983,25.9666667 7.6831508,25.9666667 C6.68081177,25.9666667 5.86825543,25.1541103 5.86825543,24.1517713 L5.86825543,22.3664524 L3.03623962,22.3664524 C1.35937078,22.3664524 2.05357206e-16,21.0070816 0,19.3302127 L0,19.3302127 L9.59774682,7.20096739 L2.18553957,7.20096739 C1.19114756,7.20096739 0.385033569,6.39485339 0.385033569,5.40046139 C0.385033569,4.40606938 1.19114756,3.59995539 2.18553957,3.59995539 Z" id="Rectangle" fill="#111111"></path>
                            <path d="M22.2428079,22.6350943 C20.0224341,22.6350943 17.9143822,21.7228559 16.5396239,20.2430396 C15.2759388,18.8827847 14.6537287,17.0437592 14.6537287,14.9753715 C14.6537287,13.6883951 14.9677967,12.2100035 15.4955016,11.1139896 C16.738564,8.53221804 19.2513773,7.05509434 22.2428079,7.05509434 C24.8112223,7.05509434 26.7847725,8.08647287 28.1178457,9.75382052 C28.7334287,10.523764 29.148392,11.3973781 29.3822741,12.4416595 C29.4351101,12.6775717 29.5152764,13.0911166 29.5592246,13.5017107 C29.5984213,13.8679125 29.6044924,14.2311702 29.6044924,14.4733466 C29.6044924,14.6512263 29.6044924,15.0261031 29.6044924,15.5979771 C29.6044924,15.8295791 29.4167419,16.0173295 29.1851399,16.0173295 L29.0771019,16.0173295 L18.7642314,16.0173295 C18.8469901,16.4831278 18.9266035,16.811884 19.0030713,17.0035984 C19.3164098,17.7891763 19.7785627,18.1529648 20.1174158,18.3821874 C20.215609,18.4486117 20.2404313,18.4625093 20.2942695,18.494364 C20.5575112,18.6501172 20.6798272,18.7156986 20.7701467,18.748221 C21.4559614,18.9951703 22.5120645,19.1782916 23.2029337,19.0459396 C23.7936828,18.9327679 24.6211477,18.8182598 25.246733,18.494364 C25.5469592,18.3389223 25.8597974,18.108035 26.105824,17.8927272 C26.2513689,17.765355 26.3591725,17.6659353 26.4772061,17.5629922 C26.5952397,17.460049 26.7071479,17.4105546 26.7952742,17.4159119 C26.9706133,17.4265708 27.0962334,17.5495567 27.1728643,17.63814 C27.5150221,18.0336653 27.4360408,17.9545027 27.8535835,18.3821874 C28.2711262,18.8098721 28.7581592,19.1669623 29.0010269,19.3528975 C29.3693597,19.6348866 29.1131843,19.868476 29.0390696,19.9685792 C28.801746,20.2891208 28.4293271,20.5607683 28.1178457,20.8164774 C27.1650258,21.5986899 25.8591383,22.1757291 24.5661276,22.4388567 C23.7748861,22.5998743 23.0399939,22.6350943 22.2428079,22.6350943 Z M25.7029475,13.0325359 C25.6144849,12.549989 25.4350176,12.091185 25.1645456,11.6561237 C24.9474782,11.3069653 24.4450219,10.8200495 23.8154931,10.5518802 C23.2684059,10.3188297 22.6246118,10.2797115 22.3008219,10.2797115 C21.6044496,10.2797115 21.1617465,10.3743922 20.6870104,10.5858044 C19.9868997,10.8975818 19.4943746,11.4137885 19.1811441,11.9812064 C19.0562066,12.2075311 18.9357847,12.5579743 18.8198784,13.0325359 L25.7029475,13.0325359 Z" id="Combined-Shape" fill="#111111"></path>
                            <path d="M53.2334638,22.6350943 C51.01309,22.6350943 48.9050381,21.7228559 47.5302798,20.2430396 C46.2665947,18.8827847 45.6443845,17.0437592 45.6443845,14.9753715 C45.6443845,13.6883951 45.9584525,12.2100035 46.4861575,11.1139896 C47.7292199,8.53221804 50.2420332,7.05509434 53.2334638,7.05509434 C55.8018782,7.05509434 57.7754284,8.08647287 59.1085015,9.75382052 C59.7240846,10.523764 60.1390479,11.3973781 60.37293,12.4416595 C60.425766,12.6775717 60.5059323,13.0911166 60.5498805,13.5017107 C60.5890772,13.8679125 60.5951482,14.2311702 60.5951482,14.4733466 C60.5951482,14.6512263 60.5951482,15.0261031 60.5951482,15.5979771 C60.5951482,15.8295791 60.4073978,16.0173295 60.1757958,16.0173295 L60.0677577,16.0173295 L49.7548873,16.0173295 C49.837646,16.4831278 49.9172593,16.811884 49.9937272,17.0035984 C50.3070657,17.7891763 50.7692186,18.1529648 51.1080717,18.3821874 C51.2062648,18.4486117 51.2310872,18.4625093 51.2849254,18.494364 C51.548167,18.6501172 51.6704831,18.7156986 51.7608025,18.748221 C52.4466173,18.9951703 53.5027204,19.1782916 54.1935896,19.0459396 C54.7843387,18.9327679 55.6118036,18.8182598 56.2373889,18.494364 C56.5376151,18.3389223 56.8504533,18.108035 57.0964799,17.8927272 C57.2420248,17.765355 57.3498284,17.6659353 57.467862,17.5629922 C57.5858956,17.460049 57.6978038,17.4105546 57.7859301,17.4159119 C57.9612692,17.4265708 58.0868893,17.5495567 58.1635202,17.63814 C58.505678,18.0336653 58.4266967,17.9545027 58.8442394,18.3821874 C59.2617821,18.8098721 59.7488151,19.1669623 59.9916828,19.3528975 C60.3600156,19.6348866 60.1038402,19.868476 60.0297255,19.9685792 C59.7924019,20.2891208 59.4199829,20.5607683 59.1085015,20.8164774 C58.1556816,21.5986899 56.8497942,22.1757291 55.5567835,22.4388567 C54.7655419,22.5998743 54.0306498,22.6350943 53.2334638,22.6350943 Z M56.6936033,13.0325359 C56.6051408,12.549989 56.4256735,12.091185 56.1552014,11.6561237 C55.938134,11.3069653 55.4356778,10.8200495 54.806149,10.5518802 C54.2590618,10.3188297 53.6152677,10.2797115 53.2914778,10.2797115 C52.5951055,10.2797115 52.1524024,10.3743922 51.6776663,10.5858044 C50.9775555,10.8975818 50.4850304,11.4137885 50.1718,11.9812064 C50.0468625,12.2075311 49.9264406,12.5579743 49.8105343,13.0325359 L56.6936033,13.0325359 Z" id="Combined-Shape" fill="#111111"></path>
                            <path d="M33.2077888,1.76377358 C34.2682295,1.76377358 35.1278866,2.62343067 35.1278866,3.68387141 L35.1278866,18.1720456 C35.1390558,18.5883219 35.2794968,18.8585198 35.5492096,18.9826393 C35.6657701,19.0362794 35.7554249,19.072494 35.966489,19.0573674 C36.0602941,19.0506445 36.2107344,19.0389037 36.4027744,19.0107715 C36.502147,18.9962142 36.665437,18.9733838 36.7965093,19.0375727 C36.9187375,19.0974304 36.9920004,19.2415018 37.0215774,19.3366936 C37.0345217,19.378354 37.0836893,19.607098 37.1347085,19.9608006 C37.1857277,20.3145033 37.248534,20.5053669 37.3421381,20.771858 C37.3888892,20.9049585 37.4822959,21.1245281 37.6223581,21.4305668 C37.6881025,21.5298552 37.7455068,21.6408585 37.794571,21.7635766 C37.8272681,21.8453576 37.8543124,22.0637204 37.7349646,22.2274367 C37.6951367,22.282071 37.5928892,22.3424164 37.4282222,22.4084728 C37.2692317,22.4583911 37.0179197,22.5084677 36.674286,22.5587026 C36.5890645,22.5711609 36.3091748,22.6041935 35.9916008,22.6199194 C35.6614815,22.6362664 35.2904823,22.6350943 35.0465384,22.6350943 C34.7991493,22.6350943 34.2504729,22.5728936 33.6618639,22.3664849 C33.1117066,22.1735601 32.5245187,21.8695455 31.9611009,21.1968077 C31.7459317,20.9398892 31.4543989,20.1332963 31.4076853,19.8824188 C31.3552376,19.6007466 31.3152395,19.1080474 31.2876909,18.4043212 L31.2876909,3.68387141 C31.2876909,2.62343067 32.147348,1.76377358 33.2077888,1.76377358 Z" id="Rectangle" fill="#111111"></path>
                            <path d="M40.9553038,1.76377358 C42.029333,1.76377358 42.9000056,2.63444625 42.9000056,3.70847542 L42.9000056,18.1720457 C42.911318,18.588322 43.0535585,18.8585198 43.3267273,18.9826393 C43.4447814,19.0362794 43.5355851,19.072494 43.7493537,19.0573674 C43.8443608,19.0506446 43.9967288,19.0389038 44.1912295,19.0107715 C44.2918755,18.9962143 44.4572579,18.9733839 44.5900096,19.0375727 C44.6162122,19.0502424 44.6931691,19.1460044 44.7683587,19.3011626 C44.8795495,19.5306113 45.0014736,19.8824188 45.2469717,20.241689 C45.5982059,20.755697 46.2419005,21.4606849 46.1255763,21.7764426 C45.9250261,22.320828 44.729981,22.520632 44.4662203,22.5587026 C44.3799067,22.5711609 44.0964306,22.6041935 43.7747873,22.6199194 C43.4404379,22.6362664 43.0646848,22.6350943 42.8176151,22.6350943 C42.567056,22.6350943 42.011349,22.5728936 41.4151977,22.3664849 C40.8579909,22.1735601 40.2632789,21.8695455 39.6926415,21.1968077 C39.4747152,20.9398892 39.1794468,20.1332963 39.1321346,19.8824188 C39.0790149,19.6007467 39.038504,19.1080475 39.010602,18.4043213 L39.010602,3.70847542 C39.010602,2.63444625 39.8812746,1.76377358 40.9553038,1.76377358 Z" id="Rectangle" fill="#111111"></path>
                            <ellipse id="Oval" stroke="#111111" stroke-width="0.5" cx="62.3278527" cy="5.34031447" rx="1.63369272" ry="1.61679245"></ellipse>
                            <path d="M62.0985223,5.21329373 L62.7245766,5.21329373 C62.879529,5.21141194 62.9957415,5.17754008 63.0732177,5.11167715 C63.1494442,5.05051871 63.187557,4.97524792 63.187557,4.88586252 C63.1850577,4.77860003 63.1394474,4.70097702 63.0507247,4.65299117 C62.9807462,4.61065072 62.8795289,4.58948081 62.7470696,4.58948081 L62.0985223,4.58948081 L62.0985223,5.21329373 Z M61.6842767,4.31144654 L62.7508184,4.31144654 C62.9782485,4.31144654 63.1638137,4.35660902 63.3075195,4.44693532 C63.4812161,4.54949331 63.5718118,4.69580091 63.5793095,4.88586252 C63.5743111,5.16530952 63.3981179,5.35536827 63.0507247,5.45604447 L63.6842767,6.36918239 L63.1913058,6.36918239 L62.6271071,5.48991666 L62.0985223,5.48991666 L62.0985223,6.36918239 L61.6842767,6.36918239 L61.6842767,4.31144654 Z" id="R" fill="#111111" fill-rule="nonzero"></path>
                        </g>
                    </g>
                    <g id="Nike" transform="translate(273.000000, 0.000000)">
                        <rect id="Bound" stroke="#979797" fill="#D8D8D8" opacity="0" x="0.5" y="0.5" width="64" height="53.6666667"></rect>
                        <path d="M32.6516102,26 C32,20.1896512 32,20.1896512 32,18.8380598 C36.6810662,13.1252429 36.6810662,13.1252429 37,13 C35.5505367,17.3332428 34.1008142,21.6664855 32.6516102,26 Z M19,28 C20.7431835,22.661601 22.5004606,17.3234888 24.2582903,12 C25.5051584,12 26.7525792,12 28,12 C26.1855195,17.2793319 24.385409,22.5586638 22.5858511,27.8379957 C21.3809875,27.8821526 20.1904937,27.940933 19,28 Z M8,28 C9.80114626,22.6664773 11.6022925,17.3332386 13.4034388,12 C14.7289431,12 16.0547283,12 17.3945609,12 C17.4234983,13.9379906 17.4521549,15.8762652 17.4810923,17.8139717 C18.1584537,15.9052456 18.8355341,14.0110097 19.5126145,12.1164897 C20.6656178,12.072735 21.8326684,12.0292645 23,12 C21.2564477,17.3332386 19.5272237,22.6664773 17.7982806,28 C16.4578862,28 15.1180536,28 13.7925493,28 C13.7492836,26.1199702 13.7060179,24.2402245 13.6773614,22.3749689 C12.0779345,26.790212 12.0779345,26.790212 11.7894027,28 C10.5217733,28 9.25358206,28 8,28 Z M7.31974676,22.0902982 C7.43406542,22.1192062 7.54894174,22.1481142 7.66326041,22.1767415 C5.11785771,27.862638 5.28933571,33.4904378 12.6826864,33.4904378 C25.1952827,30.2808069 25.1952827,30.2808069 33.7039374,27.8909847 C32.130801,27.862638 30.5579435,27.8334494 28.9990272,27.8051027 C28.7558909,26.1494877 28.5130334,24.4941534 28.2841173,22.8388191 C27.683526,24.4509317 27.082656,26.0630443 26.4820647,27.675157 C25.266941,27.7183786 24.0512595,27.7616003 22.8358569,27.8051027 C24.5944126,22.5651754 26.3535259,17.340123 28.1126393,12.1150707 C29.3707023,12.1293844 30.6293229,12.1439787 31.8879436,12.1726061 C30.8582391,15.2963549 30.8582391,15.2963549 30.9725577,15.468961 C31.9163838,14.3749472 32.8747088,13.2809335 33.8324762,12.1872004 C37.4505226,12.1150707 41.068569,12.0575354 44.6863365,12 C44.41476,12.9354407 44.1574036,13.871162 43.9000472,14.8068834 C42.5987662,14.8787324 41.2974851,14.9508621 40.0101454,15.0227112 C39.2093571,17.4122527 39.2093571,17.4122527 39.1664179,17.9449459 C40.3107199,18.016795 41.454743,18.088644 42.6127075,18.1750873 C42.2697515,19.1397167 41.9267955,20.1037848 41.5832818,21.0684141 C40.32494,21.1834848 39.0665982,21.2985555 37.8224765,21.4136262 C37.4650215,22.4933263 37.1072878,23.5730264 36.7640529,24.6670401 C37.9512941,24.7102618 39.1382565,24.7532028 40.32494,24.7964245 C40.1961224,25.214047 40.0675836,25.6457025 39.9390448,26.0776387 C40.1819022,26.0776387 40.4250385,26.0776387 40.6823949,26.0919524 C46.4457287,24.5516888 52.2224461,23.0260195 58,21.5003503 C43.3708354,27.8909847 28.7416708,34.2824611 14.1125062,40.6876899 C-3.2212708,46.4227019 -3.47723308,32.0992049 7.31974676,22.0902982 L7.31974676,22.0902982 Z" id="Fill-74" fill="#111111"></path>
                    </g>
                    <g id="Target" transform="translate(1.000000, 54.000000)">
                        <rect id="Bound" stroke="#979797" fill="#D8D8D8" opacity="0" x="0.5" y="0.5" width="95.6666667" height="53.6666667"></rect>
                        <g transform="translate(0.000000, 18.850575)" fill="#111111">
                            <path d="M0.181042857,8.4128613 C0.181042857,3.84758261 3.9206559,0.147332609 8.53399752,0.147332609 C13.1466547,0.147332609 16.8869522,3.84758261 16.8869522,8.4128613 C16.8869522,12.9784787 13.1466547,16.6790674 8.53399752,16.6790674 C3.9206559,16.6790674 0.181042857,12.9784787 0.181042857,8.4128613 Z M8.53399752,13.9034565 C11.5980366,13.9034565 14.0816435,11.4452035 14.0816435,8.4128613 C14.0816435,5.38085783 11.5980366,2.92328217 8.53399752,2.92328217 C5.47030062,2.92328217 2.98669379,5.38085783 2.98669379,8.4128613 C2.98669379,11.4452035 5.47030062,13.9034565 8.53399752,13.9034565 Z M8.53399752,11.2115035 C10.1250528,11.2115035 11.4149404,9.93428217 11.4149404,8.36036348 C11.4149404,6.78576739 10.1250528,5.50922348 8.53399752,5.50922348 C6.94362671,5.50922348 5.65373913,6.78576739 5.65373913,8.36036348 C5.65373913,9.93428217 6.94362671,11.2115035 8.53399752,11.2115035 L8.53399752,11.2115035 Z" id="Fill-1"></path>
                            <polyline id="Fill-2" points="19.5998571 2.48026826 29.1170988 2.48026826 29.1170988 4.85689565 25.8436112 4.85689565 25.8436112 14.3813561 22.9352894 14.3813561 22.9352894 4.87484652 19.5998571 4.87484652 19.5998571 2.48026826"></polyline>
                            <path d="M38.0077062,2.48026826 C38.0077062,2.48026826 40.1959634,2.48026826 43.6559696,2.48026826 C46.866828,2.48026826 47.3113925,4.65469435 47.3113925,5.92175478 C47.3113925,7.76188826 45.7104124,8.6861887 45.5680422,8.72141304 C45.5680422,8.72141304 46.9739478,9.24063348 46.9739478,10.8165843 L46.9739478,13.0347022 C46.9739478,13.924117 47.5252901,14.1703487 47.6228273,14.3813561 L45.3281348,14.3813561 C44.2340062,14.2587483 44.2521447,13.3960904 44.2607006,12.9026109 L44.2607006,10.9927061 C44.2340062,10.5263222 44.091636,10.0060857 43.1042851,9.98881217 L40.7828981,9.98881217 L40.7828981,14.3813561 L37.9988081,14.3813561 L38.0077062,2.48026826 Z M43.4513124,4.87484652 L40.7828981,4.87484652 L40.7828981,7.25079652 C40.7828981,7.25079652 42.8643776,7.25824783 43.1758124,7.25079652 C44.0122373,7.23386174 44.6583789,6.86434478 44.6583789,6.05384609 C44.6583789,5.1722213 44.1097745,4.87484652 43.4513124,4.87484652 L43.4513124,4.87484652 Z" id="Fill-3"></path>
                            <polyline id="Fill-4" points="59.5870565 2.48026826 59.5870565 14.3813561 68.250077 14.3813561 68.250077 11.9346187 62.415295 11.9346187 62.415295 9.27551913 67.3965404 9.27551913 67.3965404 7.02251565 62.415295 7.02251565 62.415295 4.87484652 68.250077 4.87484652 68.250077 2.48026826 59.5870565 2.48026826"></polyline>
                            <polyline id="Fill-5" points="68.6597335 4.87484652 72.0933876 4.87484652 72.0933876 14.3813561 74.9390801 14.3813561 74.9390801 4.87484652 78.4254385 4.87484652 78.4254385 2.48026826 68.6597335 2.48026826 68.6597335 4.87484652"></polyline>
                            <path d="M30.5110261,2.47789739 L33.597995,2.47789739 L37.8030491,14.3813561 L34.811564,14.3813561 L33.9429689,11.9078617 L30.3936391,11.9078617 L29.5743261,14.3813561 L26.607482,14.3813561 L30.5110261,2.47789739 Z M32.1233,6.67941696 L31.1003565,9.75138652 L33.2088727,9.75138652 L32.1233,6.67941696 L32.1233,6.67941696 Z" id="Fill-6"></path>
                            <path d="M58.5904652,7.7358087 L53.4230435,7.7358087 L53.4230435,10.0504548 L55.877218,10.0504548 C55.8727689,10.5266609 55.9487453,11.0021896 55.3720776,11.6711135 C55.1756342,11.8990557 54.5031404,12.4098087 53.5647292,12.4098087 C52.7731373,12.4098087 52.204341,12.1859309 51.7104944,11.7710287 C50.619446,10.8541796 50.3627689,9.14139565 50.3627689,8.24588435 C50.3627689,7.11904391 50.8158894,4.32040174 53.5999795,4.20558391 C53.5999795,4.20558391 55.4778286,4.08568565 55.9668839,6.32683478 L58.5723267,6.32683478 C58.5196224,5.19084957 57.1849019,2.00101391 53.5999795,1.99626637 C52.3627963,1.9945787 50.7926174,2.36307957 49.4924627,3.65147783 C48.5506292,4.58492304 47.7032528,6.15206783 47.7032528,8.36036348 C47.7032528,10.7556191 48.5940932,12.3129417 49.4089571,13.1681483 C50.8395037,14.6706022 52.2806596,14.7860974 53.0311832,14.7860974 C53.6266739,14.7860974 54.7656354,14.6983752 56.2423839,13.7124322 L56.6332174,14.3813561 L58.5904652,14.3813561 L58.5904652,7.7358087" id="Fill-7"></path>
                            <path d="M76.6146291,12.9198843 C77.1426572,12.9198843 77.6139696,13.3107668 77.6139696,13.9174018 C77.6139696,14.5271965 77.1426572,14.9198843 76.6146291,14.9198843 C76.0857216,14.9198843 75.6139696,14.5271965 75.6139696,13.9174018 C75.6139696,13.3107668 76.0857216,12.9198843 76.6146291,12.9198843 Z M76.6146291,14.7063885 C77.0182342,14.7063885 77.3488564,14.374635 77.3488564,13.9174018 C77.3488564,13.4633283 77.0182342,13.1347343 76.6146291,13.1347343 C76.2048687,13.1347343 75.8795224,13.4633283 75.8795224,13.9174018 C75.8795224,14.374635 76.2048687,14.7063885 76.6146291,14.7063885 Z M76.2264119,13.356806 L76.6379309,13.356806 C76.9109579,13.356806 77.0652775,13.4443709 77.0652775,13.6885596 C77.0652775,13.8939308 76.9399753,13.9733711 76.7786211,13.9878148 L77.0696741,14.4766435 L76.8436904,14.4766435 L76.5785772,13.9981962 L76.4427231,13.9981962 L76.4427231,14.4766435 L76.2264119,14.4766435 L76.2264119,13.356806 Z M76.4427231,13.8244206 L76.6352929,13.8244206 C76.7579573,13.8244206 76.8489663,13.8054632 76.8489663,13.6696022 C76.8489663,13.5486363 76.7245433,13.5301303 76.6247412,13.5301303 L76.4427231,13.5301303 L76.4427231,13.8244206 L76.4427231,13.8244206 Z" id="Fill-8"></path>
                        </g>
                    </g>
                    <g id="UCSF" transform="translate(105.000000, 54.000000)">
                        <rect id="Bound" stroke="#979797" fill="#D8D8D8" opacity="0" x="1.12986691" y="0.5" width="94.7397701" height="53.6666667"></rect>
                        <g transform="translate(0.413913, 14.350000)" fill="#111111" id="Path">
                            <path d="M53.7651911,11.2555054 L53.7651911,8.01937222 L41.4457936,8.01937222 L41.4457936,19.9435939 C41.3794832,18.546617 40.8690126,17.4627326 39.9022846,16.7004467 C39.2338041,16.1735025 38.2301872,15.7522157 36.8909858,15.4374818 L33.8353308,14.7174291 C32.6562303,14.4420929 31.8852972,14.2022743 31.5222328,13.9975257 C31.1885899,13.8163559 30.9544127,13.5798205 30.8177595,13.2891132 L30.8176101,13.2895609 C30.8165647,13.2874716 30.815818,13.2855316 30.8147725,13.2834423 L30.8147725,13.2832931 C30.7239691,13.0845138 30.6718467,12.8526046 30.6718467,12.6033843 C30.6718467,12.0703215 30.8550964,11.6168002 31.2339917,11.2604301 C31.2339917,11.2599824 31.234141,11.2593854 31.234141,11.2593854 C31.2423551,11.2513268 31.250868,11.2438651 31.2590821,11.2364034 L31.2592314,11.2362542 C31.2595301,11.2347619 31.2598288,11.2344634 31.2602769,11.2353588 C31.3430155,11.160145 31.433819,11.0891098 31.5341806,11.0229992 C32.1073773,10.6452887 32.8744274,10.456508 33.8351815,10.456508 C34.6988595,10.456508 35.421404,10.6023094 36.0028148,10.8931659 C36.8748563,11.3340023 37.3429122,12.0776339 37.4075797,13.1240607 L40.90396,13.1240607 C40.8400391,11.2749057 40.1525914,9.86449789 38.8411688,8.8925387 C37.5295968,7.92072874 35.9451665,7.43482375 34.0880272,7.43482375 C31.8637911,7.43482375 30.177655,7.95027701 29.0296188,8.98103429 C28.3238013,9.61497912 27.8360316,10.3487613 27.5640693,11.1816347 L27.5627252,11.1816347 C27.5043302,11.3610136 27.4553442,11.5475557 27.4168124,11.7358887 L27.4165137,11.7358887 C26.9908727,13.742336 25.6978198,15.1051383 23.5361604,15.1051383 C20.0748769,15.1051383 18.7748047,12.1625479 18.7748047,9.24413333 C18.7748047,6.17946973 20.0748769,3.23762548 23.5361604,3.23762548 C25.4493051,3.23762548 27.1187143,4.56117931 27.363794,6.30199061 L31.0943515,6.30199061 C30.6277891,2.25626456 27.3884364,0 23.5363098,0 C18.3639491,0 15.225406,3.68070038 14.9452296,8.5296023 L14.9452296,0.417257471 L11.0917589,0.417257471 L11.0917589,11.3046033 C11.0917589,13.9038069 10.2085163,15.1052875 7.46006961,15.1052875 C4.34333135,15.1052875 3.85257464,13.2171826 3.85257464,11.3046033 L3.85257464,0.417257471 L0,0.417257471 L0,11.3046033 C0,16.0617264 2.74784931,18.3421669 7.46006961,18.3421669 C12.1477969,18.3421669 14.9450803,16.0375506 14.9450803,11.3046033 L14.9450803,9.93956245 C15.2252567,14.6619142 18.3637997,18.3423161 23.5361604,18.3423161 C25.661379,18.3423161 27.4737139,17.6573333 28.810227,16.4369 C28.893115,16.5034582 28.9780939,16.5683749 29.0677025,16.62971 C29.7608254,17.1097948 31.0334176,17.5543621 32.8860765,17.9635609 L34.7711438,18.3767891 C35.874525,18.6128768 36.6802562,18.884333 37.1887853,19.1911575 C37.6965676,19.5058914 37.9507575,19.9507571 37.9507575,20.5250084 C37.9507575,21.5089063 37.4322221,22.1816519 36.395002,22.5433944 C35.8482398,22.7323243 35.1364484,22.82664 34.2600758,22.82664 C32.7967666,22.82664 31.7634294,22.4686284 31.1603632,21.7524557 C30.8309021,21.3590757 30.6095687,20.7651255 30.4971098,19.9703067 L27.0243266,19.9703067 C27.0243266,21.7803625 27.6808593,23.2025598 28.9940741,24.2371971 C30.3075876,25.272133 32.1103643,25.789377 34.4028523,25.789377 C36.6473997,25.789377 38.3844634,25.2640743 39.6143421,24.213469 C40.7453527,23.2473299 41.3548408,22.0525648 41.4457936,20.6303674 L41.4457936,25.5279195 L45.2988163,25.5279195 L45.2988163,18.2935167 L52.6361221,18.2935167 L52.6361221,15.3019776 L45.2988163,15.3019776 L45.2988163,11.2555054 L53.7651911,11.2555054 Z"></path>
                        </g>
                    </g>
                    <g id="Lexus" transform="translate(185.000000, 54.000000)">
                        <rect id="Bound" stroke="#979797" fill="#D8D8D8" opacity="0" x="1.13180828" y="0.5" width="95.0348584" height="53.6666667"></rect>
                        <g transform="translate(0.433240, 19.816667)" fill="#111111" id="path2383">
                            <path d="M10.031569,0.783151264 C10.3401773,0.791661594 10.3073849,1.00769415 10.2563394,1.08217177 C9.34558451,2.49354626 7.19360509,4.9786881 5.62668655,7.70528743 C5.36726677,8.14707867 5.17406831,8.4721056 5.17406831,8.95692362 C5.17406831,9.61421889 5.585988,10.3913444 6.41348867,10.7248287 C6.957851,10.942077 7.30052496,10.9487373 7.88802651,10.9571945 C12.2497698,11.0915608 13.9983721,10.9741622 17.9013952,10.8422273 C18.1268027,10.841593 18.3363964,10.6903121 18.4117444,10.5989197 C19.1663385,9.815134 19.6013397,8.40613816 19.6013397,7.16295933 C19.6013397,4.39402035 17.5994192,1.89983978 14.4765141,0.700269235 L13.9752908,1.34059695 C16.712384,2.46753984 18.1268027,4.71841296 18.1268027,7.12907704 C18.1268027,7.67140513 18.0344219,8.19671286 17.8673295,8.69844563 C17.7434302,9.04831598 17.5909297,9.2492311 17.1473852,9.25589132 C13.9667474,9.32365575 12.165932,9.37328995 8.97680419,9.28977346 C8.56546809,9.28131624 8.43244186,9.13183232 8.36558379,8.80738704 C8.31453823,8.61492915 8.35709401,8.45513804 8.49017326,8.21368042 C10.1816283,5.22865591 13.1283158,1.81690479 13.706744,1.00769415 C13.8166879,0.858210378 13.7650592,0.556811226 13.3877352,0.456961645 C12.2837825,0.131934723 11.0449989,0 9.78912909,0 C4.10290722,0.0229933149 0.0923278356,3.20893308 0,7.16295933 C0.227847899,11.9092816 4.37081692,14.3604881 9.78912909,14.3604881 C13.1046505,14.3604881 16.1418612,13.1929508 17.9190121,11.3415286 L16.2773289,11.4074961 C14.7614557,12.7505249 12.3330235,13.468343 9.82133772,13.468343 C5.24331404,13.468343 1.51587314,11.2005022 1.51587314,7.12907704 C1.51587314,3.62720233 5.24267729,0.774693893 9.82133772,0.774693893 C9.82133772,0.774693893 10.031569,0.783151264 10.031569,0.783151264 Z M47.641225,9.3557409 L50.7379714,7.33004511 L46.0505864,3.85174506 L46.0505864,4.70329537 L39.117039,4.70329537 C38.2123854,4.70329537 37.4680868,5.34425739 37.3332032,6.17884 L45.3713418,6.17038277 L45.3713418,7.68831987 L39.2257624,7.69677725 C38.2548882,7.69677725 37.4595958,8.43156308 37.4170407,9.3557409 L47.641225,9.3557409 Z M77.0863478,4.67787045 L84.1943104,4.67787045 L84.1943104,3.18535812 L77.046286,3.18535812 C74.3729724,3.18535812 72.1887851,5.22014573 72.0794238,7.77183636 L80.6959382,7.76279749 C81.2554766,7.76279749 81.7075107,8.13016408 81.7075107,8.57258963 C81.7075107,9.02289106 81.2548926,9.38180013 80.6959382,9.38180013 L71.2093675,9.38116582 L71.2093675,3.18535812 L68.3957059,3.18535812 L68.3957059,9.34062346 L62.7453536,9.34062346 C61.9159956,9.20625712 61.6559922,8.60647193 61.6559922,7.43835207 L61.6565762,3.18535812 L57.1192508,3.18535812 L53.0400633,5.81993093 L49.490645,3.18535812 L38.5726766,3.18535812 C36.1527338,3.18535812 34.135585,4.84432177 33.6914564,7.05401808 L35.8847711,7.05401808 C35.05727,7.61326091 34.4205282,8.40613816 34.0687265,9.34125776 L27.1266881,9.34062346 C26.3083144,9.20625712 26.0397677,8.60647193 26.0397677,7.43835207 L26.0403517,3.18535812 L23.234597,3.18535812 L23.234597,7.15450211 C23.1167463,9.78304901 24.548144,10.7248287 26.1812839,10.8743125 L47.9923887,10.8736781 L52.011458,8.28810522 L55.5201242,10.9081947 L59.8132048,10.9081947 L54.3475618,6.81314194 L58.8423306,3.91105228 L58.8508215,7.15450211 C58.7354117,9.78304901 60.3077955,10.7248287 61.9415194,10.8743125 L82.3527435,10.8736781 C83.7592553,10.8736781 84.8990788,9.84901629 84.8990788,8.57258963 C84.8990788,7.30398588 83.7586728,6.27932403 82.3527435,6.27932403 L75.3031484,6.27932403 C75.3693689,5.38659705 76.1409959,4.67787045 77.0863478,4.67787045 L77.0863478,4.67787045 Z"></path>
                        </g>
                    </g>
                </g>
            </g>
        </g>
    </g>
</svg>