<?xml version="1.0" encoding="UTF-8"?>
<svg width="1181px" height="50px" viewBox="0 0 1181 50" version="1.1" xmlns="http://www.w3.org/2000/svg" xmlns:xlink="http://www.w3.org/1999/xlink">
    <!-- Generator: Sketch 56.3 (81716) - https://sketch.com -->
    <title>Logos</title>
    <desc>Created with Sketch.</desc>
    <g id="Homepage-desktop" stroke="none" stroke-width="1" fill="none" fill-rule="evenodd" opacity="0.392880394">
        <g id="Homepage/Desktop" transform="translate(-121.000000, -1080.000000)">
            <g id="Best-practices" transform="translate(0.000000, 624.000000)">
                <g id="Logos" transform="translate(107.000000, 438.000000)">
                    <g id="Google">
                        <rect id="Bound" stroke="#979797" fill="#D8D8D8" opacity="0" x="0.5" y="0.5" width="151" height="86"></rect>
                        <g transform="translate(14.114286, 22.837500)" fill="#111111">
                            <path d="M53.0612698,21.6634833 C53.0612698,27.5270417 48.481727,31.8478 42.8615873,31.8478 C37.2414476,31.8478 32.6619048,27.5270417 32.6619048,21.6634833 C32.6619048,15.7586 37.2414476,11.4791667 42.8615873,11.4791667 C48.481727,11.4791667 53.0612698,15.7586 53.0612698,21.6634833 Z M48.5963302,21.6634833 C48.5963302,17.9993333 45.9421206,15.4922833 42.8615873,15.4922833 C39.781054,15.4922833 37.1268444,17.9993333 37.1268444,21.6634833 C37.1268444,25.2909 39.781054,27.8346833 42.8615873,27.8346833 C45.9421206,27.8346833 48.5963302,25.2863083 48.5963302,21.6634833 Z" id="Shape" fill-rule="nonzero"></path>
                            <path d="M75.0650794,21.6634833 C75.0650794,27.5270417 70.4855365,31.8478 64.8653968,31.8478 C59.2452571,31.8478 54.6657143,27.5270417 54.6657143,21.6634833 C54.6657143,15.7631917 59.2452571,11.4791667 64.8653968,11.4791667 C70.4855365,11.4791667 75.0650794,15.7586 75.0650794,21.6634833 Z M70.6001397,21.6634833 C70.6001397,17.9993333 67.9459302,15.4922833 64.8653968,15.4922833 C61.7848635,15.4922833 59.130654,17.9993333 59.130654,21.6634833 C59.130654,25.2909 61.7848635,27.8346833 64.8653968,27.8346833 C67.9459302,27.8346833 70.6001397,25.2863083 70.6001397,21.6634833 Z" id="Shape" fill-rule="nonzero"></path>
                            <path d="M96.1520635,12.09445 L96.1520635,30.3784667 C96.1520635,37.8996167 91.7237968,40.9714417 86.4887238,40.9714417 C81.5607873,40.9714417 78.5948571,37.6700333 77.4763302,34.9701333 L81.3636698,33.349275 C82.055873,35.0068667 83.752,36.9629167 86.4841397,36.9629167 C89.8351365,36.9629167 91.911746,34.892075 91.911746,30.99375 L91.911746,29.5290083 L91.7558857,29.5290083 C90.756546,30.7641667 88.8312127,31.8432083 86.4016254,31.8432083 C81.3178286,31.8432083 76.6603556,27.4076583 76.6603556,21.7002167 C76.6603556,15.95145 81.3178286,11.4791667 86.4016254,11.4791667 C88.8266286,11.4791667 90.7519619,12.5582083 91.7558857,13.7566333 L91.911746,13.7566333 L91.911746,12.0990417 L96.1520635,12.0990417 L96.1520635,12.09445 Z M92.2280508,21.7002167 C92.2280508,18.114125 89.8397206,15.4922833 86.8004444,15.4922833 C83.7199111,15.4922833 81.1390476,18.114125 81.1390476,21.7002167 C81.1390476,25.249575 83.7199111,27.8346833 86.8004444,27.8346833 C89.8397206,27.8346833 92.2280508,25.249575 92.2280508,21.7002167 Z" id="Shape" fill-rule="nonzero"></path>
                            <polygon id="Path" points="103.142857 1.3775 103.142857 31.2233333 98.7879365 31.2233333 98.7879365 1.3775"></polygon>
                            <path d="M120.113295,25.0154 L123.578895,27.3296 C122.460368,28.9871917 119.764902,31.8432083 115.107429,31.8432083 C109.331429,31.8432083 105.017765,27.370925 105.017765,21.6588917 C105.017765,15.6024833 109.368102,11.474575 114.607759,11.474575 C119.884089,11.474575 122.464952,15.6805417 123.308432,17.9534167 L123.771429,19.1105167 L110.179492,24.7490833 C111.220089,26.792375 112.838286,27.8346833 115.107429,27.8346833 C117.381156,27.8346833 118.958095,26.7143167 120.113295,25.0154 Z M109.446032,21.35125 L118.531771,17.5723083 C118.032102,16.3004167 116.528508,15.414225 114.759035,15.414225 C112.489892,15.414225 109.331429,17.4207833 109.446032,21.35125 L109.446032,21.35125 Z" id="Shape" fill-rule="nonzero"></path>
                            <path d="M16.1773841,19.0140917 L16.1773841,14.6933333 L30.7136508,14.6933333 C30.8557587,15.4463667 30.9291048,16.33715 30.9291048,17.3014 C30.9291048,20.5431167 30.0443683,24.5516417 27.1930413,27.4076583 C24.4196444,30.3004083 20.8761143,31.8432083 16.1819683,31.8432083 C7.48129524,31.8432083 0.165028571,24.7444917 0.165028571,16.0295083 C0.165028571,7.314525 7.48129524,0.215808333 16.1819683,0.215808333 C20.9953016,0.215808333 24.4242286,2.107575 27.0005079,4.5733 L23.9566476,7.62216667 C22.1092444,5.88651667 19.6063111,4.53656667 16.1773841,4.53656667 C9.82378413,4.53656667 4.85459048,9.66545833 4.85459048,16.0295083 C4.85459048,22.3935583 9.82378413,27.52245 16.1773841,27.52245 C20.2985143,27.52245 22.6455873,25.8648583 24.149181,24.3587917 C25.3685587,23.1374083 26.170781,21.392575 26.4870857,19.0095 L16.1773841,19.0140917 Z" id="Path"></path>
                        </g>
                    </g>
                    <g id="P&amp;G" transform="translate(175.000000, 0.000000)">
                        <rect id="Bound" stroke="#979797" fill="#D8D8D8" opacity="0" x="0.5" y="0.5" width="151" height="86"></rect>
                        <g transform="translate(76.985714, 43.162500) scale(1, -1) translate(-76.985714, -43.162500) translate(31.485714, 22.162500)" fill="#111111">
                            <g id="g52208" transform="translate(0.084431, 1.597669)" fill-rule="nonzero">
                                <path d="M24.8462726,35.1421576 C26.6767658,35.1421576 31.7441812,34.8976904 28.4614967,25.3161047 C25.0567794,15.2639198 17.4678597,17.3250837 17.4678597,17.3250837 L23.0508639,35.1421576 L24.8462726,35.1421576 Z M38.4270067,24.6804901 C42.6951067,35.2231373 34.6775465,38.1078501 29.4774204,38.1078501 L12.2540049,38.1078501 C13.6817896,37.1131743 13.4438254,35.7945794 13.1768785,35.0107565 L3.12899629,2.83734725 C2.73238944,1.54472701 1.21002926,0.238355504 0.415290134,0.00305583979 L14.3712753,0.00305583979 C13.5826378,0.157375749 12.4980706,1.25442223 12.9068808,2.73344869 L16.5510876,14.3731425 C16.5510876,14.3731425 33.3336594,12.1011256 38.4270067,24.6804901 L38.4270067,24.6804901 Z" id="path52210"></path>
                            </g>
                            <g id="g52212" transform="translate(28.448534, 0.436450)" fill-rule="nonzero">
                                <path d="M15.6938067,6.11167958 C15.1431333,5.77095344 12.963321,4.6616836 10.9238465,4.47527737 C9.00945568,4.30720618 5.86558362,5.02991229 5.86558362,8.82220947 C5.86558362,12.0995976 9.41521501,14.4373151 11.2945214,15.2837827 C12.1457007,12.1393236 13.8419577,8.56093517 15.6938067,6.11167958 M21.1913879,26.6010854 C20.7261375,23.5238547 16.7798993,20.4267611 15.8082125,20.0310298 C15.6312648,21.7514676 15.6938067,24.4803326 17.1215914,26.6912326 C18.1085323,28.1595637 19.3578439,28.7982342 20.367666,28.4422288 C21.1913879,28.1595637 21.2905396,27.4185225 21.1913879,26.6010854 M21.1913879,1.16427496 L30.6108008,1.16427496 C27.6042157,2.15283913 23.1561173,4.99782598 21.3744372,7.01468024 C22.8220522,8.56093517 24.5762749,10.5334798 24.9057637,14.5366299 L20.0290247,14.5366299 C20.0290247,14.5366299 20.9976607,14.020193 20.9976607,12.8666134 C20.9976607,11.7955416 20.5659694,10.3409618 19.7422474,9.30503216 C18.3251406,11.4227291 16.7798993,13.8414263 16.2383784,17.395368 C18.148193,18.3457342 20.8527467,19.3724963 22.9639155,21.228919 C25.0079662,23.0257528 25.4655895,24.6713225 25.4930469,25.7790645 L25.4930469,25.9226889 C25.4930469,27.0686289 25.0689826,28.1167819 24.2178033,28.9464424 C22.8220522,30.3490729 20.5873251,30.900652 18.2564971,30.4942253 C16.355835,30.1275245 14.7800855,29.1343766 14.0067021,28.3994471 C11.1206245,25.7439223 10.7621529,21.3267059 10.7621529,19.341938 C10.7621529,18.8988412 10.795712,18.4985262 10.8048644,18.2876732 C10.6691028,18.2448915 10.3411395,18.1058508 10.3411395,18.1058508 C8.30166498,17.3541142 2.77357553,15.8735598 0.79206665,11.3203585 C0.543424657,10.7596119 0.181902251,9.49143839 0.181902251,8.02616321 C0.181902251,6.79465977 0.429018833,5.40272475 1.23138502,4.11010452 C2.64849183,1.93587451 4.98999771,0.5836654 8.78369485,0.640198436 C12.8946775,0.692147712 16.9583724,3.51574368 17.658536,4.02912476 C18.3831062,3.35072833 20.2532601,1.62570677 21.1913879,1.16427496" id="path52214"></path>
                            </g>
                            <g id="g52216" transform="translate(54.864991, 1.040719)">
                                <path d="M23.3208616,35.6700775 C28.9145438,37.0070074 33.5228104,32.6188215 33.9529763,32.3483796 L35.5195734,37.4042666 C33.3245069,38.0719676 17.3183694,43.5113624 6.0013452,30.5637692 C-0.951478118,22.5971949 -2.6965483,6.29887334 6.15541171,1.9336062 C15.6068582,-2.75405204 26.057449,2.64561687 26.7911717,3.01231764 L31.1340168,16.7498454 C31.5931655,18.4412527 32.6319704,19.5260759 34.5005988,20.2075281 L19.5164866,20.2075281 C21.6917227,19.2816087 21.5468087,17.6406227 21.3546069,16.96681 L17.0529479,3.19872387 C16.4732917,3.100937 4.41644317,0.0878789653 11.1648614,21.220539 C12.5972223,25.7385982 16.6975271,34.0489545 23.3208616,35.6700775" id="path52218"></path>
                            </g>
                        </g>
                    </g>
                    <g id="Zelle" transform="translate(350.000000, 0.000000)">
                        <rect id="Bound" stroke="#979797" fill="#D8D8D8" opacity="0" x="0.5" y="0.5" width="151" height="86"></rect>
                        <g transform="translate(25.754373, 22.837500)">
                            <path d="M3.47087152,5.72919729 L9.22732579,5.72919729 L9.22732579,2.85376651 C9.22732579,1.27767478 10.5050006,1.68937401e-15 12.0810923,0 C13.657184,-1.68937401e-15 14.9348588,1.27767478 14.9348588,2.85376651 L14.9348588,5.72919729 L19.0475199,5.72919729 C21.6049235,5.72919729 23.6781087,7.8023825 23.6781087,10.3597861 L23.6781087,10.3597861 L8.55878,29.8660353 C16.6717657,29.8643973 20.7795676,29.8643973 20.8821856,29.8660353 C21.0361125,29.8684923 21.2423937,30.0598437 21.3011281,30.1920074 C21.5939507,30.8509145 21.9890193,31.5797908 22.4106798,32.2573671 C23.1589642,33.4598031 24.1445134,34.410639 24.2239086,34.6088433 C24.3033038,34.8070476 24.3060332,35.0302424 24.2432863,35.1983405 C24.201455,35.3104059 24.0722594,35.442756 23.8556993,35.5953907 L14.9348588,35.5953907 L14.9348588,38.4712335 C14.9348588,40.0473252 13.657184,41.325 12.0810923,41.325 C10.5050006,41.325 9.22732579,40.0473252 9.22732579,38.4712335 L9.22732579,35.5953907 L4.83206428,35.5953907 C2.16338887,35.5953907 3.2681848e-16,33.4320018 0,30.7633264 L0,30.7633264 L15.0916295,11.4600761 L3.47087152,11.4600761 C1.88833302,11.4600761 0.605432094,10.1771752 0.605432094,8.59463672 C0.605432094,7.01209822 1.88833302,5.72919729 3.47087152,5.72919729 Z" id="Rectangle" fill="#111111"></path>
                            <path d="M34.974898,36.0229245 C31.4835516,36.0229245 28.1688216,34.5711304 26.0071327,32.2160569 C24.0200969,30.051261 23.0417251,27.1245192 23.0417251,23.8327558 C23.0417251,21.7845801 23.5355699,19.4317738 24.3653405,17.6875078 C26.3199489,13.5787128 30.2711312,11.2279245 34.974898,11.2279245 C39.0135081,11.2279245 42.1167458,12.8693257 44.2128884,15.5228485 C45.1808396,16.7481853 45.8333337,18.1385103 46.2010931,19.8004459 C46.2841732,20.1758916 46.4102277,20.8340331 46.4793325,21.4874786 C46.540966,22.0702755 46.5505121,22.6483867 46.5505121,23.0338017 C46.5505121,23.3168907 46.5505121,23.9134934 46.5505121,24.8236099 C46.5505121,25.1921959 46.2517141,25.490994 45.883128,25.490994 L45.721236,25.490994 L29.5051362,25.490994 C29.6352672,26.2322948 29.7604523,26.7554984 29.8806915,27.0606047 C30.3733892,28.3108233 31.1000849,28.8897794 31.6329022,29.2545787 C31.7873024,29.3602905 31.8263334,29.3824081 31.9109894,29.4331037 C32.3249141,29.6809793 32.5172456,29.7853496 32.6592651,29.8371078 C33.7376497,30.2301186 35.3982807,30.5215494 36.484613,30.3109161 C37.413515,30.1308075 38.7146323,29.948572 39.6983112,29.4331037 C40.170391,29.185724 40.6623022,28.8182752 41.0491577,28.4756207 C41.2780146,28.2729125 41.4475264,28.1146897 41.6331241,27.9508595 C41.8187218,27.7870292 41.9946877,27.7082607 42.1332587,27.7167866 C42.4089643,27.7337499 42.6064911,27.9294775 42.7269866,28.0704545 C43.2650002,28.6999185 43.140809,28.5739341 43.7973589,29.2545787 C44.4539088,29.9352233 45.2197262,30.5035192 45.6016147,30.7994284 C46.1807863,31.2482037 45.7779725,31.6199527 45.6614336,31.7792632 C45.2882627,32.2893934 44.702666,32.7217106 44.2128884,33.1286622 C42.7146612,34.3735248 40.6612657,35.2918615 38.6281179,35.7106194 C37.3839588,35.9668731 36.2284043,36.0229245 34.974898,36.0229245 Z M40.4156691,20.7408041 C40.2765694,19.9728484 39.9943726,19.2426785 39.5690785,18.5502944 C39.2277588,17.9946215 38.4376896,17.219713 37.4478098,16.7929313 C36.5875625,16.42204 35.5752517,16.3597848 35.06612,16.3597848 C33.9711345,16.3597848 33.2750221,16.5104656 32.5285405,16.8469204 C31.4276767,17.3431027 30.6532234,18.1646269 30.1606956,19.0676516 C29.9642421,19.4278391 29.774889,19.9855566 29.5926365,20.7408041 L40.4156691,20.7408041 Z" id="Combined-Shape" fill="#111111"></path>
                            <path d="M83.7050328,36.0229245 C80.2136863,36.0229245 76.8989564,34.5711304 74.7372675,32.2160569 C72.7502317,30.051261 71.7718598,27.1245192 71.7718598,23.8327558 C71.7718598,21.7845801 72.2657047,19.4317738 73.0954753,17.6875078 C75.0500837,13.5787128 79.001266,11.2279245 83.7050328,11.2279245 C87.7436429,11.2279245 90.8468806,12.8693257 92.9430231,15.5228485 C93.9109743,16.7481853 94.5634684,18.1385103 94.9312279,19.8004459 C95.014308,20.1758916 95.1403625,20.8340331 95.2094673,21.4874786 C95.2711008,22.0702755 95.2806469,22.6483867 95.2806469,23.0338017 C95.2806469,23.3168907 95.2806469,23.9134934 95.2806469,24.8236099 C95.2806469,25.1921959 94.9818489,25.490994 94.6132628,25.490994 L94.4513708,25.490994 L78.235271,25.490994 C78.365402,26.2322948 78.4905871,26.7554984 78.6108263,27.0606047 C79.103524,28.3108233 79.8302196,28.8897794 80.3630369,29.2545787 C80.5174371,29.3602905 80.5564682,29.3824081 80.6411241,29.4331037 C81.0550489,29.6809793 81.2473804,29.7853496 81.3893999,29.8371078 C82.4677845,30.2301186 84.1284155,30.5215494 85.2147478,30.3109161 C86.1436498,30.1308075 87.4447671,29.948572 88.428446,29.4331037 C88.9005258,29.185724 89.3924369,28.8182752 89.7792925,28.4756207 C90.0081494,28.2729125 90.1776611,28.1146897 90.3632589,27.9508595 C90.5488566,27.7870292 90.7248225,27.7082607 90.8633935,27.7167866 C91.1390991,27.7337499 91.3366259,27.9294775 91.4571214,28.0704545 C91.995135,28.6999185 91.8709438,28.5739341 92.5274937,29.2545787 C93.1840436,29.9352233 93.949861,30.5035192 94.3317495,30.7994284 C94.910921,31.2482037 94.5081073,31.6199527 94.3915684,31.7792632 C94.0183975,32.2893934 93.4328008,32.7217106 92.9430231,33.1286622 C91.444796,34.3735248 89.3914005,35.2918615 87.3582527,35.7106194 C86.1140935,35.9668731 84.9585391,36.0229245 83.7050328,36.0229245 Z M89.1458039,20.7408041 C89.0067042,19.9728484 88.7245073,19.2426785 88.2992133,18.5502944 C87.9578935,17.9946215 87.1678244,17.219713 86.1779446,16.7929313 C85.3176972,16.42204 84.3053865,16.3597848 83.7962548,16.3597848 C82.7012693,16.3597848 82.0051568,16.5104656 81.2586753,16.8469204 C80.1578115,17.3431027 79.3833582,18.1646269 78.8908303,19.0676516 C78.6943768,19.4278391 78.5050238,19.9855566 78.3227712,20.7408041 L89.1458039,20.7408041 Z" id="Combined-Shape" fill="#111111"></path>
                            <path d="M52.2163851,2.80698113 C53.8838367,2.80698113 55.2355734,4.15871778 55.2355734,5.82616944 L55.2355734,28.9201457 C55.253136,29.5826342 55.4739674,30.0126443 55.8980675,30.2101759 C56.0813488,30.2955422 56.2223233,30.3531764 56.5542034,30.3291029 C56.7017038,30.3184038 56.9382582,30.2997187 57.2402246,30.2549473 C57.3964794,30.23178 57.6532389,30.1954462 57.8593387,30.2976004 C58.051532,30.3928618 58.1667316,30.6221461 58.213239,30.7736404 C58.2335928,30.8399414 58.3109046,31.2039791 58.3911278,31.766884 C58.4713511,32.3297888 58.5701086,32.6335412 58.717293,33.057652 C58.7908051,33.2694767 58.937679,33.6189137 59.1579148,34.1059631 C59.2612921,34.2639769 59.3515555,34.4406345 59.4287048,34.6359359 C59.4801181,34.7660875 59.522643,35.1136039 59.3349788,35.3741524 C59.2723528,35.4611009 59.1115775,35.5571383 58.8526529,35.6622646 C58.6026541,35.7417078 58.2074875,35.8214029 57.6671532,35.9013499 C57.5331497,35.9211769 57.0930473,35.973747 56.5936896,35.9987741 C56.0746053,36.0247899 55.4912411,36.0229245 55.1076604,36.0229245 C54.7186624,36.0229245 53.855916,35.9239344 52.9303791,35.5954424 C52.0653042,35.2884097 51.1420019,34.8045816 50.2560759,33.7339439 C49.9177409,33.3250676 49.4593307,32.0414045 49.3858776,31.642142 C49.3034082,31.1938711 49.2405146,30.4097584 49.1971968,29.2898039 L49.1971968,5.82616944 C49.1971968,4.15871778 50.5489334,2.80698113 52.2163851,2.80698113 Z" id="Rectangle" fill="#111111"></path>
                            <path d="M64.3986846,2.80698113 C66.0875029,2.80698113 67.4565606,4.17603884 67.4565606,5.86485711 L67.4565606,28.9201459 C67.4743482,29.5826343 67.6980093,30.0126444 68.1275437,30.210176 C68.3131736,30.2955423 68.4559545,30.3531765 68.7920872,30.329103 C68.9414777,30.3184039 69.1810632,30.2997188 69.4868989,30.2549474 C69.6451559,30.2317801 69.9052055,30.1954463 70.1139462,30.2976005 C70.1551475,30.3177638 70.2761556,30.4701655 70.3943847,30.7170941 C70.5692227,31.0822534 70.7609378,31.6421421 71.1469624,32.2139074 C71.699248,33.0319324 72.7114022,34.1538948 72.5284923,34.6564117 C72.2131446,35.5227811 70.3340391,35.8407618 69.9192981,35.9013499 C69.7835774,35.9211769 69.3378357,35.973747 68.8320793,35.9987741 C68.3063437,36.0247899 67.7155043,36.0229245 67.3270086,36.0229245 C66.933026,36.0229245 66.0592246,35.9239344 65.1218282,35.5954424 C64.2456684,35.2884097 63.3105351,34.8045816 62.413257,33.733944 C62.0705867,33.3250676 61.6063026,32.0414045 61.5319082,31.6421421 C61.4483821,31.1938712 61.3846822,30.4097585 61.3408086,29.289804 L61.3408086,5.86485711 C61.3408086,4.17603884 62.7098663,2.80698113 64.3986846,2.80698113 Z" id="Rectangle" fill="#111111"></path>
                            <ellipse id="Oval" stroke="#111111" stroke-width="0.5" cx="98.0051752" cy="8.49891509" rx="2.56884097" ry="2.57306604"></ellipse>
                            <path d="M97.4769034,8.29676625 L98.2079189,8.29676625 C98.3888498,8.29377143 98.5245459,8.23986561 98.6150114,8.13504717 C98.7040177,8.03771576 98.7485202,7.91792505 98.7485202,7.77567144 C98.745602,7.60496712 98.6923449,7.48143295 98.5887474,7.40506522 C98.5070366,7.33768194 98.3888497,7.3039908 98.2341829,7.3039908 L97.4769034,7.3039908 L97.4769034,8.29676625 Z M96.9932075,6.86150943 L98.2385603,6.86150943 C98.5041201,6.86150943 98.7207962,6.93338386 98.888595,7.07713487 C99.0914127,7.24035216 99.1971973,7.47319536 99.205952,7.77567144 C99.2001156,8.22040113 98.9943827,8.52287268 98.5887474,8.68309515 L99.3285175,10.1363208 L98.7528975,10.1363208 L98.0941081,8.73700151 L97.4769034,8.73700151 L97.4769034,10.1363208 L96.9932075,10.1363208 L96.9932075,6.86150943 Z" id="R" fill="#111111" fill-rule="nonzero"></path>
                        </g>
                    </g>
                    <g id="Nike" transform="translate(525.000000, 0.000000)">
                        <rect id="Bound" stroke="#979797" fill="#D8D8D8" opacity="0" x="0.5" y="0.5" width="151" height="86"></rect>
                        <path d="M81.8880974,41.7763454 C80.7338577,31.9369796 80.7338577,31.9369796 80.7338577,29.6481666 C89.0257358,19.9739633 89.0257358,19.9739633 89.590684,19.7618743 C87.0231551,27.099878 84.455167,34.4378817 81.8880974,41.7763454 Z M58.6609178,44.3954837 C61.5582294,35.8300321 64.4789657,27.2650406 67.4006207,18.7235123 C69.473016,18.7235123 71.54633,18.7235123 73.619644,18.7235123 C70.6038311,27.1941909 67.6119021,35.6648695 64.6208917,44.1355481 C62.6183111,44.2063978 60.6396144,44.3007107 58.6609178,44.3954837 Z M41.6527615,44.3954837 C44.5973818,35.7591824 47.5420021,27.1233412 50.4866224,18.4875 C52.6536352,18.4875 54.8211072,18.4875 57.0115446,18.4875 C57.0588533,21.6255892 57.1057026,24.7641385 57.1530113,27.9017677 C58.2604017,24.8110649 59.3673327,21.7438254 60.4742637,18.6761258 C62.3592617,18.6052761 64.267225,18.5348865 66.1756476,18.4875 C63.3251853,27.1233412 60.4981477,35.7591824 57.6715695,44.3954837 C55.4802134,44.3954837 53.289776,44.3954837 51.1227633,44.3954837 C51.0520299,41.3512473 50.9812966,38.307471 50.9344472,35.2871579 C48.3196097,42.4365357 48.3196097,42.4365357 47.8479009,44.3954837 C45.7755055,44.3954837 43.7021915,44.3954837 41.6527615,44.3954837 Z M40.2863218,35.0276824 C40.4746378,35.0750688 40.6638725,35.1224553 40.8521886,35.1693817 C36.6591705,44.4897966 36.9416446,53.7149784 49.120642,53.7149784 C69.7325248,48.4536988 69.7325248,48.4536988 83.748752,44.5362629 C81.1573392,44.4897966 78.5663857,44.44195 75.9983975,44.3954837 C75.5978814,41.6815725 75.1978246,38.9681213 74.8207331,36.2546702 C73.8313848,38.8972716 72.8415771,41.5398731 71.8522288,44.1824746 C69.8505668,44.2533242 67.8479861,44.3241739 65.8458648,44.3954837 C68.7427171,35.8061088 71.6404881,27.2411173 74.538259,18.6761258 C76.6106544,18.699589 78.6839684,18.7235123 80.7572824,18.7704387 C79.0610598,23.8909391 79.0610598,23.8909391 79.2493759,24.1738778 C80.8041317,22.3805525 82.3827716,20.5872272 83.9604928,18.794362 C89.9204668,18.6761258 95.8804407,18.5818129 101.839955,18.4875 C101.39259,20.0208897 100.968649,21.5547395 100.544708,23.0885893 C98.4011202,23.2063654 96.2575322,23.3246016 94.1369095,23.4423777 C92.8177784,27.3593535 92.8177784,27.3593535 92.747045,28.2325529 C94.632043,28.350329 96.5165816,28.4681051 98.4240856,28.6098045 C97.8591374,30.1910408 97.2941892,31.771357 96.7283223,33.3525932 C94.6554676,33.541219 92.582613,33.7298448 90.5331829,33.9184706 C89.9443507,35.6883327 89.3550592,37.4581948 88.7896517,39.2515201 C90.745383,39.3223698 92.700655,39.3927594 94.6554676,39.4636091 C94.4432676,40.1481827 94.2315268,40.8557595 94.0197861,41.5637964 C94.4198429,41.5637964 94.820359,41.5637964 95.2442998,41.5872596 C104.738186,39.0624342 114.254118,36.5615322 123.771429,34.0606301 C99.6729426,44.5362629 75.5744567,55.013276 51.4759708,65.5128321 C22.9222022,74.913758 22.5005579,51.4344465 40.2863218,35.0276824 L40.2863218,35.0276824 Z" id="Fill-74" fill="#111111"></path>
                    </g>
                    <g id="Target" transform="translate(701.000000, 0.000000)">
                        <rect id="Bound" stroke="#979797" fill="#D8D8D8" opacity="0" x="0.5" y="0.5" width="151" height="86"></rect>
                        <g transform="translate(14.114286, 30.450000)" fill="#111111">
                            <path d="M0.284674286,13.388761 C0.284674286,6.12328696 6.16489342,0.234474457 13.4189754,0.234474457 C20.6719811,0.234474457 26.5532765,6.12328696 26.5532765,13.388761 C26.5532765,20.654774 20.6719811,26.5441255 13.4189754,26.5441255 C6.16489342,26.5441255 0.284674286,20.654774 0.284674286,13.388761 Z M13.4189754,22.1268424 C18.2369128,22.1268424 22.1421704,18.2146226 22.1421704,13.388761 C22.1421704,8.56343837 18.2369128,4.65229663 13.4189754,4.65229663 C8.60157615,4.65229663 4.69631851,8.56343837 4.69631851,13.388761 C4.69631851,18.2146226 8.60157615,22.1268424 13.4189754,22.1268424 Z M13.4189754,17.8426976 C15.9207727,17.8426976 17.9490097,15.8100466 17.9490097,13.3052126 C17.9490097,10.7993005 15.9207727,8.76772761 13.4189754,8.76772761 C10.9182544,8.76772761 8.89001739,10.7993005 8.89001739,13.3052126 C8.89001739,15.8100466 10.9182544,17.8426976 13.4189754,17.8426976 L13.4189754,17.8426976 Z" id="Fill-1"></path>
                            <polyline id="Fill-2" points="30.8190857 3.9472562 45.7841277 3.9472562 45.7841277 7.72957174 40.6368507 7.72957174 40.6368507 22.8874021 36.0637655 22.8874021 36.0637655 7.75813989 30.8190857 7.75813989 30.8190857 3.9472562"></polyline>
                            <path d="M59.7638415,3.9472562 C59.7638415,3.9472562 63.2046872,3.9472562 68.6452487,3.9472562 C73.6940467,3.9472562 74.3930862,7.40777576 74.3930862,9.42425609 C74.3930862,12.3527612 71.875683,13.8237515 71.6518181,13.8798098 C71.6518181,13.8798098 73.8624835,14.7061301 73.8624835,17.2141983 L73.8624835,20.7442516 C73.8624835,22.1597227 74.7294216,22.5515915 74.8827906,22.8874021 L71.2745843,22.8874021 C69.5541615,22.6922762 69.5826827,21.3193878 69.5961361,20.5340332 L69.5961361,17.4944896 C69.5541615,16.7522566 69.3302966,15.9243192 67.7777724,15.8968291 L64.1275916,15.8968291 L64.1275916,22.8874021 L59.7498499,22.8874021 L59.7638415,3.9472562 Z M68.323443,7.75813989 L64.1275916,7.75813989 L64.1275916,11.5393774 C64.1275916,11.5393774 67.4005386,11.5512359 67.890243,11.5393774 C69.2054489,11.5124263 70.2214509,10.9243536 70.2214509,9.63447457 C70.2214509,8.23140098 69.3588179,7.75813989 68.323443,7.75813989 L68.323443,7.75813989 Z" id="Fill-3"></path>
                            <polyline id="Fill-4" points="93.6955096 3.9472562 93.6955096 22.8874021 107.317362 22.8874021 107.317362 18.993509 98.1426708 18.993509 98.1426708 14.7616493 105.97525 14.7616493 105.97525 11.1760767 98.1426708 11.1760767 98.1426708 7.75813989 107.317362 7.75813989 107.317362 3.9472562 93.6955096 3.9472562"></polyline>
                            <polyline id="Fill-5" points="107.961512 7.75813989 113.360637 7.75813989 113.360637 22.8874021 117.835243 22.8874021 117.835243 7.75813989 123.317241 7.75813989 123.317241 3.9472562 107.961512 3.9472562 107.961512 7.75813989"></polyline>
                            <path d="M47.9759583,3.94348304 L52.8299508,3.94348304 L59.4420358,22.8874021 L54.7381834,22.8874021 L53.3723925,18.9509263 L47.7913774,18.9509263 L46.5030783,22.8874021 L41.8379717,22.8874021 L47.9759583,3.94348304 Z M50.51112,10.6300477 L48.9026296,15.5189749 L52.2180894,15.5189749 L50.51112,10.6300477 L50.51112,10.6300477 Z" id="Fill-6"></path>
                            <path d="M92.1284557,12.3112565 L84.0031304,12.3112565 L84.0031304,15.9949311 L87.8621083,15.9949311 C87.8551125,16.7527957 87.9745789,17.5095822 87.0678186,18.5741501 C86.7589282,18.9369117 85.7014897,19.7497565 84.225919,19.7497565 C82.9812089,19.7497565 82.0868258,19.3934632 81.3102947,18.7331615 C79.594715,17.2740297 79.1911125,14.5481967 79.1911125,13.1230233 C79.1911125,11.3296979 79.9036055,6.8757613 84.2813471,6.69303293 C84.2813471,6.69303293 87.2341029,6.50221924 88.0031001,10.0689261 L92.0999344,10.0689261 C92.0170614,8.26104717 89.9183284,3.18454043 84.2813471,3.17698489 C82.3359831,3.17429902 79.8670122,3.76075467 77.8226311,5.81119337 C76.341679,7.29673728 75.0092527,9.79079087 75.0092527,13.3052126 C75.0092527,17.1171743 76.4100224,19.5955963 77.6913257,20.9566262 C79.9407369,23.3477266 82.2068303,23.531533 83.386964,23.531533 C84.3233217,23.531533 86.1142405,23.3919264 88.4363001,21.8228341 L89.0508522,22.8874021 L92.1284557,22.8874021 L92.1284557,12.3112565" id="Fill-7"></path>
                            <path d="M120.121248,20.5615233 C120.76755,20.5615233 121.344432,21.0283161 121.344432,21.7527613 C121.344432,22.4809797 120.76755,22.9499286 120.121248,22.9499286 C119.473869,22.9499286 118.896449,22.4809797 118.896449,21.7527613 C118.896449,21.0283161 119.473869,20.5615233 120.121248,20.5615233 Z M120.121248,22.6949713 C120.615257,22.6949713 121.019936,22.2987903 121.019936,21.7527613 C121.019936,21.2105054 120.615257,20.8180976 120.121248,20.8180976 C119.619704,20.8180976 119.221483,21.2105054 119.221483,21.7527613 C119.221483,22.2987903 119.619704,22.6949713 120.121248,22.6949713 Z M119.646073,21.0832963 L120.149769,21.0832963 C120.483952,21.0832963 120.672838,21.1878665 120.672838,21.4794773 C120.672838,21.7247322 120.519469,21.8196 120.321973,21.8368487 L120.678219,22.4206092 L120.401617,22.4206092 L120.07712,21.8492462 L119.910836,21.8492462 L119.910836,22.4206092 L119.646073,22.4206092 L119.646073,21.0832963 Z M119.910836,21.6417228 L120.14654,21.6417228 C120.29668,21.6417228 120.408075,21.6190839 120.408075,21.4568384 C120.408075,21.3123805 120.255782,21.2902807 120.133625,21.2902807 L119.910836,21.2902807 L119.910836,21.6417228 L119.910836,21.6417228 Z" id="Fill-8"></path>
                        </g>
                    </g>
                    <g id="UCSF" transform="translate(876.000000, 0.000000)">
                        <rect id="Bound" stroke="#979797" fill="#D8D8D8" opacity="0" x="0.5" y="0.5" width="151" height="86"></rect>
                        <g transform="translate(33.657143, 22.837500)" fill="#111111" id="Path">
                            <path d="M85.4781609,18.0540375 L85.4781609,12.90385 L65.9194299,12.90385 L65.9194299,31.8808125 C65.814153,29.657575 65.003711,27.9326125 63.4688979,26.7194625 C62.4075934,25.88085 60.8142141,25.2103875 58.6880486,24.7095 L53.8367777,23.5635625 C51.9647941,23.125375 50.7408322,22.7437125 50.1644177,22.4178625 C49.634714,22.1295375 49.2629255,21.7531 49.0459698,21.29045 L49.0457327,21.2911625 C49.0440729,21.2878375 49.0428874,21.28475 49.0412276,21.281425 L49.0412276,21.2811875 C48.8970647,20.9648375 48.8143133,20.5957625 48.8143133,20.1991375 C48.8143133,19.3507875 49.1052473,18.629025 49.7067954,18.061875 C49.7067954,18.0611625 49.7070325,18.0602125 49.7070325,18.0602125 C49.7200736,18.0473875 49.7335888,18.0355125 49.7466299,18.0236375 L49.746867,18.0234 C49.7473412,18.021025 49.7478154,18.02055 49.7485268,18.021975 C49.8798857,17.902275 50.0240486,17.789225 50.1833865,17.6840125 C51.0934148,17.0829 52.3112118,16.7824625 53.8365406,16.7824625 C55.2077478,16.7824625 56.354886,17.0145 57.2779553,17.4773875 C58.6624407,18.1789625 59.4055435,19.362425 59.5082122,21.027775 L65.0591947,21.027775 C64.9577117,18.0849125 63.8662943,15.8403 61.7842312,14.2934625 C59.701931,12.7468625 57.1864309,11.9735625 54.2379678,11.9735625 C50.7066883,11.9735625 48.0297163,12.7938875 46.2070516,14.4343 C45.0864696,15.4432 44.3120683,16.6109875 43.880291,17.936475 L43.878157,17.936475 C43.785447,18.22195 43.7076749,18.518825 43.6465005,18.81855 L43.6460263,18.81855 C42.9702627,22.0117375 40.9173642,24.1805875 37.4854338,24.1805875 C31.9901721,24.1805875 29.9261294,19.4975625 29.9261294,14.8530125 C29.9261294,9.9757125 31.9901721,5.293875 37.4854338,5.293875 C40.5228131,5.293875 43.1732289,7.4002625 43.5623264,10.1707 L49.4850975,10.1707 C48.7443658,3.732075 43.6014496,0.1413125 37.4856709,0.1413125 C29.2738397,0.1413125 24.2909727,5.9990125 23.8461544,13.7158625 L23.8461544,0.8053625 L17.7282417,0.8053625 L17.7282417,18.132175 C17.7282417,22.2687125 16.3259731,24.180825 11.9624374,24.180825 C7.01418851,24.180825 6.23504499,21.175975 6.23504499,18.132175 L6.23504499,0.8053625 L0.118555008,0.8053625 L0.118555008,18.132175 C0.118555008,25.7029625 4.4811422,29.3322 11.9624374,29.3322 C19.4048466,29.3322 23.8459172,25.6644875 23.8459172,18.132175 L23.8459172,15.9597625 C24.2907356,23.4752125 29.2736026,29.3324375 37.4854338,29.3324375 C40.8595094,29.3324375 43.7368394,28.2423125 45.8587369,26.3000375 C45.990333,26.4059625 46.1252486,26.509275 46.2675146,26.6068875 C47.3679422,27.370925 49.3883567,28.0784375 52.3297064,28.7296625 L55.322509,29.3873 C57.0742778,29.763025 58.3534864,30.1950375 59.160846,30.6833375 C59.96702,31.184225 60.3705813,31.8922125 60.3705813,32.8061125 C60.3705813,34.37195 59.5473353,35.4426 57.9006062,36.0183 C57.0325465,36.318975 55.9024801,36.469075 54.5111186,36.469075 C52.1879146,36.469075 50.5473504,35.8993125 49.5899002,34.75955 C49.0668355,34.1335 48.7154384,33.18825 48.5368946,31.923325 L43.0233754,31.923325 C43.0233754,34.8039625 44.065711,37.0673375 46.1506194,38.713925 C48.236002,40.3609875 51.098157,41.1841625 54.7377957,41.1841625 C58.3013222,41.1841625 61.0591488,40.3481625 63.0117498,38.6761625 C64.8073839,37.1385875 65.7750299,35.2371625 65.9194299,32.9737875 L65.9194299,40.7680625 L72.0366312,40.7680625 L72.0366312,29.254775 L83.6856092,29.254775 L83.6856092,24.49385 L72.0366312,24.49385 L72.0366312,18.0540375 L85.4781609,18.0540375 Z"></path>
                        </g>
                    </g>
                    <g id="Lexus" transform="translate(1051.000000, 0.000000)">
                        <rect id="Bound" stroke="#979797" fill="#D8D8D8" opacity="0" x="0.5" y="0.5" width="151" height="86"></rect>
                        <g transform="translate(8.685714, 31.537500)" fill="#111111" id="path2383">
                            <path d="M16.0473861,1.41739672 C16.5358384,1.43094059 16.483936,1.7747485 16.4031432,1.89327691 C14.9616382,4.13942777 11.5555742,8.0944401 9.07552034,12.4337232 C8.66492145,13.1368178 8.35913493,13.6540862 8.35913493,14.4256564 C8.35913493,15.4717177 9.01110436,16.7084846 10.3208382,17.2392126 C11.1824324,17.5849554 11.7248025,17.5955549 12.6546757,17.6090143 C19.5582624,17.8228534 22.3258779,17.6360178 28.5034213,17.4260482 C28.860187,17.4250388 29.1919232,17.1842807 29.3111809,17.0388331 C30.5055212,15.7914668 31.1940231,13.5491015 31.1940231,11.5706279 C31.1940231,7.16396275 28.0254662,3.19456564 23.0826611,1.285493 L22.2893457,2.30455113 C26.6215035,4.09803951 28.860187,7.68022173 28.860187,11.5167054 C28.860187,12.3798007 28.7139704,13.2158088 28.4495035,14.0142981 C28.2534009,14.571104 28.0120294,14.890853 27.3100054,14.9014525 C22.2758236,15.0092972 19.4255675,15.0882882 14.3779479,14.9553747 C13.7269022,14.9419154 13.5163537,14.7040172 13.4105336,14.1876744 C13.3297408,13.8813847 13.3970963,13.627083 13.6077286,13.242812 C16.2848936,8.49225472 20.9487888,3.06257764 21.864301,1.7747485 C22.0383155,1.53685055 21.9565998,1.05718483 21.359387,0.898277872 C19.6120963,0.381009416 17.6514009,0.171040131 15.6636622,0.171040131 C6.66374548,0.207633151 0.315966384,5.27793973 0.169833706,11.5706279 C0.530461933,19.1242261 7.08778187,23.0252315 15.6636622,23.0252315 C20.9113322,23.0252315 25.7185037,21.1671386 28.5313046,18.220668 L25.9329163,18.3256528 C23.533655,20.463034 19.690033,21.6054153 15.7146406,21.6054153 C8.4687342,21.6054153 2.56909499,17.9962296 2.56909499,11.5167054 C2.56909499,5.94359993 8.46772638,1.40393712 15.7146406,1.40393712 C15.7146406,1.40393712 16.0473861,1.41739672 16.0473861,1.41739672 Z M75.5743933,15.0603595 L80.4757953,11.8365388 L73.0567963,6.30095148 L73.0567963,7.65616264 L62.0826645,7.65616264 C60.6508161,7.65616264 59.4727711,8.67623024 59.2592829,10.0044379 L71.9817161,9.99097857 L71.9817161,12.4067199 L62.2547473,12.4201795 C60.7180878,12.4201795 59.4593319,13.5895643 59.3919774,15.0603595 L75.5743933,15.0603595 Z M122.178915,7.61569981 L133.429104,7.61569981 L133.429104,5.24042104 L122.115507,5.24042104 C117.884297,5.24042104 114.427256,8.47871108 114.254163,12.5396334 L127.892026,12.5252483 C128.77764,12.5252483 129.493101,13.1098988 129.493101,13.8140029 C129.493101,14.5306411 128.776715,15.1018318 127.892026,15.1018318 L112.877074,15.1008223 L112.877074,5.24042104 L108.423727,5.24042104 L108.423727,15.0363006 L99.4805831,15.0363006 C98.1679095,14.8224615 97.7563869,13.8679253 97.7563869,12.0089053 L97.7573113,5.24042104 L90.5758203,5.24042104 L84.1194512,9.43324728 L78.5015787,5.24042104 L61.22107,5.24042104 C57.3908848,5.24042104 54.1982251,7.880601 53.4952767,11.3972518 L56.9667645,11.3972518 C55.65703,12.2872663 54.6492214,13.5491015 54.0924042,15.0373101 L43.1048332,15.0363006 C41.8095452,14.8224615 41.3845005,13.8679253 41.3845005,12.0089053 L41.3854249,5.24042104 L36.9445924,5.24042104 L36.9445924,11.5571685 C36.7580631,15.7404047 39.0236202,17.2392126 41.6084864,17.4771106 L76.1302007,17.4761011 L82.4914173,13.3612564 L88.044789,17.531033 L94.8396992,17.531033 L86.1889057,11.0139063 L93.3030397,6.39533675 L93.3164788,11.5571685 C93.133813,15.7404047 95.6225169,17.2392126 98.2083075,17.4771106 L130.514348,17.4761011 C132.740517,17.4761011 134.544583,15.8453892 134.544583,13.8140029 C134.544583,11.7950664 132.739595,10.1643546 130.514348,10.1643546 L119.356541,10.1643546 C119.461352,8.74361227 120.682651,7.61569981 122.178915,7.61569981 L122.178915,7.61569981 Z"></path>
                        </g>
                    </g>
                </g>
            </g>
        </g>
    </g>
</svg>