<?xml version="1.0" encoding="UTF-8"?>
<svg width="114px" height="38px" viewBox="0 0 114 38" version="1.1" xmlns="http://www.w3.org/2000/svg" xmlns:xlink="http://www.w3.org/1999/xlink">
    <!-- Generator: Sketch 55.2 (78181) - https://sketchapp.com -->
    <title>Google</title>
    <desc>Created with Sketch.</desc>
    <g id="0---D---Home-Page" stroke="none" stroke-width="1" fill="none" fill-rule="evenodd">
        <g id="0.0.1---Home-Page-1440-Hover-Contact-Us" transform="translate(-230.000000, -1009.000000)" fill="#B8B1A4">
            <g id="Best-practices" transform="translate(130.000000, 843.000000)">
                <g id="Logos" transform="translate(87.000000, 145.000000)">
                    <g id="Google">
                        <g fill="#B8B1A4" transform="translate(13.000000, 21.000000)">
                            <path d="M48.8722222,19.9204444 C48.8722222,25.3122222 44.6542222,29.2853333 39.4777778,29.2853333 C34.3013333,29.2853333 30.0833333,25.3122222 30.0833333,19.9204444 C30.0833333,14.4906667 34.3013333,10.5555556 39.4777778,10.5555556 C44.6542222,10.5555556 48.8722222,14.4906667 48.8722222,19.9204444 Z M44.7597778,19.9204444 C44.7597778,16.5511111 42.3151111,14.2457778 39.4777778,14.2457778 C36.6404444,14.2457778 34.1957778,16.5511111 34.1957778,19.9204444 C34.1957778,23.256 36.6404444,25.5951111 39.4777778,25.5951111 C42.3151111,25.5951111 44.7597778,23.2517778 44.7597778,19.9204444 Z" id="Shape" fill-rule="nonzero"></path>
                            <path d="M69.1388889,19.9204444 C69.1388889,25.3122222 64.9208889,29.2853333 59.7444444,29.2853333 C54.568,29.2853333 50.35,25.3122222 50.35,19.9204444 C50.35,14.4948889 54.568,10.5555556 59.7444444,10.5555556 C64.9208889,10.5555556 69.1388889,14.4906667 69.1388889,19.9204444 Z M65.0264444,19.9204444 C65.0264444,16.5511111 62.5817778,14.2457778 59.7444444,14.2457778 C56.9071111,14.2457778 54.4624444,16.5511111 54.4624444,19.9204444 C54.4624444,23.256 56.9071111,25.5951111 59.7444444,25.5951111 C62.5817778,25.5951111 65.0264444,23.2517778 65.0264444,19.9204444 Z" id="Shape" fill-rule="nonzero"></path>
                            <path d="M88.5611111,11.1213333 L88.5611111,27.9342222 C88.5611111,34.8502222 84.4824444,37.6748889 79.6606667,37.6748889 C75.1217778,37.6748889 72.39,34.6391111 71.3597778,32.1564444 L74.9402222,30.666 C75.5777778,32.1902222 77.14,33.9888889 79.6564444,33.9888889 C82.7428889,33.9888889 84.6555556,32.0846667 84.6555556,28.5 L84.6555556,27.1531111 L84.512,27.1531111 C83.5915556,28.2888889 81.8182222,29.2811111 79.5804444,29.2811111 C74.898,29.2811111 70.6082222,25.2024444 70.6082222,19.9542222 C70.6082222,14.668 74.898,10.5555556 79.5804444,10.5555556 C81.814,10.5555556 83.5873333,11.5477778 84.512,12.6497778 L84.6555556,12.6497778 L84.6555556,11.1255556 L88.5611111,11.1255556 L88.5611111,11.1213333 Z M84.9468889,19.9542222 C84.9468889,16.6566667 82.7471111,14.2457778 79.9477778,14.2457778 C77.1104444,14.2457778 74.7333333,16.6566667 74.7333333,19.9542222 C74.7333333,23.218 77.1104444,25.5951111 79.9477778,25.5951111 C82.7471111,25.5951111 84.9468889,23.218 84.9468889,19.9542222 Z" id="Shape" fill-rule="nonzero"></path>
                            <polygon id="Path" points="95 1.26666667 95 28.7111111 90.9888889 28.7111111 90.9888889 1.26666667"></polygon>
                            <path d="M110.630667,23.0026667 L113.822667,25.1306667 C112.792444,26.6548889 110.309778,29.2811111 106.02,29.2811111 C100.7,29.2811111 96.7268889,25.1686667 96.7268889,19.9162222 C96.7268889,14.3471111 100.733778,10.5513333 105.559778,10.5513333 C110.419556,10.5513333 112.796667,14.4188889 113.573556,16.5088889 L114,17.5728889 L101.481111,22.7577778 C102.439556,24.6366667 103.93,25.5951111 106.02,25.5951111 C108.114222,25.5951111 109.566667,24.5648889 110.630667,23.0026667 Z M100.805556,19.6333333 L109.174,16.1584444 C108.713778,14.9888889 107.328889,14.174 105.699111,14.174 C103.609111,14.174 100.7,16.0191111 100.805556,19.6333333 L100.805556,19.6333333 Z" id="Shape" fill-rule="nonzero"></path>
                            <path d="M14.9002222,17.4842222 L14.9002222,13.5111111 L28.2888889,13.5111111 C28.4197778,14.2035556 28.4873333,15.0226667 28.4873333,15.9093333 C28.4873333,18.8902222 27.6724444,22.5762222 25.0462222,25.2024444 C22.4917778,27.8624444 19.228,29.2811111 14.9044444,29.2811111 C6.89066667,29.2811111 0.152,22.7535556 0.152,14.7397778 C0.152,6.726 6.89066667,0.198444444 14.9044444,0.198444444 C19.3377778,0.198444444 22.496,1.938 24.8688889,4.20533333 L22.0653333,7.00888889 C20.3637778,5.41288889 18.0584444,4.17155556 14.9002222,4.17155556 C9.04822222,4.17155556 4.47133333,8.88777778 4.47133333,14.7397778 C4.47133333,20.5917778 9.04822222,25.308 14.9002222,25.308 C18.696,25.308 20.8577778,23.7837778 22.2426667,22.3988889 C23.3657778,21.2757778 24.1046667,19.6713333 24.396,17.48 L14.9002222,17.4842222 Z" id="Path"></path>
                        </g>
                    </g>
                </g>
            </g>
        </g>
    </g>
</svg>