<?xml version="1.0" encoding="UTF-8"?>
<svg width="124px" height="22px" viewBox="0 0 124 22" version="1.1" xmlns="http://www.w3.org/2000/svg" xmlns:xlink="http://www.w3.org/1999/xlink">
    <!-- Generator: Sketch 55.2 (78181) - https://sketchapp.com -->
    <title>path2383</title>
    <desc>Created with Sketch.</desc>
    <g id="0---D---Home-Page" stroke="none" stroke-width="1" fill="none" fill-rule="evenodd">
        <g id="0.0.1---Home-Page-1440-Hover-Contact-Us" transform="translate(-1065.000000, -1017.000000)" fill="#B8B1A4">
            <g id="Best-practices" transform="translate(130.000000, 843.000000)">
                <g id="Logos" transform="translate(87.000000, 145.000000)">
                    <g id="Lexus" transform="translate(840.000000, 0.000000)">
                        <g transform="translate(8.000000, 29.000000)" id="path2383">
                            <path d="M14.7804872,1.3033533 C15.2303775,1.31580744 15.1825727,1.63195265 15.1081583,1.74094428 C13.7804562,3.80637037 10.643292,7.44316331 8.35903189,11.4333087 C7.9808487,12.0798324 7.69920323,12.5554816 7.69920323,13.2649714 C7.69920323,14.2268669 8.29970139,15.3641237 9.50603517,15.8521495 C10.2996088,16.170074 10.7991602,16.1798206 11.6556223,16.192197 C18.0141891,16.3888307 20.5633086,16.2170278 26.2531512,16.0239524 C26.5817512,16.0230241 26.8872977,15.8016374 26.9971403,15.6678925 C28.0971906,14.520889 28.731337,12.4589439 28.731337,10.6396578 C28.731337,6.58755196 25.8129294,2.93753162 21.2603458,1.18206253 L20.5296605,2.11912747 C24.5198058,3.76831219 26.5817512,7.06227286 26.5817512,10.590074 C26.5817512,11.3837248 26.447078,12.1524678 26.2034901,12.8867109 C26.0228692,13.3987163 25.8005534,13.6927384 25.1539523,13.7024851 C20.5172059,13.8016526 17.89197,13.874288 13.2428468,13.7520687 C12.6431994,13.7396923 12.4492732,13.5209353 12.3518072,13.0461374 C12.2773928,12.7644917 12.3394308,12.530651 12.5334343,12.1772984 C14.9992441,7.80896986 19.294937,2.81616335 20.138172,1.63195265 C20.2984485,1.41319591 20.223184,0.972123979 19.6731196,0.826002641 C18.0637729,0.350353486 16.2578692,0.157278282 14.4270573,0.157278282 C6.13766031,0.190927035 0.291021669,4.85327792 0.156425782,10.6396578 C0.488583359,17.5854953 6.52822014,21.1726267 14.4270573,21.1726267 C19.2604375,21.1726267 23.6880955,19.4640355 26.2788332,16.7546372 L23.8855808,16.851175 C21.6757349,18.816583 18.1355567,19.8670486 14.4740111,19.8670486 C7.80014992,19.8670486 2.3662717,16.5482571 2.3662717,10.590074 C2.3662717,5.46537925 7.79922167,1.29097666 14.4740111,1.29097666 C14.4740111,1.29097666 14.7804872,1.3033533 14.7804872,1.3033533 Z M69.6079938,13.8486064 L74.122443,10.8841736 L67.2891545,5.79397837 L67.2891545,7.04014956 L57.1814015,7.04014956 C55.8625938,7.04014956 54.7775523,7.97814275 54.5809185,9.19948315 L66.298949,9.18710673 L66.298949,11.4084781 L57.3398988,11.4208547 C55.9245545,11.4208547 54.7651742,12.4961511 54.703137,13.8486064 L69.6079938,13.8486064 Z M112.533211,7.00294235 L122.895228,7.00294235 L122.895228,4.81877797 L112.474809,4.81877797 C108.577642,4.81877797 105.393525,7.79651594 105.234098,11.5306973 L117.795287,11.5174697 C118.610984,11.5174697 119.269961,12.0550794 119.269961,12.7025314 C119.269961,13.3615091 118.610133,13.8867419 117.795287,13.8867419 L103.965726,13.8858136 L103.965726,4.81877797 L99.8639589,4.81877797 L99.8639589,13.8264833 L91.6268528,13.8264833 C90.4178113,13.6298497 90.0387774,12.7521152 90.0387774,11.0426715 L90.0396288,4.81877797 L83.4250977,4.81877797 L77.4784419,8.67425037 L72.3040856,4.81877797 L56.3878277,4.81877797 C52.8600255,4.81877797 49.9194179,7.24652965 49.2719654,10.4802316 L52.4693884,10.4802316 C51.2630539,11.2986357 50.3348092,12.4589439 49.8219513,13.8274116 L39.7018201,13.8264833 C38.5087916,13.6298497 38.1173031,12.7521152 38.1173031,11.0426715 L38.1181545,4.81877797 L34.0279141,4.81877797 L34.0279141,10.6272814 C33.8561108,14.4739354 35.9428081,15.8521495 38.3236059,16.0709063 L70.1199217,16.069978 L75.978937,12.2862128 L81.0938846,16.1204901 L87.3523545,16.1204901 L79.3845184,10.1277299 L85.9370102,5.88076942 L85.9493884,10.6272814 C85.7811435,14.4739354 88.0733708,15.8521495 90.4550201,16.0709063 L120.210584,16.069978 C122.261003,16.069978 123.922642,14.5704729 123.922642,12.7025314 C123.922642,10.8460381 122.260153,9.34653296 120.210584,9.34653296 L109.933656,9.34653296 C110.030193,8.04010324 111.155074,7.00294235 112.533211,7.00294235 L112.533211,7.00294235 Z"></path>
                        </g>
                    </g>
                </g>
            </g>
        </g>
    </g>
</svg>