<?xml version="1.0" encoding="UTF-8"?>
<svg width="88px" height="46px" viewBox="0 0 88 46" version="1.1" xmlns="http://www.w3.org/2000/svg" xmlns:xlink="http://www.w3.org/1999/xlink">
    <!-- Generator: Sketch 55.2 (78181) - https://sketchapp.com -->
    <title>Fill 74</title>
    <desc>Created with Sketch.</desc>
    <g id="0---D---Home-Page" stroke="none" stroke-width="1" fill="none" fill-rule="evenodd">
        <g id="0.0.1---Home-Page-1440-Hover-Contact-Us" transform="translate(-663.000000, -1005.000000)" fill="#B8B1A4">
            <g id="Best-practices" transform="translate(130.000000, 843.000000)">
                <g id="Logos" transform="translate(87.000000, 145.000000)">
                    <g id="Nike" transform="translate(420.000000, 0.000000)">
                        <path d="M75.4232476,38.4150303 C74.3601321,29.3673376 74.3601321,29.3673376 74.3601321,27.2626819 C81.9973882,18.3668628 81.9973882,18.3668628 82.5177352,18.1718384 C80.152906,24.919428 77.7876538,31.6670176 75.4232476,38.4150303 Z M54.0297927,40.8234333 C56.6983692,32.947156 59.3885211,25.0713017 62.079519,17.2170228 C63.9883042,17.2170228 65.8979356,17.2170228 67.8075669,17.2170228 C65.0298444,25.0061526 62.2741204,32.7952823 59.5192424,40.5844121 C57.6747602,40.6495612 55.8522765,40.7362857 54.0297927,40.8234333 Z M38.3643856,40.8234333 C41.0765359,32.8820068 43.7886862,24.9410034 46.5008364,17 C48.4967692,17 50.493125,17 52.5106332,17 C52.554207,19.8855993 52.5973577,22.7716216 52.6409315,25.6567979 C53.6608963,22.8147724 54.680438,19.9943222 55.6999798,17.173449 C57.4361621,17.1082999 59.1934967,17.0435738 60.9512544,17 C58.3258286,24.9410034 55.7219782,32.8820068 53.1185508,40.8234333 C51.1001966,40.8234333 49.0826884,40.8234333 47.0867557,40.8234333 C47.0216065,38.0241354 46.9564574,35.2252607 46.9133067,32.4479612 C44.5049037,39.0221018 44.5049037,39.0221018 44.0704351,40.8234333 C42.1616498,40.8234333 40.2520185,40.8234333 38.3643856,40.8234333 Z M37.1058227,32.2093631 C37.2792717,32.2529369 37.4535668,32.2965106 37.6270158,32.3396614 C33.7650255,40.9101578 34.025199,49.3930836 45.2426965,49.3930836 C64.2273254,44.5551253 64.2273254,44.5551253 77.1370085,40.9528855 C74.7501808,40.9101578 72.3637763,40.866161 69.998524,40.8234333 C69.6296276,38.3278827 69.2611542,35.8327552 68.9138331,33.3376278 C68.0025912,35.7676061 67.0909263,38.1975845 66.1796844,40.6275628 C64.3360484,40.6927119 62.4915662,40.7578611 60.6475071,40.8234333 C63.3156605,32.9251575 65.9846601,25.0493033 68.6536596,17.173449 C70.5624448,17.1950244 72.4720761,17.2170228 74.3817075,17.2601735 C72.8193972,21.9686796 72.8193972,21.9686796 72.9928462,22.2288531 C74.4248582,20.5798184 75.8788686,18.9307836 77.3320328,17.2821719 C82.8214825,17.173449 88.3109322,17.0867245 93.7999589,17 C93.3879117,18.4100136 92.9974399,19.8204501 92.6069681,21.2308867 C90.6326107,21.3391866 88.6582533,21.4479095 86.7050482,21.5562094 C85.490059,25.1580262 85.490059,25.1580262 85.4249099,25.9609682 C87.1610922,26.0692681 88.8968515,26.1775679 90.653763,26.3078662 C90.133416,27.7618766 89.613069,29.2150409 89.0918758,30.6690513 C87.1826676,30.8425003 85.2734593,31.0159493 83.3858264,31.1893983 C82.8434809,32.8168577 82.3007125,34.4443171 81.7799424,36.0933518 C83.5812738,36.158501 85.3821822,36.223227 87.1826676,36.2883762 C86.9872201,36.9178692 86.7921958,37.5685145 86.5971714,38.2195829 C86.9656448,38.2195829 87.3345412,38.2195829 87.725013,38.2411582 C96.4693815,35.9194798 105.234056,33.6197997 114,31.3201196 C91.8040261,40.9528855 69.6080522,50.5869204 47.4120783,60.2416847 C21.1125547,68.8862142 20.7241981,47.2960427 37.1058227,32.2093631 L37.1058227,32.2093631 Z" id="Fill-74"></path>
                    </g>
                </g>
            </g>
        </g>
    </g>
</svg>