<?xml version="1.0" encoding="UTF-8"?>
<svg width="84px" height="36px" viewBox="0 0 84 36" version="1.1" xmlns="http://www.w3.org/2000/svg" xmlns:xlink="http://www.w3.org/1999/xlink">
    <!-- Generator: Sketch 55.2 (78181) - https://sketchapp.com -->
    <title>P&amp;G</title>
    <desc>Created with Sketch.</desc>
    <g id="0---D---Home-Page" stroke="none" stroke-width="1" fill="none" fill-rule="evenodd">
        <g id="0.0.1---Home-Page-1440-Hover-Contact-Us" transform="translate(-386.000000, -1010.000000)" fill="#B8B1A4">
            <g id="Best-practices" transform="translate(130.000000, 843.000000)">
                <g id="Logos" transform="translate(87.000000, 145.000000)">
                    <g id="P&amp;G" transform="translate(140.000000, 0.000000)">
                        <g fill="#B8B1A4" transform="translate(71.000000, 40.000000) scale(1, -1) translate(-71.000000, -40.000000) translate(29.000000, 21.000000)">
                            <g id="g52208" transform="translate(0.077766, 1.469121)" fill-rule="nonzero">
                                <path d="M22.8847248,32.3146277 C24.5707054,32.3146277 29.2380616,32.0898303 26.2145364,23.2791768 C23.0786126,14.0357883 16.0888181,15.9311114 16.0888181,15.9311114 L21.2310589,32.3146277 L22.8847248,32.3146277 Z M35.3932957,22.6947035 C39.3244404,32.3890918 31.9398455,35.0417012 27.1502556,35.0417012 L11.2865834,35.0417012 C12.6016483,34.1270568 12.3824708,32.9145558 12.1365986,32.1937991 L2.88197027,2.60905494 C2.51667448,1.42043863 1.11450064,0.219177475 0.382504071,0.00280996762 L13.236701,0.00280996762 C12.5103243,0.144713333 11.5113808,1.15349171 11.8879165,2.51351604 L15.2444228,13.2166827 C15.2444228,13.2166827 30.7020547,11.1274718 35.3932957,22.6947035 L35.3932957,22.6947035 Z" id="path52210"></path>
                            </g>
                            <g id="g52212" transform="translate(26.202597, 0.401334)" fill-rule="nonzero">
                                <path d="M14.4548219,5.61993525 C13.9476228,5.30662386 11.9399009,4.28660561 10.0614375,4.11519758 C8.29818287,3.96064936 5.40251123,4.62520671 5.40251123,8.11237653 C5.40251123,11.1260668 8.67190856,13.275692 10.4028486,14.0540531 C11.1868296,11.1625964 12.7491716,7.8721243 14.4548219,5.61993525 M19.5183836,24.4607682 C19.0898635,21.6311308 15.4551704,18.7832286 14.5601957,18.4193378 C14.3972176,20.0013495 14.4548219,22.5106506 15.7698868,24.5436622 C16.6789113,25.8938516 17.829593,26.4811349 18.7596923,26.1537737 C19.5183836,25.8938516 19.6097075,25.2124345 19.5183836,24.4607682 M19.5183836,1.07059766 L28.1941586,1.07059766 C25.4249355,1.97962219 21.3280027,4.59570205 19.6869816,6.45028068 C21.0203113,7.8721243 22.6360427,9.6859584 22.9395192,13.367016 L18.4477859,13.367016 C18.4477859,13.367016 19.3399506,12.8921315 19.3399506,11.8313687 C19.3399506,10.846475 18.9423402,9.50893044 18.183649,8.55635141 C16.878419,10.503659 15.4551704,12.7277483 14.9564011,15.9957407 C16.7154409,16.8696406 19.2064772,17.8137897 21.1509748,19.5208451 C23.0336531,21.173106 23.4551482,22.6862736 23.4804379,23.7048869 L23.4804379,23.8369553 C23.4804379,24.8906932 23.0898524,25.8545121 22.3058715,26.6174183 C21.0203113,27.9071934 18.96201,28.4143926 16.8151947,28.0406669 C15.0645849,27.7034708 13.6132366,26.7902313 12.9009098,26.1144341 C10.2426805,23.6725722 9.91250926,19.610764 9.91250926,17.7856901 C9.91250926,17.3782448 9.94341891,17.010139 9.95184881,16.8162512 C9.82680525,16.7769117 9.52473373,16.6490582 9.52473373,16.6490582 C7.64627038,15.9578061 2.55460904,14.5963768 0.729535072,10.4095251 C0.500522711,9.893896 0.167541547,8.72775944 0.167541547,7.38037996 C0.167541547,6.24796301 0.395148925,4.96802276 1.13417041,3.77940645 C2.43940037,1.78011449 4.59605052,0.536703816 8.09024526,0.588688217 C11.8766766,0.636457667 15.6195535,3.23286775 16.2644411,3.70494231 C16.9318084,3.0811295 18.6543185,1.49490278 19.5183836,1.07059766" id="path52214"></path>
                            </g>
                            <g id="g52216" transform="translate(50.533544, 0.037443)">
                                <path d="M21.479741,33.7196115 C26.6318166,34.9489723 30.8762727,30.9138588 31.2724782,30.6651767 L32.7153965,35.3142681 C30.6936248,35.928246 15.9511297,40.9299884 5.52755479,29.0241556 C-0.876361425,21.69857 -2.48366291,6.71160767 5.66945815,2.69756892 C14.3747379,-1.61292142 24.0002819,3.35229137 24.6760792,3.68948749 L28.6760681,16.3216969 C29.0989682,17.877014 30.0557622,18.8745525 31.7768673,19.5011753 L17.9757114,19.5011753 C19.9792183,18.6497551 19.8457448,17.1408025 19.6687169,16.5212046 L15.7066625,3.86089551 C15.1727687,3.77097655 4.06777661,1.00034847 10.283425,20.4326796 C11.6027048,24.5872167 15.3793013,32.2289237 21.479741,33.7196115" id="path52218"></path>
                            </g>
                        </g>
                    </g>
                </g>
            </g>
        </g>
    </g>
</svg>