<?xml version="1.0" encoding="UTF-8"?>
<svg width="114px" height="25px" viewBox="0 0 114 25" version="1.1" xmlns="http://www.w3.org/2000/svg" xmlns:xlink="http://www.w3.org/1999/xlink">
    <!-- Generator: Sketch 55.2 (78181) - https://sketchapp.com -->
    <title>Target</title>
    <desc>Created with Sketch.</desc>
    <g id="0---D---Home-Page" stroke="none" stroke-width="1" fill="none" fill-rule="evenodd">
        <g id="0.0.1---Home-Page-1440-Hover-Contact-Us" transform="translate(-790.000000, -1016.000000)" fill="#B8B1A4">
            <g id="Best-practices" transform="translate(130.000000, 843.000000)">
                <g id="Logos" transform="translate(87.000000, 145.000000)">
                    <g id="Target" transform="translate(560.000000, 0.000000)">
                        <g fill="#B8B1A4" transform="translate(13.000000, 28.000000)">
                            <path d="M0.2622,12.3115043 C0.2622,5.6306087 5.6781913,0.215608696 12.3595826,0.215608696 C19.0399826,0.215608696 24.4569652,5.6306087 24.4569652,12.3115043 C24.4569652,18.9928957 19.0399826,24.4083913 12.3595826,24.4083913 C5.6781913,24.4083913 0.2622,18.9928957 0.2622,12.3115043 Z M12.3595826,20.3465217 C16.7971565,20.3465217 20.3941043,16.7490783 20.3941043,12.3115043 C20.3941043,7.87442609 16.7971565,4.27797391 12.3595826,4.27797391 C7.92250435,4.27797391 4.32555652,7.87442609 4.32555652,12.3115043 C4.32555652,16.7490783 7.92250435,20.3465217 12.3595826,20.3465217 Z M12.3595826,16.4070783 C14.6638696,16.4070783 16.5319826,14.5379739 16.5319826,12.2346783 C16.5319826,9.9303913 14.6638696,8.06227826 12.3595826,8.06227826 C10.056287,8.06227826 8.18817391,9.9303913 8.18817391,12.2346783 C8.18817391,14.5379739 10.056287,16.4070783 12.3595826,16.4070783 L12.3595826,16.4070783 Z" id="Fill-1"></path>
                            <polyline id="Fill-2" points="28.386 3.62966087 42.1695913 3.62966087 42.1695913 7.10765217 37.4286783 7.10765217 37.4286783 21.045887 33.2166261 21.045887 33.2166261 7.13392174 28.386 7.13392174 28.386 3.62966087"></polyline>
                            <path d="M55.0456435,3.62966087 C55.0456435,3.62966087 58.2148435,3.62966087 63.225887,3.62966087 C67.8760957,3.62966087 68.5199478,6.81174783 68.5199478,8.66598261 C68.5199478,11.3588609 66.201287,12.7114957 65.9950957,12.7630435 C65.9950957,12.7630435 68.0312348,13.5228783 68.0312348,15.8291478 L68.0312348,19.0751739 C68.0312348,20.3767565 68.8297304,20.7370957 68.9709913,21.045887 L65.6476435,21.045887 C64.0630435,20.8664609 64.089313,19.6040348 64.1017043,18.8818696 L64.1017043,16.086887 C64.0630435,15.4043739 63.8568522,14.6430522 62.4268957,14.6177739 L59.064887,14.6177739 L59.064887,21.045887 L55.0327565,21.045887 L55.0456435,3.62966087 Z M62.929487,7.13392174 L59.064887,7.13392174 L59.064887,10.6109217 C59.064887,10.6109217 62.0794435,10.6218261 62.530487,10.6109217 C63.7418609,10.5861391 64.6776522,10.0453826 64.6776522,8.85928696 C64.6776522,7.56910435 63.8831217,7.13392174 62.929487,7.13392174 L62.929487,7.13392174 Z" id="Fill-3"></path>
                            <polyline id="Fill-4" points="86.2984957 3.62966087 86.2984957 21.045887 98.8449391 21.045887 98.8449391 17.4652957 90.3945652 17.4652957 90.3945652 13.5739304 97.6087826 13.5739304 97.6087826 10.2768522 90.3945652 10.2768522 90.3945652 7.13392174 98.8449391 7.13392174 98.8449391 3.62966087 86.2984957 3.62966087"></polyline>
                            <polyline id="Fill-5" points="99.4382348 7.13392174 104.411113 7.13392174 104.411113 21.045887 108.532461 21.045887 108.532461 7.13392174 113.58167 7.13392174 113.58167 3.62966087 99.4382348 3.62966087 99.4382348 7.13392174"></polyline>
                            <path d="M44.1883826,3.6261913 L48.6591652,3.6261913 L54.7492435,21.045887 L50.4167478,21.045887 L49.1587826,17.4261391 L44.0183739,17.4261391 L42.8317826,21.045887 L38.5349739,21.045887 L44.1883826,3.6261913 Z M46.5234,9.77475652 L45.0418957,14.2703217 L48.0956087,14.2703217 L46.5234,9.77475652 L46.5234,9.77475652 Z" id="Fill-6"></path>
                            <path d="M84.8551565,11.3206957 L77.3713043,11.3206957 L77.3713043,14.7079826 L80.9256261,14.7079826 C80.9191826,15.4048696 81.0292174,16.1007652 80.1940435,17.0796783 C79.9095391,17.4132522 78.9355826,18.1606957 77.5765043,18.1606957 C76.4300609,18.1606957 75.606287,17.8330696 74.8910609,17.2258957 C73.3109217,15.8841652 72.9391826,13.3776522 72.9391826,12.0671478 C72.9391826,10.418113 73.5954261,6.32253913 77.6275565,6.15451304 C77.6275565,6.15451304 80.3472,5.97905217 81.055487,9.25878261 L84.828887,9.25878261 C84.7525565,7.59636522 82.819513,2.92831304 77.6275565,2.92136542 C75.8357739,2.91889565 73.5617217,3.45816522 71.6787391,5.34362609 C70.3147043,6.70964348 69.0874696,9.00302609 69.0874696,12.2346783 C69.0874696,15.7399304 70.3776522,18.0189391 71.5578,19.2704609 C73.6296261,21.4691739 75.7168174,21.6381913 76.8037826,21.6381913 C77.6662174,21.6381913 79.3157478,21.5098174 81.454487,20.0669739 L82.0205217,21.045887 L84.8551565,21.045887 L84.8551565,11.3206957" id="Fill-7"></path>
                            <path d="M110.637991,18.9071478 C111.23327,18.9071478 111.764609,19.3363826 111.764609,20.0025391 C111.764609,20.6721652 111.23327,21.1033826 110.637991,21.1033826 C110.041722,21.1033826 109.509887,20.6721652 109.509887,20.0025391 C109.509887,19.3363826 110.041722,18.9071478 110.637991,18.9071478 Z M110.637991,20.8689391 C111.093,20.8689391 111.46573,20.5046348 111.46573,20.0025391 C111.46573,19.503913 111.093,19.1430783 110.637991,19.1430783 C110.176043,19.1430783 109.809261,19.503913 109.809261,20.0025391 C109.809261,20.5046348 110.176043,20.8689391 110.637991,20.8689391 Z M110.20033,19.3869391 L110.664261,19.3869391 C110.972061,19.3869391 111.146035,19.4830957 111.146035,19.7512435 C111.146035,19.9767652 111.004774,20.064 110.82287,20.0798609 L111.150991,20.6166522 L110.896226,20.6166522 L110.597348,20.0912609 L110.444191,20.0912609 L110.444191,20.6166522 L110.20033,20.6166522 L110.20033,19.3869391 Z M110.444191,19.9004348 L110.661287,19.9004348 C110.799574,19.9004348 110.902174,19.8796174 110.902174,19.7304261 C110.902174,19.5975913 110.761904,19.5772696 110.649391,19.5772696 L110.444191,19.5772696 L110.444191,19.9004348 L110.444191,19.9004348 Z" id="Fill-8"></path>
                        </g>
                    </g>
                </g>
            </g>
        </g>
    </g>
</svg>