<?xml version="1.0" encoding="UTF-8"?>
<svg width="79px" height="38px" viewBox="0 0 79 38" version="1.1" xmlns="http://www.w3.org/2000/svg" xmlns:xlink="http://www.w3.org/1999/xlink">
    <!-- Generator: Sketch 55.2 (78181) - https://sketchapp.com -->
    <title>Path</title>
    <desc>Created with Sketch.</desc>
    <g id="0---D---Home-Page" stroke="none" stroke-width="1" fill="none" fill-rule="evenodd">
        <g id="0.0.1---Home-Page-1440-Hover-Contact-Us" transform="translate(-948.000000, -1009.000000)" fill="#B8B1A4">
            <g id="Best-practices" transform="translate(130.000000, 843.000000)">
                <g id="Logos" transform="translate(87.000000, 145.000000)">
                    <g id="UCSF" transform="translate(700.000000, 0.000000)">
                        <g transform="translate(31.000000, 21.000000)" id="Path">
                            <path d="M78.7298851,16.6014138 L78.7298851,11.8656092 L60.7152644,11.8656092 L60.7152644,29.3156897 C60.6182989,27.2713333 59.8718391,25.6851609 58.4581954,24.5696207 C57.4806782,23.7984828 56.013092,23.1819655 54.0547816,22.7213793 L49.5865057,21.6676437 C47.8623103,21.2647126 46.734977,20.9137586 46.204069,20.6141264 C45.7161839,20.349 45.3737471,20.0028506 45.1739195,19.5774253 L45.1737011,19.5780805 C45.1721724,19.575023 45.1710805,19.5721839 45.1695517,19.5691264 L45.1695517,19.568908 C45.0367701,19.2780115 44.9605517,18.9386322 44.9605517,18.5739195 C44.9605517,17.7938276 45.2285172,17.1301379 45.7825747,16.6086207 C45.7825747,16.6079655 45.7827931,16.607092 45.7827931,16.607092 C45.7948046,16.5952989 45.8072529,16.5843793 45.8192644,16.5734598 L45.8194828,16.5732414 C45.8199195,16.5710575 45.8203563,16.5706207 45.8210115,16.571931 C45.942,16.4618621 46.0747816,16.357908 46.2215402,16.2611609 C47.0597241,15.7084138 48.1813793,15.4321494 49.5862874,15.4321494 C50.8492414,15.4321494 51.9058161,15.6455172 52.7560115,16.0711609 C54.0311954,16.7162874 54.7156322,17.8045287 54.8101954,19.3358851 L59.9229425,19.3358851 C59.8294713,16.6298046 58.8242184,14.5657931 56.9065287,13.1434138 C54.9886207,11.7212529 52.6717126,11.0101724 49.956023,11.0101724 C46.7035287,11.0101724 44.2378966,11.7644943 42.5591264,13.2729195 C41.5270115,14.2006437 40.8137471,15.2744713 40.4160575,16.4933103 L40.414092,16.4933103 C40.3287011,16.7558161 40.257069,17.0288046 40.2007241,17.3044138 L40.2002874,17.3044138 C39.5778736,20.2406782 37.687046,22.235023 34.5260575,22.235023 C29.4646322,22.235023 27.5635402,17.9287931 27.5635402,13.6579425 C27.5635402,9.17306897 29.4646322,4.86793103 34.5260575,4.86793103 C37.3236437,4.86793103 39.7648161,6.80483908 40.1231954,9.35236782 L45.5783793,9.35236782 C44.8961264,3.4317931 40.1592299,0.129942529 34.5262759,0.129942529 C26.9627471,0.129942529 22.3732644,5.51633333 21.9635632,12.6122874 L21.9635632,0.740563218 L16.3286437,0.740563218 L16.3286437,16.6732644 C16.3286437,20.476977 15.0370805,22.2352414 11.0180345,22.2352414 C6.46043678,22.2352414 5.7428046,19.4721609 5.7428046,16.6732644 L5.7428046,0.740563218 L0.109195402,0.740563218 L0.109195402,16.6732644 C0.109195402,23.634908 4.12736782,26.9721379 11.0180345,26.9721379 C17.8728851,26.9721379 21.9633448,23.5995287 21.9633448,16.6732644 L21.9633448,14.6756437 C22.373046,21.5864023 26.9625287,26.9723563 34.5260575,26.9723563 C37.6337586,26.9723563 40.283931,25.9699425 42.2383103,24.1839425 C42.3595172,24.2813448 42.4837816,24.3763448 42.6148161,24.4661034 C43.6283678,25.1686667 45.4892759,25.8192529 48.1984138,26.4180805 L50.9549425,27.0228046 C52.5684138,27.3682989 53.7466322,27.7655517 54.4902529,28.2145632 C55.2327816,28.6751494 55.6044828,29.3261724 55.6044828,30.1665402 C55.6044828,31.6063908 54.8462299,32.5908966 53.3295057,33.1202759 C52.529977,33.3967586 51.4891264,33.5347816 50.2076092,33.5347816 C48.0678161,33.5347816 46.5567701,33.0108621 45.674908,31.9628046 C45.1931379,31.3871264 44.8694828,30.517931 44.7050345,29.3547816 L39.6267931,29.3547816 C39.6267931,32.0036437 40.5868391,34.084908 42.5071494,35.5990115 C44.4278966,37.1135517 47.064092,37.8704943 50.4163908,37.8704943 C53.6985862,37.8704943 56.2386897,37.1017586 58.0371379,35.5642874 C59.6910115,34.1504253 60.5822644,32.4019885 60.7152644,30.3207241 L60.7152644,37.4878736 L66.3495287,37.4878736 L66.3495287,26.9009425 L77.0788506,26.9009425 L77.0788506,22.5230805 L66.3495287,22.5230805 L66.3495287,16.6014138 L78.7298851,16.6014138 Z"></path>
                        </g>
                    </g>
                </g>
            </g>
        </g>
    </g>
</svg>