<?xml version="1.0" encoding="UTF-8"?>
<svg width="94px" height="38px" viewBox="0 0 94 38" version="1.1" xmlns="http://www.w3.org/2000/svg" xmlns:xlink="http://www.w3.org/1999/xlink">
    <!-- Generator: Sketch 55.2 (78181) - https://sketchapp.com -->
    <title>Zelle</title>
    <desc>Created with Sketch.</desc>
    <g id="0---D---Home-Page" stroke="none" stroke-width="1" fill="none" fill-rule="evenodd">
        <g id="0.0.1---Home-Page-1440-Hover-Contact-Us" transform="translate(-520.000000, -1009.000000)">
            <g id="Best-practices" transform="translate(130.000000, 843.000000)">
                <g id="Logos" transform="translate(87.000000, 145.000000)">
                    <g id="Zelle" transform="translate(280.000000, 0.000000)">
                        <g fill="#B8B1A4" transform="translate(23.721133, 21.000000)">
                            <path d="M3.19252165,5.26822739 L8.4988527,5.26822739 L8.4988527,2.62846915 C8.4988527,1.17680572 9.67565842,2.66666245e-16 11.1273218,0 C12.5789853,-2.66666245e-16 13.755791,1.17680572 13.755791,2.62846915 L13.755791,5.26822739 L17.5507716,5.26822739 C19.9024071,5.26822739 21.8087843,7.1746046 21.8087843,9.52624005 L21.8087843,9.52624005 L7.88308684,27.463021 C15.3555737,27.4615148 19.1390754,27.4615148 19.233592,27.463021 C19.3753668,27.4652803 19.5653626,27.6412356 19.6194601,27.7627654 C19.8891651,28.368657 20.2530441,29.0388881 20.6414156,29.6619467 C21.3306249,30.767635 22.2383676,31.6419669 22.3114948,31.8242237 C22.3846219,32.0064805 22.3871358,32.2117171 22.3293426,32.3662901 C22.2908138,32.4693388 22.1718178,32.59104 21.9723547,32.7313937 L13.755791,32.7313937 L13.755791,35.3715309 C13.755791,36.8231943 12.5789853,38 11.1273218,38 C9.67565842,38 8.4988527,36.8231943 8.4988527,35.3715309 L8.4988527,32.7313937 L4.4432775,32.7313937 C1.9893231,32.7313937 2.48007208e-15,30.7420706 0,28.2881162 L0,28.2881162 L13.900185,10.5380011 L3.19252165,10.5380011 C1.73731384,10.5380011 0.557634824,9.35832204 0.557634824,7.90311422 C0.557634824,6.44790641 1.73731384,5.26822739 3.19252165,5.26822739 Z" id="Rectangle" fill="#B8B1A4"></path>
                            <path d="M32.2137218,33.1245283 C28.998008,33.1245283 25.9449673,31.7895452 23.953938,29.6239604 C22.1237735,27.6333434 21.2226415,24.9420866 21.2226415,21.9151777 C21.2226415,20.0317978 21.6774986,17.8682978 22.441761,16.264375 C24.2420582,12.4861727 27.881305,10.3245283 32.2137218,10.3245283 C35.9334943,10.3245283 38.7917395,11.8338627 40.7223972,14.2738837 C41.6139312,15.4006302 42.2149126,16.67909 42.5536384,18.2073066 C42.6301595,18.552544 42.7462624,19.1577316 42.8099116,19.758601 C42.8666792,20.2945062 42.8754717,20.8261027 42.8754717,21.1805073 C42.8754717,21.440819 42.8754717,21.9894192 42.8754717,22.8263079 C42.8754717,23.1652376 42.6007149,23.4399945 42.2617852,23.4399945 L42.1116648,23.4399945 L27.1757834,23.4399945 C27.2956409,24.1216504 27.4109429,24.6027571 27.5216895,24.8833147 C27.9754901,26.0329409 28.644815,26.5653144 29.1355678,26.900762 C29.2777785,26.9979683 29.3137281,27.0183063 29.3917007,27.0649229 C29.7729472,27.2928545 29.9500946,27.3888272 30.0809021,27.4364209 C31.0741511,27.7978102 32.6036796,28.0657926 33.6042488,27.8721067 C34.4598165,27.7064897 35.658214,27.5389168 36.564234,27.0649229 C36.9990443,26.8374473 37.4521204,26.4995634 37.8084348,26.1844788 C38.019224,25.9980805 38.1753532,25.8525882 38.3462985,25.7019397 C38.5172438,25.5512912 38.6793176,25.4788604 38.8069488,25.4867003 C39.0608882,25.5022988 39.2428207,25.6822782 39.3538034,25.8119122 C39.8493423,26.3907297 39.7349557,26.2748819 40.3396727,26.900762 C40.9443897,27.5266421 41.6497478,28.0492131 42.0014873,28.3213135 C42.5349347,28.7339804 42.1639221,29.0758185 42.0565836,29.222311 C41.7128736,29.6913963 41.1735082,30.0889293 40.7223972,30.4631376 C39.3424511,31.6078389 37.4511658,32.4522865 35.5785296,32.8373512 C34.4325936,33.0729867 33.3682671,33.1245283 32.2137218,33.1245283 Z M37.2249584,19.0720037 C37.0968403,18.3658376 36.8369221,17.694417 36.4452039,17.057742 C36.1308304,16.5467784 35.4031352,15.8342188 34.4914038,15.4417759 C33.6990707,15.1007264 32.7666792,15.0434803 32.2977421,15.0434803 C31.2892029,15.0434803 30.6480466,15.1820374 29.9604978,15.4914211 C28.9465443,15.9476806 28.2332321,16.7031052 27.779588,17.5334728 C27.598644,17.8646796 27.4242399,18.3775233 27.2563757,19.0720037 L37.2249584,19.0720037 Z" id="Combined-Shape" fill="#B8B1A4"></path>
                            <path d="M77.0967407,33.1245283 C73.8810269,33.1245283 70.8279862,31.7895452 68.8369569,29.6239604 C67.0067924,27.6333434 66.1056604,24.9420866 66.1056604,21.9151777 C66.1056604,20.0317978 66.5605175,17.8682978 67.3247798,16.264375 C69.1250771,12.4861727 72.7643239,10.3245283 77.0967407,10.3245283 C80.8165132,10.3245283 83.6747584,11.8338627 85.605416,14.2738837 C86.49695,15.4006302 87.0979314,16.67909 87.4366573,18.2073066 C87.5131784,18.552544 87.6292812,19.1577316 87.6929304,19.758601 C87.7496981,20.2945062 87.7584906,20.8261027 87.7584906,21.1805073 C87.7584906,21.440819 87.7584906,21.9894192 87.7584906,22.8263079 C87.7584906,23.1652376 87.4837338,23.4399945 87.144804,23.4399945 L86.9946836,23.4399945 L72.0588022,23.4399945 C72.1786598,24.1216504 72.2939618,24.6027571 72.4047084,24.8833147 C72.858509,26.0329409 73.5278339,26.5653144 74.0185867,26.900762 C74.1607974,26.9979683 74.196747,27.0183063 74.2747196,27.0649229 C74.6559661,27.2928545 74.8331135,27.3888272 74.9639209,27.4364209 C75.9571699,27.7978102 77.4866985,28.0657926 78.4872677,27.8721067 C79.3428353,27.7064897 80.5412328,27.5389168 81.4472529,27.0649229 C81.8820632,26.8374473 82.3351393,26.4995634 82.6914536,26.1844788 C82.9022428,25.9980805 83.0583721,25.8525882 83.2293174,25.7019397 C83.4002626,25.5512912 83.5623365,25.4788604 83.6899677,25.4867003 C83.9439071,25.5022988 84.1258396,25.6822782 84.2368223,25.8119122 C84.7323612,26.3907297 84.6179745,26.2748819 85.2226916,26.900762 C85.8274086,27.5266421 86.5327667,28.0492131 86.8845061,28.3213135 C87.4179536,28.7339804 87.0469409,29.0758185 86.9396024,29.222311 C86.5958924,29.6913963 86.056527,30.0889293 85.605416,30.4631376 C84.22547,31.6078389 82.3341847,32.4522865 80.4615485,32.8373512 C79.3156125,33.0729867 78.251286,33.1245283 77.0967407,33.1245283 Z M82.1079773,19.0720037 C81.9798591,18.3658376 81.719941,17.694417 81.3282228,17.057742 C81.0138493,16.5467784 80.2861541,15.8342188 79.3744227,15.4417759 C78.5820896,15.1007264 77.6496981,15.0434803 77.180761,15.0434803 C76.1722217,15.0434803 75.5310655,15.1820374 74.8435167,15.4914211 C73.8295632,15.9476806 73.116251,16.7031052 72.6626069,17.5334728 C72.4816629,17.8646796 72.3072588,18.3775233 72.1393946,19.0720037 L82.1079773,19.0720037 Z" id="Combined-Shape" fill="#B8B1A4"></path>
                            <path d="M48.0940389,2.58113208 C49.6298496,2.58113208 50.8748702,3.82615267 50.8748702,5.36196341 L50.8748702,26.5932375 C50.8910463,27.2024223 51.0944436,27.5978338 51.4850621,27.7794721 C51.6538739,27.8579698 51.7837189,27.9109668 52.0893978,27.8888303 C52.2252535,27.878992 52.4431325,27.8618103 52.7212595,27.8206412 C52.8651784,27.7993379 53.1016674,27.7659275 53.2914962,27.8598625 C53.4685163,27.9474592 53.5746212,28.1582953 53.617457,28.2976004 C53.6362039,28.3585668 53.7074121,28.6933141 53.781302,29.2109278 C53.8551918,29.7285414 53.9461526,30.007854 54.0817172,30.397841 C54.1494258,30.5926222 54.2847044,30.9139436 54.4875531,31.3618051 C54.5827691,31.5071052 54.6659064,31.669549 54.7369649,31.8491365 C54.7843193,31.9688161 54.823487,32.2883714 54.6506384,32.5279562 C54.5929565,32.6079088 54.444874,32.6962191 54.2063908,32.792887 C53.9761287,32.8659382 53.6121595,32.9392211 53.1144832,33.0127356 C52.9910589,33.0309672 52.5857015,33.0793076 52.1257667,33.102321 C51.6476628,33.1262436 51.1103536,33.1245283 50.7570556,33.1245283 C50.398768,33.1245283 49.6041331,33.0335029 48.751665,32.7314413 C47.9548855,32.4491124 47.1044754,32.004213 46.2884909,31.0197185 C45.9768666,30.6437403 45.5546467,29.4633604 45.4869925,29.0962226 C45.4110338,28.6840194 45.3531055,27.9629962 45.3132075,26.933153 L45.3132075,5.36196341 C45.3132075,3.82615267 46.5582281,2.58113208 48.0940389,2.58113208 Z" id="Rectangle" fill="#B8B1A4"></path>
                            <path d="M59.3145779,2.58113208 C60.8700684,2.58113208 62.1310426,3.84210628 62.1310426,5.3975968 L62.1310426,26.5932376 C62.147426,27.2024224 62.3534296,27.5978339 62.7490534,27.7794722 C62.9200283,27.8579699 63.051537,27.9109669 63.3611329,27.8888304 C63.4987294,27.878992 63.7194003,27.8618104 64.0010911,27.8206413 C64.1468541,27.799338 64.3863735,27.7659276 64.5786347,27.8598625 C64.6165832,27.8784035 64.728038,28.018543 64.8369333,28.2456037 C64.9979683,28.5813825 65.174548,29.0962226 65.5300969,29.6219838 C66.038781,30.3741907 66.9710284,31.4058803 66.8025587,31.8679648 C66.5121068,32.6646263 64.7813518,32.9570224 64.3993535,33.0127356 C64.2743476,33.0309672 63.8637961,33.0793076 63.3979678,33.102321 C62.9137376,33.1262436 62.3695435,33.1245283 62.0117184,33.1245283 C61.6488397,33.1245283 60.8440226,33.0335029 59.9806312,32.7314413 C59.1736419,32.4491124 58.312335,32.004213 57.4858947,31.0197186 C57.1702772,30.6437403 56.7426472,29.4633605 56.674126,29.0962226 C56.597194,28.6840195 56.5385231,27.9629963 56.4981132,26.9331531 L56.4981132,5.3975968 C56.4981132,3.84210628 57.7590874,2.58113208 59.3145779,2.58113208 Z" id="Rectangle" fill="#B8B1A4"></path>
                            <circle id="Oval" stroke="#B8B1A4" stroke-width="0.5" cx="90.2679245" cy="7.81509434" r="2.36603774"></circle>
                            <path d="M89.7813584,7.62921034 L90.4546622,7.62921034 C90.621309,7.62645649 90.7462923,7.57688792 90.8296157,7.48050314 C90.9115953,7.39100299 90.9525844,7.28085062 90.9525844,7.15004271 C90.9498965,6.99307321 90.900844,6.87947857 90.8054252,6.80925538 C90.7301653,6.74729373 90.6213089,6.71631338 90.4788527,6.71631338 L89.7813584,6.71631338 L89.7813584,7.62921034 Z M89.3358491,6.30943396 L90.4828845,6.30943396 C90.7274791,6.30943396 90.9270491,6.37552539 91.0816007,6.50771023 C91.2684064,6.65779509 91.3658396,6.87190378 91.3739032,7.15004271 C91.3685275,7.55898954 91.1790367,7.8371243 90.8054252,7.98445531 L91.4867925,9.32075472 L90.9566162,9.32075472 L90.3498364,8.03402438 L89.7813584,8.03402438 L89.7813584,9.32075472 L89.3358491,9.32075472 L89.3358491,6.30943396 Z" id="R" fill="#B8B1A4" fill-rule="nonzero"></path>
                        </g>
                    </g>
                </g>
            </g>
        </g>
    </g>
</svg>